<svg xmlns="http://www.w3.org/2000/svg" xmlns:xlink="http://www.w3.org/1999/xlink" width="1920" zoomAndPan="magnify" viewBox="0 0 1440 809.999993" height="1080" preserveAspectRatio="xMidYMid meet" version="1.0"><path fill="#8295ae" d="M 800.050781 747.871094 C 801.753906 747.871094 803.367188 748.003906 804.894531 748.261719 C 808.035156 748.789062 821.078125 752.0625 824.191406 753.464844 C 845.984375 763.285156 842.59375 802.5625 813.679688 802.5625 C 811.714844 802.5625 809.863281 802.382812 808.128906 802.042969 C 805.277344 801.480469 789.222656 797.394531 785.335938 794.5 C 768.347656 781.847656 773.160156 747.871094 800.050781 747.871094 Z M 800.050781 747.871094 " fill-opacity="1" fill-rule="nonzero"/><path fill="#113576" d="M 813.679688 803.484375 C 811.703125 803.484375 809.773438 803.300781 807.949219 802.941406 C 805.367188 802.4375 788.957031 798.339844 784.789062 795.238281 C 775.882812 788.605469 772.1875 775.449219 775.996094 763.949219 C 779.523438 753.304688 788.515625 746.953125 800.050781 746.953125 C 801.761719 746.953125 803.445312 747.089844 805.046875 747.355469 C 808.089844 747.871094 821.277344 751.144531 824.570312 752.628906 C 836.910156 758.1875 840.945312 772.351562 838.554688 783.46875 C 836.476562 793.144531 828.847656 803.484375 813.679688 803.484375 Z M 800.050781 748.789062 C 789.1875 748.789062 781.054688 754.527344 777.738281 764.527344 C 774.171875 775.296875 777.597656 787.589844 785.886719 793.761719 C 789.5 796.457031 805.058594 800.503906 808.308594 801.140625 C 810.011719 801.476562 811.820312 801.644531 813.683594 801.644531 C 827.757812 801.644531 834.832031 792.054688 836.761719 783.082031 C 838.996094 772.6875 835.265625 759.464844 823.816406 754.304688 C 820.867188 752.976562 808.027344 749.722656 804.742188 749.171875 C 803.238281 748.917969 801.660156 748.789062 800.050781 748.789062 Z M 800.050781 748.789062 " fill-opacity="1" fill-rule="nonzero"/><path fill="#8295ae" d="M 813.3125 751.261719 C 846.433594 751.261719 846.726562 802.5625 813.683594 802.5625 C 780.5625 802.5625 780.269531 751.261719 813.3125 751.261719 Z M 813.3125 751.261719 " fill-opacity="1" fill-rule="nonzero"/><path fill="#113576" d="M 813.679688 803.484375 C 796.667969 803.484375 787.765625 790.019531 787.765625 776.722656 C 787.765625 769.816406 790.027344 763.382812 794.136719 758.605469 C 798.785156 753.199219 805.414062 750.34375 813.3125 750.34375 C 830.324219 750.34375 839.226562 763.804688 839.226562 777.105469 C 839.226562 784.011719 836.964844 790.441406 832.855469 795.21875 C 828.207031 800.625 821.574219 803.484375 813.679688 803.484375 Z M 813.3125 752.179688 C 805.96875 752.179688 799.820312 754.816406 795.53125 759.804688 C 791.707031 764.25 789.605469 770.257812 789.605469 776.722656 C 789.605469 788.726562 797.140625 801.644531 813.683594 801.644531 C 821.027344 801.644531 827.175781 799.007812 831.464844 794.023438 C 835.285156 789.578125 837.390625 783.570312 837.390625 777.105469 C 837.386719 765.101562 829.855469 752.179688 813.3125 752.179688 Z M 813.3125 752.179688 " fill-opacity="1" fill-rule="nonzero"/><path fill="#7bb984" d="M 813.421875 766.265625 C 827.171875 766.265625 827.292969 787.5625 813.574219 787.5625 C 799.824219 787.5625 799.703125 766.265625 813.421875 766.265625 Z M 813.421875 766.265625 " fill-opacity="1" fill-rule="nonzero"/><path fill="#113576" d="M 813.574219 788.480469 C 806.15625 788.480469 802.273438 782.621094 802.273438 776.832031 C 802.273438 773.839844 803.261719 771.042969 805.050781 768.960938 C 807.085938 766.597656 809.980469 765.34375 813.417969 765.34375 C 820.835938 765.34375 824.71875 771.203125 824.71875 776.996094 C 824.71875 779.988281 823.730469 782.785156 821.941406 784.863281 C 819.90625 787.230469 817.011719 788.480469 813.574219 788.480469 Z M 813.417969 767.183594 C 807.027344 767.183594 804.113281 772.183594 804.113281 776.832031 C 804.113281 781.558594 807.074219 786.644531 813.574219 786.644531 C 819.964844 786.644531 822.878906 781.640625 822.878906 776.996094 C 822.878906 772.269531 819.917969 767.183594 813.417969 767.183594 Z M 813.417969 767.183594 " fill-opacity="1" fill-rule="nonzero"/><path fill="#8295ae" d="M 1047.066406 747.871094 C 1048.765625 747.871094 1050.382812 748.003906 1051.910156 748.261719 C 1055.046875 748.789062 1068.09375 752.0625 1071.207031 753.464844 C 1093 763.285156 1089.609375 802.5625 1060.695312 802.5625 C 1058.730469 802.5625 1056.878906 802.382812 1055.144531 802.042969 C 1052.292969 801.480469 1036.238281 797.394531 1032.351562 794.5 C 1015.359375 781.847656 1020.175781 747.871094 1047.066406 747.871094 Z M 1047.066406 747.871094 " fill-opacity="1" fill-rule="nonzero"/><path fill="#113576" d="M 1060.695312 803.484375 C 1058.71875 803.484375 1056.789062 803.300781 1054.964844 802.941406 C 1052.382812 802.4375 1035.972656 798.339844 1031.800781 795.238281 C 1022.898438 788.605469 1019.199219 775.449219 1023.011719 763.949219 C 1026.539062 753.304688 1035.53125 746.953125 1047.066406 746.953125 C 1048.777344 746.953125 1050.460938 747.089844 1052.0625 747.355469 C 1055.105469 747.871094 1068.292969 751.144531 1071.585938 752.628906 C 1083.921875 758.1875 1087.960938 772.351562 1085.570312 783.46875 C 1083.488281 793.144531 1075.863281 803.484375 1060.695312 803.484375 Z M 1047.0625 748.789062 C 1036.199219 748.789062 1028.070312 754.527344 1024.753906 764.527344 C 1021.183594 775.296875 1024.609375 787.589844 1032.898438 793.761719 C 1036.515625 796.457031 1052.074219 800.503906 1055.320312 801.140625 C 1057.027344 801.476562 1058.835938 801.644531 1060.695312 801.644531 C 1074.769531 801.644531 1081.84375 792.054688 1083.773438 783.082031 C 1086.007812 772.6875 1082.277344 759.464844 1070.832031 754.304688 C 1067.878906 752.976562 1055.039062 749.722656 1051.757812 749.171875 C 1050.253906 748.917969 1048.675781 748.789062 1047.0625 748.789062 Z M 1047.0625 748.789062 " fill-opacity="1" fill-rule="nonzero"/><path fill="#8295ae" d="M 1060.324219 751.261719 C 1093.445312 751.261719 1093.738281 802.5625 1060.695312 802.5625 C 1027.574219 802.5625 1027.285156 751.261719 1060.324219 751.261719 Z M 1060.324219 751.261719 " fill-opacity="1" fill-rule="nonzero"/><path fill="#113576" d="M 1060.695312 803.484375 C 1043.683594 803.484375 1034.78125 790.019531 1034.78125 776.722656 C 1034.78125 769.816406 1037.042969 763.382812 1041.152344 758.605469 C 1045.800781 753.199219 1052.429688 750.34375 1060.324219 750.34375 C 1077.339844 750.34375 1086.242188 763.804688 1086.242188 777.105469 C 1086.242188 784.011719 1083.980469 790.441406 1079.871094 795.21875 C 1075.222656 800.625 1068.589844 803.484375 1060.695312 803.484375 Z M 1060.324219 752.179688 C 1052.980469 752.179688 1046.835938 754.816406 1042.542969 759.804688 C 1038.722656 764.25 1036.617188 770.257812 1036.617188 776.722656 C 1036.617188 788.726562 1044.152344 801.644531 1060.695312 801.644531 C 1068.039062 801.644531 1074.1875 799.007812 1078.476562 794.023438 C 1082.300781 789.578125 1084.402344 783.570312 1084.402344 777.105469 C 1084.402344 765.101562 1076.871094 752.179688 1060.324219 752.179688 Z M 1060.324219 752.179688 " fill-opacity="1" fill-rule="nonzero"/><path fill="#7bb984" d="M 1060.433594 766.265625 C 1074.183594 766.265625 1074.308594 787.5625 1060.589844 787.5625 C 1046.835938 787.5625 1046.714844 766.265625 1060.433594 766.265625 Z M 1060.433594 766.265625 " fill-opacity="1" fill-rule="nonzero"/><path fill="#113576" d="M 1060.589844 788.480469 C 1053.171875 788.480469 1049.289062 782.621094 1049.289062 776.832031 C 1049.289062 771.300781 1052.777344 765.34375 1060.433594 765.34375 C 1067.851562 765.34375 1071.730469 771.203125 1071.730469 776.996094 C 1071.730469 779.988281 1070.746094 782.785156 1068.957031 784.863281 C 1066.921875 787.230469 1064.027344 788.480469 1060.589844 788.480469 Z M 1060.433594 767.183594 C 1054.039062 767.183594 1051.128906 772.1875 1051.128906 776.832031 C 1051.128906 781.558594 1054.089844 786.644531 1060.589844 786.644531 C 1066.980469 786.644531 1069.894531 781.640625 1069.894531 776.996094 C 1069.894531 772.269531 1066.933594 767.183594 1060.433594 767.183594 Z M 1060.433594 767.183594 " fill-opacity="1" fill-rule="nonzero"/><path fill="#7bb984" d="M 1085.808594 749.410156 C 1075.609375 754.546875 755.25 752.375 747.011719 749.410156 C 738.773438 746.449219 737.085938 721.226562 749.492188 717.199219 C 761.898438 713.167969 1076.492188 714.929688 1088.285156 717.199219 C 1100.078125 719.464844 1096.007812 744.277344 1085.808594 749.410156 Z M 1085.808594 749.410156 " fill-opacity="1" fill-rule="nonzero"/><path fill="#113576" d="M 947.082031 753.417969 C 858.460938 753.417969 751.625 752.046875 746.703125 750.277344 C 741.667969 748.46875 739.488281 740.382812 739.59375 733.636719 C 739.699219 726.742188 742.28125 718.570312 749.207031 716.324219 C 755.773438 714.191406 838.242188 713.871094 886.820312 713.871094 C 974.242188 713.871094 1081.363281 714.929688 1088.460938 716.296875 C 1092.675781 717.105469 1095.421875 720.574219 1096.183594 726.054688 C 1097.363281 734.507812 1093.351562 746.644531 1086.222656 750.230469 C 1080.714844 753.003906 996.683594 753.417969 947.082031 753.417969 Z M 886.820312 715.710938 C 805.558594 715.710938 754.324219 716.59375 749.773438 718.070312 C 743.769531 720.023438 741.527344 727.40625 741.429688 733.667969 C 741.320312 740.902344 743.851562 747.300781 747.324219 748.546875 C 751.585938 750.078125 850.53125 751.582031 947.082031 751.582031 C 1029.972656 751.582031 1081.675781 750.464844 1085.398438 748.59375 C 1091.75 745.390625 1095.433594 733.984375 1094.363281 726.304688 C 1093.988281 723.621094 1092.679688 718.976562 1088.113281 718.101562 C 1081.839844 716.894531 982.132812 715.710938 886.820312 715.710938 Z M 886.820312 715.710938 " fill-opacity="1" fill-rule="nonzero"/><path fill="#7bb984" d="M 1060.222656 722.082031 C 1056.34375 722.082031 1053.4375 718.933594 1053.738281 715.054688 C 1053.738281 715.054688 1082.089844 363.574219 1082.089844 363.558594 C 1085.972656 315.421875 1006.730469 310.144531 978.699219 333.21875 C 969.566406 340.738281 963.574219 351.734375 962.617188 363.558594 C 962.609375 363.6875 934.265625 715.054688 934.265625 715.054688 C 933.96875 718.9375 930.578125 722.082031 926.699219 722.082031 C 922.816406 722.082031 919.914062 718.933594 920.210938 715.054688 C 920.210938 715.054688 948.558594 363.636719 948.566406 363.558594 C 952.808594 310.964844 994.738281 307.316406 1034.863281 307.316406 C 1052.640625 307.316406 1073.632812 312.96875 1084.59375 327.679688 C 1094.289062 340.699219 1097.109375 357.976562 1095.316406 373.824219 C 1088.121094 437.59375 1084.972656 502.09375 1079.8125 566.058594 C 1075.804688 615.722656 1071.796875 665.390625 1067.792969 715.058594 C 1067.496094 718.933594 1064.105469 722.082031 1060.222656 722.082031 Z M 1060.222656 722.082031 " fill-opacity="1" fill-rule="nonzero"/><path fill="#113576" d="M 1060.222656 723 C 1058.09375 723 1056.148438 722.167969 1054.746094 720.652344 C 1053.339844 719.136719 1052.65625 717.121094 1052.824219 714.984375 C 1081.175781 363.484375 1081.175781 363.476562 1081.179688 363.457031 C 1081.988281 353.394531 1079.132812 344.738281 1072.683594 337.75 C 1062.953125 327.199219 1044.851562 320.902344 1024.269531 320.902344 C 1006.007812 320.902344 989.191406 325.765625 979.285156 333.921875 C 970.195312 341.40625 964.453125 352.234375 963.535156 363.628906 C 963.527344 363.75 938.082031 679.164062 935.179688 715.128906 C 934.847656 719.46875 931.042969 723 926.699219 723 C 924.566406 723 922.621094 722.167969 921.21875 720.65625 C 919.8125 719.136719 919.128906 717.125 919.292969 714.984375 C 919.574219 711.472656 947.601562 364.09375 947.648438 363.484375 C 951.898438 310.804688 993.0625 306.394531 1034.863281 306.394531 C 1056.789062 306.394531 1075.65625 314.144531 1085.328125 327.128906 C 1094.257812 339.121094 1098.234375 356.175781 1096.230469 373.921875 C 1091.433594 416.425781 1088.386719 459.957031 1085.441406 502.054688 C 1083.96875 523.078125 1082.445312 544.8125 1080.726562 566.128906 L 1068.707031 715.128906 C 1068.375 719.46875 1064.566406 723 1060.222656 723 Z M 1024.269531 319.066406 C 1045.359375 319.066406 1063.960938 325.585938 1074.035156 336.503906 C 1080.847656 343.886719 1083.863281 353.011719 1083.007812 363.628906 C 1082.96875 364.09375 1054.9375 711.617188 1054.652344 715.128906 C 1054.527344 716.746094 1055.039062 718.269531 1056.09375 719.40625 C 1057.144531 720.539062 1058.609375 721.164062 1060.222656 721.164062 C 1063.628906 721.164062 1066.617188 718.390625 1066.878906 714.984375 L 1078.898438 565.984375 C 1080.617188 544.675781 1082.136719 522.945312 1083.605469 501.929688 C 1086.554688 459.8125 1089.601562 416.261719 1094.40625 373.71875 C 1096.359375 356.429688 1092.515625 339.847656 1083.855469 328.226562 C 1070.035156 309.671875 1042.867188 308.230469 1034.867188 308.230469 C 993.921875 308.234375 953.605469 312.511719 949.480469 363.632812 C 949.476562 363.699219 927.777344 632.691406 921.128906 715.128906 C 921.003906 716.75 921.515625 718.269531 922.570312 719.410156 C 923.621094 720.539062 925.085938 721.164062 926.699219 721.164062 C 930.105469 721.164062 933.089844 718.394531 933.351562 714.988281 C 933.632812 711.472656 961.652344 364.15625 961.703125 363.488281 C 962.664062 351.597656 968.644531 340.304688 978.121094 332.507812 C 988.34375 324.089844 1005.59375 319.066406 1024.269531 319.066406 Z M 1024.269531 319.066406 " fill-opacity="1" fill-rule="nonzero"/><path fill="#e5936a" d="M 985.859375 484.539062 C 982.242188 490.546875 858.519531 488.679688 855.316406 484.539062 C 852.113281 480.402344 850.050781 415.234375 855.316406 405.078125 C 860.582031 394.917969 983.046875 399.996094 985.859375 405.078125 C 988.675781 410.15625 989.480469 478.535156 985.859375 484.539062 Z M 985.859375 484.539062 " fill-opacity="1" fill-rule="nonzero"/><path fill="#113576" d="M 928.972656 489.296875 C 910.515625 489.296875 857.238281 488.527344 854.589844 485.101562 C 850.925781 480.367188 849.359375 414.574219 854.5 404.652344 C 857.226562 399.394531 884.507812 398.292969 906.917969 398.292969 C 933.519531 398.292969 984.355469 400.46875 986.664062 404.632812 C 989.328125 409.4375 990.84375 478.054688 986.648438 485.015625 C 984.515625 488.550781 954.105469 489.296875 928.972656 489.296875 Z M 906.917969 400.128906 C 871.523438 400.128906 857.476562 402.902344 856.132812 405.5 C 850.746094 415.890625 853.460938 480.640625 856.042969 483.980469 C 858.164062 485.589844 889.839844 487.457031 928.972656 487.457031 C 965.78125 487.457031 983.679688 485.746094 985.082031 484.050781 C 988.652344 478.128906 987.34375 409.644531 985.054688 405.519531 C 982.738281 403.199219 944.402344 400.128906 906.917969 400.128906 Z M 906.917969 400.128906 " fill-opacity="1" fill-rule="nonzero"/><path fill="#113576" d="M 889.269531 488.476562 C 884.582031 446.6875 890.050781 399.789062 890.105469 399.320312 L 891.929688 399.535156 C 891.875 400.003906 886.429688 446.699219 891.097656 488.273438 Z M 889.269531 488.476562 " fill-opacity="1" fill-rule="nonzero"/><path fill="#7bb984" d="M 938.503906 488.375 L 938.503906 399.886719 L 945.53125 400.207031 L 945.53125 488.375 Z M 938.503906 488.375 " fill-opacity="1" fill-rule="nonzero"/><path fill="#113576" d="M 946.449219 489.296875 L 937.585938 489.296875 L 937.585938 398.921875 L 946.449219 399.332031 Z M 939.421875 487.457031 L 944.613281 487.457031 L 944.613281 401.085938 L 939.421875 400.847656 Z M 939.421875 487.457031 " fill-opacity="1" fill-rule="nonzero"/><path fill="#7bb984" d="M 1038.679688 570.203125 C 1032.148438 576.207031 808.917969 574.339844 803.136719 570.203125 C 797.359375 566.0625 793.640625 500.898438 803.136719 490.738281 C 812.636719 480.578125 1033.601562 485.660156 1038.679688 490.738281 C 1043.761719 495.816406 1045.210938 564.195312 1038.679688 570.203125 Z M 1038.679688 570.203125 " fill-opacity="1" fill-rule="nonzero"/><path fill="#113576" d="M 936.046875 574.957031 C 884.488281 574.957031 806.421875 573.683594 802.605469 570.949219 C 799.941406 569.042969 798.382812 558.5625 797.542969 550.105469 C 795.507812 529.558594 795.691406 497.363281 802.46875 490.109375 C 807.226562 485.023438 856.082031 483.953125 896.234375 483.953125 C 950.761719 483.953125 1035.640625 486.402344 1039.328125 490.089844 C 1042.925781 493.683594 1044.292969 521.59375 1043.898438 540.359375 C 1043.6875 550.371094 1042.8125 567.648438 1039.300781 570.878906 C 1035.445312 574.425781 972.957031 574.957031 936.046875 574.957031 Z M 896.238281 485.792969 C 841.625 485.792969 807.074219 487.875 803.808594 491.367188 C 798.089844 497.480469 797.054688 526.523438 799.375 549.921875 C 800.585938 562.15625 802.40625 568.546875 803.671875 569.457031 C 806.976562 571.371094 870.074219 573.121094 936.046875 573.121094 C 1008.132812 573.121094 1036.054688 571.183594 1038.058594 569.523438 C 1039.730469 567.988281 1041.660156 559.511719 1042.0625 540.324219 C 1042.535156 517.714844 1040.578125 493.9375 1038.03125 491.386719 C 1034.628906 488.960938 965.234375 485.792969 896.238281 485.792969 Z M 896.238281 485.792969 " fill-opacity="1" fill-rule="nonzero"/><path fill="#7bb984" d="M 1038.675781 570.207031 C 1036.9375 571.804688 1019.859375 572.84375 995.613281 573.421875 C 991.679688 573.527344 987.550781 573.617188 983.261719 573.6875 C 914.847656 574.828125 807.132812 573.054688 803.144531 570.207031 C 797.363281 566.0625 793.636719 500.898438 803.144531 490.742188 C 809.644531 483.785156 915.289062 483.976562 982.894531 486.402344 C 987.847656 486.597656 992.59375 486.789062 997.089844 486.980469 C 1020.808594 488.054688 1037.324219 489.390625 1038.675781 490.742188 C 1043.753906 495.820312 1045.214844 564.199219 1038.675781 570.207031 Z M 1038.675781 570.207031 " fill-opacity="1" fill-rule="nonzero"/><path fill="#113576" d="M 936.382812 574.957031 C 884.695312 574.957031 806.4375 573.683594 802.609375 570.957031 C 799.789062 568.933594 798.21875 556.925781 797.53125 549.953125 C 795.511719 529.453125 795.710938 497.332031 802.46875 490.113281 C 807.226562 485.023438 856.15625 483.953125 896.367188 483.953125 C 924.300781 483.953125 955.855469 484.511719 982.925781 485.480469 C 987.886719 485.675781 992.632812 485.871094 997.132812 486.0625 C 1037.101562 487.871094 1038.777344 489.539062 1039.328125 490.089844 C 1042.925781 493.691406 1044.292969 521.617188 1043.898438 540.394531 C 1043.6875 550.394531 1042.8125 567.65625 1039.300781 570.882812 C 1038.5625 571.5625 1036.601562 573.359375 995.636719 574.34375 C 991.699219 574.449219 987.570312 574.535156 983.277344 574.605469 C 969.339844 574.839844 953.558594 574.957031 936.382812 574.957031 Z M 896.367188 485.792969 C 841.675781 485.792969 807.078125 487.878906 803.8125 491.371094 C 798.113281 497.460938 797.066406 526.429688 799.359375 549.773438 C 800.574219 562.105469 802.402344 568.546875 803.679688 569.460938 C 806.988281 571.371094 870.246094 573.117188 936.382812 573.117188 C 953.550781 573.117188 969.320312 573 983.25 572.769531 C 987.535156 572.699219 991.660156 572.609375 995.589844 572.503906 C 1032.730469 571.617188 1037.488281 570.003906 1038.058594 569.527344 C 1039.730469 567.996094 1041.660156 559.523438 1042.0625 540.355469 C 1042.539062 517.738281 1040.578125 493.941406 1038.03125 491.390625 C 1037.644531 491.121094 1033.722656 489.558594 997.054688 487.898438 C 992.558594 487.707031 987.8125 487.515625 982.863281 487.320312 C 955.808594 486.351562 924.285156 485.792969 896.367188 485.792969 Z M 896.367188 485.792969 " fill-opacity="1" fill-rule="nonzero"/><path fill="#113576" d="M 850.878906 573.300781 C 842.285156 539.523438 852.683594 485.753906 852.789062 485.214844 L 854.59375 485.570312 C 854.488281 486.105469 844.167969 539.472656 852.660156 572.847656 Z M 850.878906 573.300781 " fill-opacity="1" fill-rule="nonzero"/><path fill="#8295ae" d="M 886.929688 485.394531 C 884.003906 489.414062 882.796875 573.582031 886.929688 573.722656 C 891.066406 573.867188 897.472656 573.726562 897.472656 573.726562 C 899.09375 571.175781 900.695312 485.914062 898.644531 485.394531 C 896.59375 484.871094 886.929688 485.394531 886.929688 485.394531 Z M 886.929688 485.394531 " fill-opacity="1" fill-rule="nonzero"/><path fill="#113576" d="M 891.542969 574.703125 C 889.957031 574.703125 888.300781 574.6875 886.898438 574.640625 C 886.347656 574.621094 885.898438 574.265625 885.570312 573.589844 C 882.210938 566.699219 882.75 489.570312 886.1875 484.851562 C 886.351562 484.625 886.605469 484.488281 886.882812 484.472656 C 886.925781 484.472656 891.242188 484.242188 894.695312 484.242188 C 896.816406 484.242188 898.183594 484.324219 898.871094 484.5 C 899.109375 484.5625 899.441406 484.742188 899.648438 485.25 C 901.429688 489.742188 900.152344 571.226562 898.246094 574.214844 C 898.082031 574.476562 897.800781 574.632812 897.492188 574.640625 C 897.492188 574.644531 894.660156 574.703125 891.542969 574.703125 Z M 887.222656 572.8125 C 890.535156 572.917969 895.136719 572.847656 896.8125 572.816406 C 898.289062 565.660156 899.351562 492.265625 898.023438 486.214844 C 897.515625 486.148438 896.546875 486.078125 894.699219 486.078125 C 891.992188 486.078125 888.746094 486.222656 887.5 486.285156 C 884.617188 493.511719 884.332031 567.988281 887.222656 572.8125 Z M 887.222656 572.8125 " fill-opacity="1" fill-rule="nonzero"/><path fill="#8295ae" d="M 998.585938 573.359375 C 997.621094 573.375 996.621094 573.410156 995.617188 573.429688 C 992.316406 573.515625 988.890625 573.585938 985.339844 573.65625 C 983.8125 552.238281 983.757812 507.105469 984.917969 486.476562 C 989.152344 486.65625 993.210938 486.828125 997.09375 486.988281 C 998.0625 487.023438 999.011719 487.074219 999.957031 487.128906 C 1000.34375 507.753906 999.554688 551.976562 998.585938 573.359375 Z M 998.585938 573.359375 " fill-opacity="1" fill-rule="nonzero"/><path fill="#113576" d="M 985.339844 574.578125 C 984.859375 574.578125 984.457031 574.207031 984.421875 573.722656 C 982.847656 551.621094 982.871094 506.496094 984.003906 486.425781 C 984.027344 485.925781 984.460938 485.53125 984.957031 485.5625 L 997.132812 486.070312 C 998.101562 486.105469 999.054688 486.160156 1000.011719 486.214844 C 1000.488281 486.238281 1000.871094 486.632812 1000.878906 487.113281 C 1001.269531 508.019531 1000.4375 552.78125 999.507812 573.402344 C 999.484375 573.886719 999.089844 574.269531 998.605469 574.277344 L 995.632812 574.347656 C 992.339844 574.4375 988.910156 574.503906 985.359375 574.578125 C 985.351562 574.578125 985.34375 574.578125 985.339844 574.578125 Z M 985.785156 487.433594 C 984.726562 507.605469 984.707031 550.722656 986.195312 572.71875 C 989.433594 572.65625 992.566406 572.589844 995.59375 572.507812 L 997.707031 572.460938 C 998.609375 551.789062 999.402344 508.921875 999.054688 488 C 998.394531 487.964844 997.730469 487.929688 997.0625 487.90625 Z M 985.785156 487.433594 " fill-opacity="1" fill-rule="nonzero"/><path fill="#e5936a" d="M 1037.4375 720.308594 C 1028.929688 728.132812 812.347656 725.699219 804.820312 720.308594 C 797.292969 714.917969 792.449219 588.234375 804.820312 575 C 817.191406 561.765625 1030.820312 568.382812 1037.4375 575 C 1044.054688 581.617188 1045.945312 712.484375 1037.4375 720.308594 Z M 1037.4375 720.308594 " fill-opacity="1" fill-rule="nonzero"/><path fill="#113576" d="M 935.851562 726.222656 C 885.703125 726.222656 809.207031 724.582031 804.285156 721.054688 C 803.5 720.496094 801.117188 718.789062 798.871094 696.097656 C 795.203125 659.09375 794.425781 584.773438 804.148438 574.371094 C 810.601562 567.472656 865.429688 566.441406 897.539062 566.441406 C 957.613281 566.441406 1033.707031 569.96875 1038.085938 574.351562 C 1042.828125 579.089844 1044.652344 633.902344 1043.875 671.113281 C 1043.4375 691.824219 1042.078125 717.289062 1038.058594 720.984375 C 1032.917969 725.714844 964.867188 726.222656 935.851562 726.222656 Z M 897.539062 568.28125 C 844.203125 568.28125 809.792969 571.023438 805.492188 575.628906 C 796.871094 584.847656 796.640625 654.957031 800.699219 695.917969 C 802.761719 716.722656 804.9375 719.265625 805.355469 719.5625 C 808.882812 722.089844 871.082031 724.386719 935.851562 724.386719 C 994.042969 724.386719 1033.675781 722.519531 1036.816406 719.632812 C 1039.5 717.167969 1041.449219 699.011719 1042.039062 671.074219 C 1042.953125 627.324219 1040.304688 579.164062 1036.789062 575.652344 C 1033.519531 572.433594 965.40625 568.28125 897.539062 568.28125 Z M 897.539062 568.28125 " fill-opacity="1" fill-rule="nonzero"/><path fill="#113576" d="M 867.183594 724.621094 C 857.191406 658.855469 867.078125 568.476562 867.179688 567.570312 L 869.003906 567.777344 C 868.90625 568.679688 859.046875 658.824219 869 724.34375 Z M 867.183594 724.621094 " fill-opacity="1" fill-rule="nonzero"/><path fill="#8295ae" d="M 939.089844 654.53125 L 939.089844 567.859375 L 971.328125 568.882812 L 968.957031 654.53125 L 962.515625 649.847656 L 959 654.53125 L 952.558594 649.261719 L 948.460938 654.53125 L 944.238281 649.847656 Z M 939.089844 654.53125 " fill-opacity="1" fill-rule="nonzero"/><path fill="#113576" d="M 939.089844 655.453125 C 938.964844 655.453125 938.839844 655.425781 938.71875 655.371094 C 938.386719 655.222656 938.171875 654.898438 938.171875 654.53125 L 938.171875 567.859375 C 938.171875 567.609375 938.269531 567.371094 938.449219 567.199219 C 938.628906 567.027344 938.875 566.921875 939.117188 566.941406 L 971.359375 567.964844 C 971.863281 567.980469 972.261719 568.402344 972.246094 568.90625 L 969.875 654.558594 C 969.863281 654.902344 969.667969 655.210938 969.363281 655.359375 C 969.054688 655.511719 968.691406 655.476562 968.414062 655.277344 L 962.707031 651.125 L 959.734375 655.085938 C 959.585938 655.285156 959.359375 655.414062 959.109375 655.445312 C 958.859375 655.476562 958.613281 655.402344 958.417969 655.246094 L 952.703125 650.570312 L 949.183594 655.097656 C 949.015625 655.3125 948.761719 655.445312 948.492188 655.453125 C 948.175781 655.449219 947.957031 655.355469 947.773438 655.152344 L 944.167969 651.148438 L 939.707031 655.214844 C 939.535156 655.367188 939.3125 655.453125 939.089844 655.453125 Z M 952.558594 648.339844 C 952.769531 648.339844 952.976562 648.414062 953.140625 648.550781 L 958.84375 653.214844 L 961.78125 649.292969 C 962.082031 648.890625 962.652344 648.808594 963.054688 649.101562 L 968.085938 652.761719 L 970.386719 569.769531 L 940.007812 568.804688 L 940.007812 652.449219 L 943.617188 649.164062 C 943.800781 649 944.03125 648.886719 944.28125 648.929688 C 944.527344 648.9375 944.757812 649.050781 944.921875 649.230469 L 948.410156 653.101562 L 951.835938 648.695312 C 951.988281 648.5 952.210938 648.375 952.457031 648.347656 C 952.492188 648.34375 952.527344 648.339844 952.558594 648.339844 Z M 952.558594 648.339844 " fill-opacity="1" fill-rule="nonzero"/><path fill="#113576" d="M 867.238281 724.820312 C 850.105469 681.941406 829.847656 638.414062 825.585938 639.6875 C 820.4375 641.273438 810.671875 690.070312 805.722656 720.453125 L 803.914062 720.160156 C 806.078125 706.847656 817.28125 640.320312 825.042969 637.933594 C 826.699219 637.417969 830.574219 636.214844 850.394531 680.390625 C 860.035156 701.871094 868.855469 723.921875 868.941406 724.140625 Z M 867.238281 724.820312 " fill-opacity="1" fill-rule="nonzero"/><path fill="#113576" d="M 820.167969 646.472656 C 810.628906 626.3125 804.179688 577.199219 803.90625 575.117188 L 805.730469 574.882812 C 805.796875 575.390625 812.414062 625.789062 821.832031 645.6875 Z M 820.167969 646.472656 " fill-opacity="1" fill-rule="nonzero"/><path fill="#113576" d="M 832.964844 647.046875 L 831.8125 645.617188 C 840.835938 638.335938 866.964844 568.0625 867.230469 567.351562 L 868.953125 567.992188 C 867.871094 570.90625 842.378906 639.453125 832.964844 647.046875 Z M 832.964844 647.046875 " fill-opacity="1" fill-rule="nonzero"/><path fill="#8295ae" d="M 834.636719 663.953125 C 828.683594 656.019531 814.140625 645.109375 806.867188 637.835938 C 810.171875 639.160156 813.476562 639.160156 817.445312 639.160156 C 816.121094 636.515625 815.460938 632.546875 813.476562 629.902344 C 815.460938 630.566406 818.765625 629.902344 820.75 631.226562 C 820.089844 629.242188 819.429688 625.273438 818.765625 623.292969 C 825.378906 629.242188 839.265625 642.578125 845.875 649.191406 L 840.585938 650.378906 L 840.917969 658.335938 L 833.972656 655.886719 Z M 834.636719 663.953125 " fill-opacity="1" fill-rule="nonzero"/><path fill="#113576" d="M 834.636719 664.871094 C 834.351562 664.871094 834.078125 664.742188 833.898438 664.503906 C 830.226562 659.609375 822.996094 653.359375 816.617188 647.847656 C 812.675781 644.441406 808.953125 641.222656 806.214844 638.488281 C 805.90625 638.179688 805.859375 637.695312 806.097656 637.332031 C 806.339844 636.96875 806.804688 636.824219 807.207031 636.984375 C 809.96875 638.089844 812.722656 638.222656 816.039062 638.238281 C 815.753906 637.519531 815.496094 636.753906 815.226562 635.960938 C 814.5625 633.996094 813.875 631.960938 812.742188 630.453125 C 812.5 630.132812 812.496094 629.691406 812.730469 629.367188 C 812.96875 629.039062 813.386719 628.90625 813.765625 629.03125 C 814.449219 629.257812 815.398438 629.308594 816.402344 629.355469 C 817.359375 629.40625 818.398438 629.457031 819.371094 629.683594 C 819.199219 628.976562 819.027344 628.210938 818.859375 627.457031 C 818.539062 626.015625 818.210938 624.527344 817.894531 623.582031 C 817.765625 623.183594 817.914062 622.75 818.265625 622.523438 C 818.613281 622.296875 819.074219 622.328125 819.382812 622.609375 C 825.914062 628.488281 839.765625 641.78125 846.523438 648.539062 C 846.761719 648.777344 846.851562 649.125 846.757812 649.445312 C 846.664062 649.769531 846.402344 650.015625 846.078125 650.085938 L 841.535156 651.105469 L 841.835938 658.296875 C 841.847656 658.597656 841.707031 658.890625 841.460938 659.074219 C 841.21875 659.253906 840.898438 659.296875 840.613281 659.199219 L 835.003906 657.222656 L 835.53125 663.625 C 835.570312 663.726562 835.589844 663.835938 835.589844 663.957031 C 835.589844 664.46875 835.175781 664.9375 834.65625 664.875 C 834.648438 664.871094 834.644531 664.871094 834.636719 664.871094 Z M 810.136719 639.6875 C 812.402344 641.777344 815.054688 644.070312 817.820312 646.453125 C 823.578125 651.433594 829.507812 656.554688 833.476562 661.085938 L 833.058594 655.957031 C 833.03125 655.648438 833.167969 655.34375 833.410156 655.15625 C 833.660156 654.964844 833.984375 654.917969 834.277344 655.015625 L 839.941406 657.015625 L 839.664062 650.414062 C 839.648438 649.972656 839.949219 649.578125 840.382812 649.480469 L 844.039062 648.660156 C 837.757812 642.425781 827.050781 632.144531 820.429688 626.050781 C 820.503906 626.382812 820.582031 626.722656 820.652344 627.058594 C 820.972656 628.5 821.304688 629.988281 821.621094 630.933594 C 821.746094 631.308594 821.621094 631.71875 821.308594 631.957031 C 820.992188 632.195312 820.566406 632.207031 820.238281 631.988281 C 819.269531 631.339844 817.761719 631.265625 816.308594 631.191406 C 815.964844 631.175781 815.632812 631.160156 815.304688 631.136719 C 815.984375 632.472656 816.480469 633.9375 816.964844 635.371094 C 817.382812 636.613281 817.785156 637.789062 818.261719 638.75 C 818.40625 639.035156 818.390625 639.371094 818.222656 639.640625 C 818.054688 639.914062 817.757812 640.078125 817.441406 640.078125 C 814.828125 640.078125 812.441406 640.078125 810.136719 639.6875 Z M 810.136719 639.6875 " fill-opacity="1" fill-rule="nonzero"/><path fill="#7bb984" d="M 1096.546875 749.410156 C 1086.347656 754.546875 765.992188 752.375 757.753906 749.410156 C 749.515625 746.449219 747.824219 721.226562 760.230469 717.199219 C 772.636719 713.167969 1087.234375 714.929688 1099.023438 717.199219 C 1110.816406 719.464844 1106.746094 744.277344 1096.546875 749.410156 Z M 1096.546875 749.410156 " fill-opacity="1" fill-rule="nonzero"/><path fill="#113576" d="M 957.820312 753.417969 C 869.199219 753.417969 762.363281 752.046875 757.441406 750.277344 C 752.40625 748.46875 750.226562 740.382812 750.332031 733.636719 C 750.4375 726.742188 753.019531 718.570312 759.945312 716.324219 C 766.511719 714.191406 848.980469 713.871094 897.558594 713.871094 C 984.980469 713.871094 1092.101562 714.929688 1099.199219 716.296875 C 1103.414062 717.105469 1106.160156 720.574219 1106.921875 726.054688 C 1108.101562 734.507812 1104.089844 746.644531 1096.960938 750.230469 C 1091.453125 753.003906 1007.421875 753.417969 957.820312 753.417969 Z M 897.558594 715.710938 C 816.296875 715.710938 765.0625 716.59375 760.511719 718.070312 C 754.507812 720.023438 752.265625 727.40625 752.167969 733.667969 C 752.058594 740.902344 754.589844 747.300781 758.0625 748.546875 C 762.324219 750.078125 861.269531 751.582031 957.820312 751.582031 C 1040.710938 751.582031 1092.414062 750.464844 1096.136719 748.59375 C 1102.488281 745.390625 1106.171875 733.984375 1105.101562 726.304688 C 1104.726562 723.621094 1103.417969 718.976562 1098.851562 718.101562 C 1092.578125 716.894531 992.875 715.710938 897.558594 715.710938 Z M 897.558594 715.710938 " fill-opacity="1" fill-rule="nonzero"/><path fill="#113576" d="M 1009.636719 592.9375 C 1009.46875 592.9375 1009.296875 592.902344 1009.132812 592.816406 C 1008.578125 592.539062 1008.355469 591.863281 1008.632812 591.308594 C 1009.296875 589.988281 1012.804688 583.394531 1016.507812 583.347656 C 1017.960938 583.339844 1019.554688 584.148438 1021.394531 585.851562 C 1021.851562 586.277344 1021.875 586.984375 1021.457031 587.441406 C 1021.03125 587.898438 1020.320312 587.921875 1019.867188 587.5 C 1018.0625 585.828125 1017.003906 585.578125 1016.539062 585.59375 C 1014.816406 585.617188 1012.003906 589.621094 1010.644531 592.320312 C 1010.445312 592.710938 1010.050781 592.9375 1009.636719 592.9375 Z M 1009.636719 592.9375 " fill-opacity="1" fill-rule="nonzero"/><path fill="#113576" d="M 1017.230469 588.34375 C 1017.1875 589.003906 1023.351562 590.847656 1023.980469 590.535156 C 1024.609375 590.222656 1023.230469 583.691406 1022.503906 583.59375 C 1021.78125 583.496094 1017.273438 587.679688 1017.230469 588.34375 Z M 1017.230469 588.34375 " fill-opacity="1" fill-rule="nonzero"/><path fill="#113576" d="M 1024.269531 606.222656 C 1023.699219 606.222656 1023.085938 606.203125 1022.433594 606.167969 C 1021.8125 606.132812 1021.339844 605.601562 1021.375 604.980469 C 1021.410156 604.359375 1021.953125 603.902344 1022.5625 603.921875 C 1026.195312 604.128906 1027.601562 603.671875 1028.113281 603.382812 C 1028.140625 603.367188 1028.199219 603.332031 1028.25 603.140625 C 1028.695312 601.441406 1026.398438 596.554688 1024.628906 593.625 C 1024.304688 593.09375 1024.476562 592.402344 1025.007812 592.082031 C 1025.535156 591.757812 1026.230469 591.929688 1026.550781 592.460938 C 1027.347656 593.777344 1031.269531 600.492188 1030.425781 603.710938 C 1030.234375 604.4375 1029.816406 605 1029.214844 605.339844 C 1028.167969 605.929688 1026.542969 606.222656 1024.269531 606.222656 Z M 1024.269531 606.222656 " fill-opacity="1" fill-rule="nonzero"/><path fill="#113576" d="M 1023.890625 601.566406 C 1023.515625 600.835938 1017.570312 603.605469 1017.417969 604.472656 C 1017.269531 605.34375 1022.398438 608.898438 1023.171875 608.625 C 1023.949219 608.355469 1024.269531 602.292969 1023.890625 601.566406 Z M 1023.890625 601.566406 " fill-opacity="1" fill-rule="nonzero"/><path fill="#113576" d="M 1008.9375 606.773438 C 1006.40625 606.773438 1003.859375 606.332031 1003.039062 604.710938 C 1002.34375 603.34375 1002.769531 601.300781 1004.382812 598.285156 C 1004.675781 597.738281 1005.355469 597.53125 1005.90625 597.828125 C 1006.453125 598.117188 1006.660156 598.800781 1006.363281 599.347656 C 1004.601562 602.636719 1004.992188 603.597656 1005.039062 603.695312 C 1005.507812 604.617188 1009.742188 604.785156 1013.925781 604.050781 C 1014.539062 603.941406 1015.121094 604.351562 1015.226562 604.964844 C 1015.335938 605.574219 1014.925781 606.15625 1014.316406 606.265625 C 1013.273438 606.449219 1011.109375 606.773438 1008.9375 606.773438 Z M 1008.9375 606.773438 " fill-opacity="1" fill-rule="nonzero"/><path fill="#113576" d="M 1007.917969 601.597656 C 1008.605469 601.28125 1008.925781 595.078125 1008.105469 594.503906 C 1007.285156 593.925781 1001.941406 597.164062 1001.867188 597.886719 C 1001.792969 598.609375 1007.230469 601.910156 1007.917969 601.597656 Z M 1007.917969 601.597656 " fill-opacity="1" fill-rule="nonzero"/><path fill="#113576" d="M 1020.058594 525.089844 C 1016.078125 525.089844 1006.679688 524.949219 1005.449219 523.628906 C 1004.082031 522.164062 1003.632812 511.050781 1003.925781 504.042969 C 1004.128906 499.117188 1004.652344 496.238281 1005.480469 495.488281 C 1006.734375 494.351562 1013.328125 494.109375 1018.636719 494.109375 C 1024.828125 494.109375 1034.609375 494.535156 1035.945312 495.445312 C 1036.777344 496.015625 1037.316406 499.242188 1037.542969 505.039062 C 1037.714844 509.410156 1037.796875 522.214844 1035.976562 523.675781 C 1034.269531 525.050781 1021.507812 525.089844 1020.058594 525.089844 Z M 1018.636719 495.105469 C 1010.328125 495.105469 1006.714844 495.707031 1006.148438 496.226562 C 1005.992188 496.367188 1005.195312 497.414062 1004.917969 504.085938 C 1004.5625 512.566406 1005.339844 522.058594 1006.175781 522.953125 C 1006.699219 523.511719 1011.746094 524.101562 1020.058594 524.101562 C 1028.703125 524.101562 1034.625 523.492188 1035.355469 522.90625 C 1035.71875 522.613281 1036.453125 520.0625 1036.613281 512.511719 C 1036.796875 503.992188 1036.113281 496.90625 1035.378906 496.261719 C 1034.597656 495.730469 1027.109375 495.105469 1018.636719 495.105469 Z M 1018.636719 495.105469 " fill-opacity="1" fill-rule="nonzero"/><path fill="#113576" d="M 1020.847656 521.597656 C 1014.914062 521.597656 1008.9375 521.089844 1007.113281 520.066406 C 1006.636719 519.796875 1006.46875 519.191406 1006.738281 518.714844 C 1007.003906 518.234375 1007.609375 518.066406 1008.085938 518.335938 C 1011.371094 520.183594 1031.339844 519.773438 1033.300781 518.390625 C 1033.75 518.074219 1034.367188 518.179688 1034.683594 518.628906 C 1035 519.078125 1034.890625 519.695312 1034.445312 520.011719 C 1032.949219 521.066406 1026.917969 521.597656 1020.847656 521.597656 Z M 1020.847656 521.597656 " fill-opacity="1" fill-rule="nonzero"/><path fill="#113576" d="M 1019.007812 506.417969 C 1019.386719 505.875 1015.359375 497.675781 1014.015625 497.773438 C 1012.671875 497.871094 1008.777344 506.003906 1009.023438 506.417969 C 1009.265625 506.835938 1011.855469 506.050781 1012.289062 506.417969 C 1012.722656 506.789062 1012.289062 516.570312 1012.289062 516.570312 C 1012.289062 517.523438 1015.742188 517.523438 1015.742188 516.570312 C 1015.742188 516.570312 1015.453125 506.914062 1015.742188 506.417969 C 1016.027344 505.925781 1018.628906 506.960938 1019.007812 506.417969 Z M 1019.007812 506.417969 " fill-opacity="1" fill-rule="nonzero"/><path fill="#113576" d="M 1032.433594 506.417969 C 1032.859375 505.972656 1028.636719 497.917969 1027.441406 497.773438 C 1026.242188 497.628906 1022.203125 505.90625 1022.445312 506.417969 C 1022.691406 506.933594 1025.234375 506.003906 1025.714844 506.417969 C 1026.191406 506.835938 1025.195312 516.042969 1025.714844 516.570312 C 1026.230469 517.097656 1028.734375 517.144531 1029.164062 516.570312 C 1029.597656 515.992188 1028.832031 506.863281 1029.164062 506.417969 C 1029.503906 505.972656 1032.007812 506.863281 1032.433594 506.417969 Z M 1032.433594 506.417969 " fill-opacity="1" fill-rule="nonzero"/><path fill="#113576" d="M 1021.082031 561.046875 C 1017.097656 561.046875 1007.703125 560.90625 1006.472656 559.585938 C 1005.101562 558.117188 1004.652344 547 1004.945312 539.992188 C 1005.152344 535.070312 1005.675781 532.195312 1006.5 531.445312 C 1007.757812 530.308594 1014.347656 530.070312 1019.65625 530.070312 C 1025.851562 530.070312 1035.632812 530.492188 1036.96875 531.402344 C 1037.800781 531.972656 1038.335938 535.199219 1038.566406 540.996094 C 1038.738281 545.367188 1038.820312 558.171875 1037 559.632812 C 1035.289062 561.007812 1022.53125 561.046875 1021.082031 561.046875 Z M 1019.65625 531.058594 C 1011.347656 531.058594 1007.734375 531.664062 1007.167969 532.179688 C 1007.011719 532.324219 1006.214844 533.371094 1005.9375 540.035156 C 1005.585938 548.515625 1006.359375 558.011719 1007.199219 558.910156 C 1007.722656 559.464844 1012.765625 560.054688 1021.082031 560.054688 C 1029.726562 560.054688 1035.648438 559.449219 1036.378906 558.859375 C 1036.742188 558.566406 1037.476562 556.019531 1037.636719 548.464844 C 1037.820312 539.945312 1037.136719 532.863281 1036.402344 532.21875 C 1035.621094 531.683594 1028.132812 531.058594 1019.65625 531.058594 Z M 1019.65625 531.058594 " fill-opacity="1" fill-rule="nonzero"/><path fill="#113576" d="M 1027.933594 535.660156 C 1028.695312 536.773438 1028.492188 544.617188 1026.046875 546.355469 C 1023.769531 547.972656 1022.851562 546.78125 1022.773438 547.851562 C 1022.691406 549.199219 1022.21875 555.417969 1022.605469 555.894531 C 1022.992188 556.371094 1027.125 555.882812 1026.890625 556.789062 C 1026.664062 557.652344 1024.503906 557.605469 1023.628906 557.652344 C 1022.789062 557.695312 1021.007812 557.695312 1020.167969 557.652344 C 1019.292969 557.605469 1017.132812 557.652344 1016.90625 556.789062 C 1016.671875 555.882812 1020.609375 555.953125 1020.886719 555.667969 C 1021.167969 555.386719 1021.105469 549.199219 1021.023438 547.847656 C 1020.945312 546.777344 1020.027344 547.96875 1017.75 546.355469 C 1015.304688 544.617188 1014.796875 535.863281 1015.453125 535.148438 C 1016.109375 534.4375 1027.175781 534.550781 1027.933594 535.660156 Z M 1027.933594 535.660156 " fill-opacity="1" fill-rule="nonzero"/><path fill="#e5936a" d="M 561.652344 789.648438 C 556.914062 764.304688 539.769531 697.519531 544.542969 670.058594 C 549.3125 642.601562 586.695312 629.820312 595.289062 653.15625 C 603.882812 676.496094 600.84375 722.074219 603.59375 744.964844 C 606.347656 767.859375 565.761719 787.875 561.652344 789.648438 Z M 561.652344 789.648438 " fill-opacity="1" fill-rule="nonzero"/><path fill="#113576" d="M 561.65625 790.566406 C 561.503906 790.566406 561.355469 790.53125 561.222656 790.457031 C 560.976562 790.328125 560.800781 790.089844 560.75 789.816406 C 559.777344 784.617188 558.285156 777.675781 556.554688 769.640625 C 549.890625 738.679688 539.816406 691.890625 543.636719 669.902344 C 546.835938 651.480469 563.734375 640.074219 577.554688 640.074219 C 586.386719 640.074219 593.164062 644.730469 596.152344 652.839844 C 601.855469 668.324219 602.476562 693.238281 603.027344 715.222656 C 603.304688 726.449219 603.570312 737.054688 604.507812 744.855469 C 607.492188 769.699219 562.476562 790.292969 562.019531 790.492188 C 561.902344 790.542969 561.777344 790.566406 561.65625 790.566406 Z M 577.554688 641.914062 C 564.425781 641.914062 548.390625 653.285156 545.449219 670.21875 C 541.6875 691.851562 551.714844 738.433594 558.351562 769.253906 C 559.957031 776.714844 561.359375 783.230469 562.335938 788.304688 C 569.007812 785.035156 605.222656 766.203125 602.683594 745.074219 C 601.738281 737.1875 601.472656 726.539062 601.191406 715.269531 C 600.644531 693.425781 600.027344 668.675781 594.429688 653.472656 C 591.683594 646.019531 585.691406 641.914062 577.554688 641.914062 Z M 577.554688 641.914062 " fill-opacity="1" fill-rule="nonzero"/><path fill="#7bb984" d="M 652.558594 748.824219 C 643.414062 748.832031 608.082031 758.214844 600.492188 749.519531 C 597.390625 751.785156 594.058594 753.734375 590.375 755.171875 C 579.851562 759.265625 566.976562 759.90625 555.808594 761.78125 C 558.492188 780.691406 562.953125 799.011719 564.78125 801.8125 C 569.058594 808.351562 678.589844 770.375 675.078125 760.3125 C 671.570312 750.246094 661.34375 749.105469 652.558594 748.824219 Z M 652.558594 748.824219 " fill-opacity="1" fill-rule="nonzero"/><path fill="#113576" d="M 567.632812 803.480469 C 567.628906 803.480469 567.632812 803.480469 567.628906 803.480469 C 565.683594 803.480469 564.535156 803.109375 564.015625 802.3125 C 562.058594 799.324219 557.558594 780.636719 554.898438 761.910156 C 554.828125 761.417969 555.164062 760.957031 555.652344 760.878906 C 558.789062 760.351562 561.980469 759.929688 565.355469 759.488281 C 573.8125 758.375 582.558594 757.226562 590.039062 754.316406 C 593.394531 753.007812 596.640625 751.195312 599.949219 748.777344 C 600.335938 748.492188 600.871094 748.554688 601.183594 748.914062 C 603.140625 751.15625 607.5625 752.292969 614.332031 752.292969 C 622.296875 752.292969 632.097656 750.738281 639.972656 749.492188 C 645.328125 748.640625 649.957031 747.90625 652.558594 747.90625 C 662.640625 748.226562 672.429688 749.917969 675.949219 760.011719 C 676.257812 760.902344 676.03125 761.894531 675.277344 762.960938 C 667.257812 774.246094 585.375 803.480469 567.632812 803.480469 Z M 565.550781 801.308594 C 565.554688 801.308594 565.878906 801.644531 567.628906 801.644531 C 584.527344 801.648438 666.214844 772.542969 673.777344 761.894531 C 673.996094 761.585938 674.347656 761.003906 674.210938 760.617188 C 670.898438 751.117188 661.285156 750.023438 652.527344 749.742188 C 650.105469 749.746094 645.539062 750.46875 640.257812 751.304688 C 632.324219 752.5625 622.445312 754.128906 614.332031 754.128906 C 607.484375 754.128906 602.90625 753.015625 600.390625 750.722656 C 597.171875 753.007812 593.996094 754.746094 590.707031 756.027344 C 583.019531 759.015625 574.164062 760.183594 565.597656 761.308594 C 562.554688 761.707031 559.667969 762.085938 556.84375 762.542969 C 559.605469 781.570312 563.929688 798.828125 565.550781 801.308594 Z M 565.550781 801.308594 " fill-opacity="1" fill-rule="nonzero"/><path fill="#8295ae" d="M 652.558594 748.824219 C 646.0625 748.828125 626.363281 753.558594 612.765625 753.1875 C 611.960938 750.964844 611.640625 748.355469 611.15625 746.195312 C 610.4375 743 610.777344 735.957031 606.179688 735.835938 C 600.6875 735.691406 598.261719 746.628906 596.886719 750.464844 C 593.167969 760.839844 588.605469 770.394531 578.394531 776.101562 C 577.085938 776.832031 566.335938 784.207031 559.867188 784.464844 C 559.867188 784.464844 563.695312 800.140625 564.785156 801.8125 C 569.058594 808.351562 678.589844 770.375 675.082031 760.3125 C 671.570312 750.246094 661.34375 749.105469 652.558594 748.824219 Z M 652.558594 748.824219 " fill-opacity="1" fill-rule="nonzero"/><path fill="#113576" d="M 567.632812 803.480469 C 567.628906 803.480469 567.632812 803.480469 567.628906 803.480469 C 565.683594 803.480469 564.535156 803.109375 564.015625 802.3125 C 562.894531 800.601562 559.617188 787.324219 558.972656 784.683594 C 558.90625 784.414062 558.964844 784.132812 559.132812 783.914062 C 559.296875 783.691406 559.554688 783.558594 559.828125 783.546875 C 565.175781 783.335938 573.992188 777.78125 576.886719 775.953125 C 577.398438 775.632812 577.761719 775.402344 577.945312 775.300781 C 587.351562 770.042969 591.976562 761.445312 596.019531 750.160156 C 596.226562 749.589844 596.453125 748.855469 596.714844 748.027344 C 598.246094 743.121094 600.808594 734.917969 606.074219 734.917969 C 610.628906 735.035156 611.273438 740.226562 611.703125 743.667969 C 611.8125 744.539062 611.910156 745.347656 612.054688 745.996094 C 612.207031 746.671875 612.34375 747.394531 612.484375 748.132812 C 612.75 749.53125 613.019531 750.972656 613.433594 752.285156 C 621.53125 752.398438 631.804688 750.789062 639.980469 749.492188 C 645.335938 748.644531 649.960938 747.910156 652.558594 747.910156 C 662.640625 748.230469 672.429688 749.921875 675.949219 760.015625 C 676.257812 760.90625 676.035156 761.898438 675.277344 762.964844 C 667.257812 774.246094 585.375 803.480469 567.632812 803.480469 Z M 565.550781 801.308594 C 565.554688 801.308594 565.878906 801.644531 567.628906 801.644531 C 584.527344 801.648438 666.214844 772.542969 673.777344 761.894531 C 673.996094 761.585938 674.347656 761.003906 674.210938 760.617188 C 670.898438 751.117188 661.285156 750.023438 652.527344 749.742188 C 650.105469 749.746094 645.542969 750.46875 640.265625 751.304688 C 631.800781 752.644531 621.117188 754.335938 612.742188 754.105469 C 612.363281 754.09375 612.03125 753.855469 611.902344 753.5 C 611.320312 751.894531 610.992188 750.15625 610.671875 748.472656 C 610.539062 747.753906 610.40625 747.054688 610.257812 746.394531 C 610.097656 745.683594 609.988281 744.8125 609.875 743.890625 C 609.378906 739.886719 608.789062 736.824219 606.152344 736.753906 C 602.15625 736.753906 599.753906 744.441406 598.464844 748.570312 C 598.195312 749.429688 597.957031 750.1875 597.746094 750.777344 C 594.375 760.191406 589.851562 770.746094 578.839844 776.90625 C 578.667969 777 578.332031 777.210938 577.863281 777.507812 C 574.75 779.46875 566.800781 784.480469 561.007812 785.28125 C 562.507812 791.328125 564.863281 800.25 565.550781 801.308594 Z M 565.550781 801.308594 " fill-opacity="1" fill-rule="nonzero"/><path fill="#113576" d="M 567.492188 775.304688 C 567.070312 775.304688 566.691406 775.011719 566.597656 774.582031 L 563.753906 761.765625 C 563.644531 761.269531 563.957031 760.777344 564.453125 760.667969 C 564.949219 760.558594 565.4375 760.871094 565.546875 761.363281 L 568.390625 774.183594 C 568.5 774.679688 568.1875 775.171875 567.691406 775.28125 C 567.625 775.296875 567.558594 775.304688 567.492188 775.304688 Z M 567.492188 775.304688 " fill-opacity="1" fill-rule="nonzero"/><path fill="#113576" d="M 581.058594 770.164062 C 580.667969 770.164062 580.304688 769.914062 580.179688 769.519531 L 576.941406 759.261719 C 576.789062 758.777344 577.054688 758.261719 577.542969 758.109375 C 578.023438 757.957031 578.542969 758.222656 578.695312 758.707031 L 581.933594 768.96875 C 582.085938 769.449219 581.820312 769.96875 581.332031 770.121094 C 581.242188 770.148438 581.148438 770.164062 581.058594 770.164062 Z M 581.058594 770.164062 " fill-opacity="1" fill-rule="nonzero"/><path fill="#113576" d="M 586.96875 763.195312 C 586.605469 763.195312 586.261719 762.980469 586.117188 762.625 L 584.054688 757.605469 C 583.859375 757.132812 584.085938 756.597656 584.554688 756.402344 C 585.023438 756.210938 585.558594 756.433594 585.753906 756.90625 L 587.816406 761.925781 C 588.007812 762.398438 587.785156 762.933594 587.316406 763.125 C 587.203125 763.175781 587.085938 763.195312 586.96875 763.195312 Z M 586.96875 763.195312 " fill-opacity="1" fill-rule="nonzero"/><path fill="#4e63ab" d="M 448.34375 462.359375 C 489.308594 482.679688 503.945312 704.226562 522.078125 714.347656 C 540.210938 724.472656 622.203125 721.839844 634.101562 704.960938 C 645.996094 688.082031 560.910156 339.164062 557.234375 323.359375 L 460.597656 321.253906 " fill-opacity="1" fill-rule="nonzero"/><path fill="#113576" d="M 564.742188 721.207031 C 545.835938 721.207031 528.726562 719.113281 521.628906 715.152344 C 514.03125 710.910156 507.53125 674.300781 499.300781 627.953125 C 487.21875 559.898438 472.179688 475.207031 447.9375 463.183594 L 448.753906 461.535156 C 473.828125 473.976562 488.957031 559.175781 501.109375 627.632812 C 508.609375 669.855469 515.691406 709.730469 522.523438 713.546875 C 539.722656 723.152344 621.605469 721.09375 633.347656 704.433594 C 640.160156 694.765625 612.929688 559.453125 558.636719 333.191406 C 557.605469 328.886719 556.875 325.84375 556.5 324.265625 L 460.578125 322.175781 L 460.617188 320.335938 L 557.964844 322.460938 L 558.128906 323.15625 C 558.417969 324.398438 559.210938 327.710938 560.425781 332.761719 C 599.484375 495.554688 644.105469 692.359375 634.851562 705.492188 C 627.277344 716.238281 593.875 721.207031 564.742188 721.207031 Z M 564.742188 721.207031 " fill-opacity="1" fill-rule="nonzero"/><path fill="#e5936a" d="M 342.832031 771.039062 C 350.777344 746.511719 367.625 679.652344 384.9375 657.808594 C 402.25 635.964844 441.195312 642.597656 437.59375 667.207031 C 433.992188 691.816406 409.546875 730.402344 401.023438 751.824219 C 392.503906 773.25 347.289062 771.445312 342.832031 771.039062 Z M 342.832031 771.039062 " fill-opacity="1" fill-rule="nonzero"/><path fill="#113576" d="M 349.628906 772.171875 C 346.089844 772.171875 343.636719 772.035156 342.746094 771.953125 C 342.46875 771.929688 342.21875 771.777344 342.0625 771.546875 C 341.910156 771.3125 341.871094 771.019531 341.957031 770.753906 C 343.585938 765.71875 345.59375 758.90625 347.910156 751.015625 C 356.851562 720.636719 370.355469 674.726562 384.214844 657.238281 C 390.957031 648.734375 401.753906 643.65625 413.105469 643.65625 C 421.988281 643.65625 429.730469 646.71875 434.34375 652.054688 C 437.921875 656.195312 439.359375 661.480469 438.5 667.339844 C 436.113281 683.664062 424.753906 705.847656 414.734375 725.417969 C 409.617188 735.417969 404.78125 744.859375 401.878906 752.164062 C 394.695312 770.222656 362.945312 772.171875 349.628906 772.171875 Z M 344.0625 770.203125 C 345.273438 770.269531 347.195312 770.332031 349.628906 770.332031 C 362.570312 770.332031 393.402344 768.496094 400.171875 751.484375 C 403.105469 744.101562 407.960938 734.621094 413.101562 724.582031 C 423.054688 705.136719 434.339844 683.097656 436.683594 667.074219 C 437.460938 661.757812 436.171875 656.980469 432.953125 653.253906 C 428.75 648.398438 421.332031 645.496094 413.101562 645.496094 C 402.308594 645.496094 392.050781 650.3125 385.65625 658.378906 C 372.015625 675.585938 358.570312 721.292969 349.671875 751.535156 C 347.519531 758.867188 345.632812 765.273438 344.0625 770.203125 Z M 344.0625 770.203125 " fill-opacity="1" fill-rule="nonzero"/><path fill="#7bb984" d="M 442.195312 778.609375 C 434.15625 774.246094 398.636719 765.609375 396.125 754.34375 C 392.316406 754.851562 388.457031 754.972656 384.535156 754.472656 C 373.335938 753.042969 361.71875 747.457031 351.011719 743.765625 C 344.335938 761.660156 339.5 779.886719 339.769531 783.21875 C 340.402344 791.007812 454.765625 809.980469 456.492188 799.460938 C 458.214844 788.945312 449.777344 783.054688 442.195312 778.609375 Z M 442.195312 778.609375 " fill-opacity="1" fill-rule="nonzero"/><path fill="#113576" d="M 442.804688 803.480469 C 442.804688 803.480469 442.804688 803.480469 442.800781 803.480469 C 415.230469 803.480469 339.472656 790.96875 338.851562 783.292969 C 338.5625 779.734375 343.539062 761.164062 350.148438 743.445312 C 350.320312 742.976562 350.832031 742.734375 351.308594 742.898438 C 354.308594 743.933594 357.304688 745.085938 360.480469 746.308594 C 368.445312 749.375 376.683594 752.546875 384.648438 753.5625 C 388.21875 754.019531 391.929688 753.980469 396 753.433594 C 396.464844 753.367188 396.914062 753.679688 397.019531 754.144531 C 398.726562 761.800781 418.039062 768.652344 430.820312 773.183594 C 435.929688 774.996094 440.347656 776.5625 442.628906 777.800781 C 451.332031 782.902344 459.125 789.0625 457.394531 799.609375 C 456.957031 802.289062 452.457031 803.480469 442.804688 803.480469 Z M 351.558594 744.929688 C 344.890625 762.964844 340.445312 780.191406 340.683594 783.148438 C 341.832031 788.160156 410.945312 801.644531 442.800781 801.644531 C 442.804688 801.644531 442.804688 801.644531 442.804688 801.644531 C 454.601562 801.644531 455.519531 799.703125 455.582031 799.3125 C 457.210938 789.386719 449.285156 783.832031 441.730469 779.402344 C 439.597656 778.246094 435.246094 776.703125 430.207031 774.914062 C 416.695312 770.121094 398.351562 763.617188 395.460938 755.355469 C 391.550781 755.824219 387.917969 755.832031 384.417969 755.382812 C 376.230469 754.339844 367.890625 751.128906 359.820312 748.019531 C 356.960938 746.921875 354.246094 745.878906 351.558594 744.929688 Z M 351.558594 744.929688 " fill-opacity="1" fill-rule="nonzero"/><path fill="#8295ae" d="M 442.195312 778.609375 C 436.484375 775.511719 416.917969 770.25 405.152344 763.429688 C 405.507812 761.09375 406.472656 758.644531 407.078125 756.515625 C 407.976562 753.363281 411.636719 747.339844 407.65625 745.039062 C 402.898438 742.289062 395.542969 750.734375 392.5 753.449219 C 384.28125 760.785156 375.707031 767 364.007812 767.136719 C 362.511719 767.152344 349.542969 768.492188 343.738281 765.632812 C 343.738281 765.632812 339.609375 781.230469 339.769531 783.21875 C 340.398438 791.007812 454.765625 809.980469 456.488281 799.460938 C 458.214844 788.945312 449.777344 783.054688 442.195312 778.609375 Z M 442.195312 778.609375 " fill-opacity="1" fill-rule="nonzero"/><path fill="#113576" d="M 442.804688 803.480469 C 442.804688 803.480469 442.804688 803.480469 442.800781 803.480469 C 415.230469 803.480469 339.472656 790.96875 338.851562 783.292969 C 338.6875 781.253906 342.148438 768.027344 342.847656 765.398438 C 342.917969 765.132812 343.101562 764.910156 343.355469 764.796875 C 343.609375 764.683594 343.894531 764.6875 344.140625 764.808594 C 346.480469 765.960938 350.417969 766.546875 355.84375 766.546875 C 358.699219 766.546875 361.234375 766.382812 362.75 766.285156 C 363.351562 766.246094 363.785156 766.21875 363.996094 766.21875 C 374.769531 766.09375 382.9375 760.75 391.886719 752.765625 C 392.339844 752.363281 392.890625 751.832031 393.515625 751.226562 C 396.65625 748.179688 401.402344 743.578125 405.574219 743.578125 C 406.496094 743.578125 407.351562 743.804688 408.117188 744.246094 C 411.949219 746.460938 410.03125 751.332031 408.765625 754.558594 C 408.441406 755.378906 408.140625 756.132812 407.960938 756.769531 C 407.773438 757.441406 407.546875 758.144531 407.3125 758.863281 C 406.878906 760.210938 406.433594 761.601562 406.167969 762.953125 C 413.246094 766.945312 422.96875 770.394531 430.824219 773.183594 C 435.933594 774.996094 440.347656 776.5625 442.632812 777.800781 C 451.335938 782.902344 459.125 789.0625 457.394531 799.609375 C 456.957031 802.289062 452.457031 803.480469 442.804688 803.480469 Z M 344.351562 766.898438 C 342.777344 772.921875 340.582031 781.886719 340.683594 783.148438 C 341.832031 788.160156 410.945312 801.644531 442.800781 801.644531 C 442.804688 801.644531 442.804688 801.644531 442.804688 801.644531 C 454.601562 801.644531 455.519531 799.703125 455.582031 799.3125 C 457.210938 789.386719 449.285156 783.832031 441.730469 779.402344 C 439.597656 778.246094 435.246094 776.703125 430.210938 774.914062 C 422.078125 772.027344 411.957031 768.4375 404.691406 764.222656 C 404.367188 764.035156 404.1875 763.664062 404.246094 763.292969 C 404.5 761.609375 405.042969 759.925781 405.566406 758.296875 C 405.789062 757.597656 406.007812 756.917969 406.195312 756.265625 C 406.394531 755.5625 406.714844 754.746094 407.054688 753.882812 C 408.53125 750.128906 409.476562 747.152344 407.195312 745.835938 C 406.707031 745.554688 406.179688 745.417969 405.574219 745.417969 C 402.148438 745.417969 397.542969 749.878906 394.792969 752.542969 C 394.148438 753.167969 393.582031 753.722656 393.113281 754.140625 C 385.652344 760.796875 376.632812 767.910156 364.019531 768.054688 C 363.824219 768.058594 363.425781 768.085938 362.867188 768.121094 C 361.332031 768.21875 358.757812 768.386719 355.847656 768.386719 C 350.832031 768.382812 346.976562 767.886719 344.351562 766.898438 Z M 344.351562 766.898438 " fill-opacity="1" fill-rule="nonzero"/><path fill="#113576" d="M 355.253906 761.339844 C 355.167969 761.339844 355.085938 761.328125 355 761.304688 C 354.511719 761.164062 354.230469 760.652344 354.371094 760.167969 L 357.996094 747.546875 C 358.140625 747.058594 358.644531 746.773438 359.132812 746.917969 C 359.621094 747.058594 359.902344 747.566406 359.761719 748.054688 L 356.136719 760.671875 C 356.023438 761.078125 355.652344 761.339844 355.253906 761.339844 Z M 355.253906 761.339844 " fill-opacity="1" fill-rule="nonzero"/><path fill="#113576" d="M 369.625 763.304688 C 369.566406 763.304688 369.507812 763.300781 369.449219 763.289062 C 368.953125 763.191406 368.625 762.707031 368.722656 762.210938 L 370.777344 751.648438 C 370.875 751.152344 371.355469 750.828125 371.855469 750.921875 C 372.355469 751.019531 372.679688 751.503906 372.582031 752.003906 L 370.527344 762.5625 C 370.441406 763 370.058594 763.304688 369.625 763.304688 Z M 369.625 763.304688 " fill-opacity="1" fill-rule="nonzero"/><path fill="#113576" d="M 378.148438 760.007812 C 378.113281 760.007812 378.082031 760.003906 378.046875 760 C 377.542969 759.945312 377.179688 759.492188 377.234375 758.988281 L 377.820312 753.59375 C 377.875 753.085938 378.320312 752.71875 378.832031 752.777344 C 379.335938 752.832031 379.699219 753.285156 379.644531 753.789062 L 379.058594 759.1875 C 379.007812 759.65625 378.613281 760.007812 378.148438 760.007812 Z M 378.148438 760.007812 " fill-opacity="1" fill-rule="nonzero"/><path fill="#4e63ab" d="M 520.574219 326.824219 L 438.46875 300.910156 C 407.878906 338.699219 390.492188 377.84375 387.109375 425.96875 C 385.523438 453.066406 329.164062 666.027344 342.441406 681.257812 C 355.714844 696.488281 446.058594 723.089844 463.507812 710.980469 C 469.128906 707.082031 488.027344 631.371094 499.378906 568.203125 C 506.605469 528.007812 517.5625 452.417969 521.097656 434.214844 C 522.277344 428.144531 543.578125 416.609375 545.054688 416.097656 " fill-opacity="1" fill-rule="nonzero"/><path fill="#113576" d="M 447.941406 715.042969 C 415.449219 715.046875 352.480469 694.175781 341.75 681.859375 C 333.382812 672.261719 349.769531 595.285156 370.386719 503.242188 C 378.578125 466.671875 385.65625 435.09375 386.191406 425.914062 C 389.441406 379.675781 405.828125 339.777344 437.757812 300.335938 L 438.148438 299.847656 L 520.851562 325.945312 L 520.296875 327.699219 L 438.792969 301.976562 C 407.371094 340.953125 391.234375 380.390625 388.027344 426.035156 C 387.480469 435.347656 380.730469 465.488281 372.183594 503.644531 C 356.363281 574.261719 334.695312 670.972656 343.132812 680.652344 C 356.902344 696.449219 446.667969 721.554688 462.984375 710.226562 C 467.832031 706.859375 486.269531 635.945312 498.476562 568.035156 C 502.375 546.351562 507.316406 514.621094 511.679688 486.628906 C 515.375 462.914062 518.566406 442.433594 520.199219 434.035156 C 521.503906 427.316406 543.722656 415.585938 544.753906 415.226562 L 545.355469 416.964844 C 543.765625 417.515625 523.0625 428.925781 522 434.386719 C 520.378906 442.75 517.1875 463.214844 513.496094 486.910156 C 509.132812 514.914062 504.1875 546.65625 500.285156 568.363281 C 489.585938 627.894531 470.371094 707.335938 464.035156 711.734375 C 460.707031 714.042969 455.050781 715.042969 447.941406 715.042969 Z M 447.941406 715.042969 " fill-opacity="1" fill-rule="nonzero"/><path fill="#8295ae" d="M 523.460938 318.601562 C 526.105469 321.070312 528.75 323.511719 531.355469 325.902344 C 528.710938 324.785156 526.039062 323.648438 523.363281 322.5 C 523.398438 321.226562 523.429688 319.921875 523.460938 318.601562 Z M 523.460938 318.601562 " fill-opacity="1" fill-rule="nonzero"/><path fill="#4e63ab" d="M 555.019531 105.566406 C 553.792969 100.34375 553.6875 96.242188 556.472656 88.53125 C 568.53125 55.191406 553.023438 12.960938 512.675781 11.039062 C 506.242188 11.039062 499.8125 11.960938 493.378906 12.878906 C 493.378906 12.878906 467.652344 0.015625 448.355469 25.742188 C 439.46875 37.589844 435.457031 52.101562 427.746094 64.359375 C 412.15625 89.140625 390.464844 139.480469 432.347656 150.984375 C 447.839844 155.238281 465.164062 153.410156 481.039062 154 C 501.21875 154.753906 524.503906 161.230469 543.917969 153.464844 C 558.859375 147.488281 560.890625 127.667969 557.082031 113.273438 C 556.28125 110.25 555.546875 107.804688 555.019531 105.566406 Z M 555.019531 105.566406 " fill-opacity="1" fill-rule="nonzero"/><path fill="#113576" d="M 521.324219 158.164062 C 521.324219 158.164062 521.320312 158.164062 521.320312 158.164062 C 513.753906 158.164062 505.996094 157.292969 498.488281 156.453125 C 492.390625 155.773438 486.628906 155.125 481.003906 154.917969 C 478.570312 154.828125 475.859375 154.785156 472.476562 154.785156 C 470.730469 154.785156 468.976562 154.792969 467.21875 154.804688 C 465.441406 154.816406 463.664062 154.828125 461.882812 154.828125 C 452.679688 154.828125 442.035156 154.601562 432.101562 151.871094 C 420.65625 148.726562 413.039062 142.476562 409.472656 133.289062 C 400.199219 109.421875 420.515625 74.121094 426.964844 63.871094 C 430.304688 58.5625 433.007812 52.691406 435.621094 47.015625 C 439.03125 39.601562 442.558594 31.9375 447.617188 25.191406 C 457.8125 11.59375 469.824219 8.742188 478.101562 8.742188 C 486.15625 8.742188 492.191406 11.3125 493.523438 11.925781 C 499.796875 11.03125 506.269531 10.121094 512.675781 10.121094 C 533.675781 11.121094 545.433594 22.359375 551.601562 31.617188 C 562.171875 47.46875 564.371094 69.398438 557.339844 88.84375 C 554.621094 96.363281 554.726562 100.300781 555.914062 105.355469 C 556.238281 106.722656 556.636719 108.167969 557.082031 109.78125 C 557.359375 110.792969 557.660156 111.871094 557.96875 113.035156 C 562.226562 129.121094 558.886719 148.464844 544.257812 154.316406 C 537.785156 156.90625 530.285156 158.164062 521.324219 158.164062 Z M 472.476562 152.945312 C 475.882812 152.945312 478.613281 152.988281 481.074219 153.082031 C 486.765625 153.292969 492.558594 153.941406 498.695312 154.628906 C 506.148438 155.460938 513.855469 156.324219 521.320312 156.328125 C 521.320312 156.328125 521.324219 156.328125 521.324219 156.328125 C 530.046875 156.328125 537.324219 155.109375 543.574219 152.609375 C 557.210938 147.15625 560.242188 128.808594 556.191406 113.507812 C 555.882812 112.347656 555.585938 111.277344 555.308594 110.269531 C 554.855469 108.632812 554.449219 107.167969 554.125 105.773438 C 552.855469 100.371094 552.734375 96.171875 555.609375 88.21875 C 562.445312 69.3125 560.324219 48.011719 550.070312 32.636719 C 544.136719 23.734375 532.820312 12.917969 512.628906 11.953125 C 506.304688 11.957031 499.796875 12.886719 493.507812 13.785156 L 493.222656 13.824219 L 492.96875 13.699219 C 492.90625 13.667969 486.605469 10.578125 478.101562 10.578125 C 466.671875 10.578125 456.90625 15.867188 449.089844 26.292969 C 444.148438 32.882812 440.660156 40.457031 437.289062 47.78125 C 434.652344 53.511719 431.925781 59.4375 428.523438 64.851562 C 415.472656 85.59375 404.0625 114.292969 411.1875 132.621094 C 414.535156 141.238281 421.734375 147.117188 432.589844 150.097656 C 442.300781 152.765625 452.800781 152.988281 461.882812 152.988281 C 463.660156 152.988281 465.4375 152.976562 467.210938 152.96875 C 468.96875 152.957031 470.726562 152.945312 472.476562 152.945312 Z M 472.476562 152.945312 " fill-opacity="1" fill-rule="nonzero"/><path fill="#7bb984" d="M 467.257812 106.871094 C 465.859375 106.792969 464.460938 106.785156 463.0625 106.867188 C 433.929688 108.605469 455.957031 139.835938 442.839844 148.582031 C 438.496094 151.480469 423.285156 150.097656 418.066406 150.703125 C 372.753906 155.929688 375.601562 228.070312 370.558594 260.015625 C 365.65625 288.191406 346.054688 312.695312 374.230469 331.074219 C 395.058594 345.773438 423.238281 351.898438 448.964844 349.449219 C 459.992188 348.226562 472.246094 342.097656 484.496094 343.324219 C 497.972656 344.550781 509 355.578125 522.476562 360.476562 C 555.554688 370.277344 582.507812 354.351562 604.5625 331.074219 C 610.78125 324.851562 618.898438 318.574219 621.289062 309.695312 C 626.863281 288.953125 615.359375 269.234375 605.277344 252.1875 C 595.320312 235.351562 595.964844 214.90625 591.800781 196.335938 C 588.15625 180.066406 576.34375 159.1875 559.230469 154.957031 C 550.066406 152.695312 538.183594 158.851562 532.132812 149.457031 C 523.316406 135.757812 540.347656 118.605469 514.351562 115.761719 C 507.59375 115.027344 500.898438 113.679688 494.210938 112.488281 C 485.367188 110.914062 476.335938 107.378906 467.257812 106.871094 Z M 467.257812 106.871094 " fill-opacity="1" fill-rule="nonzero"/><path fill="#113576" d="M 542.109375 364.335938 C 535.582031 364.335938 528.890625 363.335938 522.214844 361.359375 C 516.660156 359.339844 511.554688 356.328125 506.613281 353.417969 C 499.230469 349.066406 492.261719 344.953125 484.410156 344.242188 C 483.363281 344.136719 482.28125 344.082031 481.183594 344.082031 C 474.859375 344.082031 468.5 345.796875 462.355469 347.460938 C 457.730469 348.707031 453.363281 349.886719 449.066406 350.363281 C 445.367188 350.714844 441.585938 350.894531 437.816406 350.894531 C 414.238281 350.894531 390.871094 343.941406 373.699219 331.824219 C 352.214844 317.8125 357.957031 299.789062 364.042969 280.710938 C 366.183594 273.992188 368.398438 267.042969 369.648438 259.855469 C 370.53125 254.269531 371.1875 247.273438 371.878906 239.867188 C 375.265625 203.707031 379.898438 154.179688 417.960938 149.789062 C 419.28125 149.636719 421.160156 149.605469 423.582031 149.605469 L 427.234375 149.613281 C 431.570312 149.613281 439.640625 149.613281 442.328125 147.820312 C 447.214844 144.5625 446.765625 137.65625 446.292969 130.34375 C 445.835938 123.289062 445.363281 115.996094 449.640625 111.152344 C 452.398438 108.027344 456.773438 106.328125 463.003906 105.953125 C 464.4375 105.867188 465.871094 105.875 467.304688 105.953125 C 472.96875 106.269531 478.636719 107.753906 484.117188 109.183594 C 487.496094 110.070312 490.992188 110.980469 494.375 111.585938 C 495.71875 111.824219 497.0625 112.070312 498.40625 112.316406 C 503.65625 113.273438 509.085938 114.265625 514.453125 114.851562 C 531.484375 116.710938 530.964844 124.839844 530.414062 133.445312 C 530.078125 138.648438 529.734375 144.03125 532.90625 148.960938 C 535.746094 153.371094 540.050781 153.96875 543.890625 153.96875 C 545.496094 153.96875 547.199219 153.847656 548.847656 153.734375 C 550.550781 153.617188 552.3125 153.496094 554.03125 153.496094 C 556.121094 153.496094 557.894531 153.683594 559.449219 154.066406 C 576.773438 158.347656 588.828125 178.875 592.695312 196.136719 C 594.007812 201.992188 594.859375 208.121094 595.679688 214.050781 C 597.46875 226.964844 599.320312 240.316406 606.066406 251.722656 C 615.792969 268.167969 627.898438 288.636719 622.171875 309.933594 C 620.140625 317.480469 614.300781 323.03125 608.652344 328.394531 C 607.472656 329.515625 606.308594 330.621094 605.207031 331.722656 C 584.425781 353.664062 563.78125 364.335938 542.109375 364.335938 Z M 481.183594 342.242188 C 482.34375 342.242188 483.488281 342.300781 484.589844 342.410156 C 492.839844 343.160156 499.984375 347.371094 507.546875 351.832031 C 512.414062 354.703125 517.449219 357.671875 522.789062 359.613281 C 529.242188 361.523438 535.761719 362.5 542.109375 362.5 C 563.246094 362.5 583.457031 352.015625 603.894531 330.441406 C 605.023438 329.308594 606.199219 328.195312 607.390625 327.0625 C 612.851562 321.875 618.503906 316.503906 620.398438 309.457031 C 625.925781 288.90625 614.039062 268.808594 604.484375 252.660156 C 597.554688 240.9375 595.675781 227.398438 593.863281 214.304688 C 593.046875 208.410156 592.199219 202.320312 590.90625 196.539062 C 587.039062 179.28125 574.84375 159.761719 559.007812 155.851562 C 557.582031 155.5 556 155.335938 554.035156 155.335938 C 552.378906 155.335938 550.648438 155.457031 548.976562 155.570312 C 547.296875 155.6875 545.5625 155.808594 543.890625 155.808594 C 539.8125 155.808594 534.703125 155.140625 531.363281 149.953125 C 527.863281 144.515625 528.246094 138.570312 528.582031 133.328125 C 529.136719 124.628906 529.539062 118.347656 514.253906 116.679688 C 508.820312 116.085938 503.359375 115.089844 498.078125 114.125 C 496.734375 113.878906 495.394531 113.632812 494.054688 113.394531 C 490.601562 112.78125 487.070312 111.855469 483.65625 110.964844 C 478.265625 109.554688 472.6875 108.097656 467.210938 107.789062 C 465.84375 107.71875 464.484375 107.710938 463.121094 107.789062 C 457.398438 108.132812 453.441406 109.628906 451.023438 112.367188 C 447.25 116.640625 447.695312 123.546875 448.128906 130.226562 C 448.617188 137.738281 449.121094 145.503906 443.351562 149.351562 C 440.441406 151.289062 433.507812 151.453125 427.234375 151.453125 L 423.585938 151.445312 C 421.226562 151.445312 419.40625 151.472656 418.171875 151.617188 C 381.589844 155.835938 377.035156 204.503906 373.710938 240.039062 C 373.015625 247.476562 372.359375 254.5 371.464844 260.160156 C 370.191406 267.484375 367.957031 274.492188 365.792969 281.273438 C 359.675781 300.464844 354.390625 317.035156 374.734375 330.304688 C 391.628906 342.230469 414.613281 349.058594 437.816406 349.058594 C 441.527344 349.058594 445.25 348.882812 448.878906 348.539062 C 453.019531 348.078125 457.320312 346.917969 461.875 345.6875 C 468.140625 343.992188 474.617188 342.242188 481.183594 342.242188 Z M 481.183594 342.242188 " fill-opacity="1" fill-rule="nonzero"/><path fill="#4e63ab" d="M 576.542969 260.445312 C 575.96875 251.191406 578.269531 243.496094 587.480469 243.96875 C 591.511719 243.828125 596.691406 246.277344 600.722656 245.527344 C 605.902344 244.910156 607.054688 238.917969 611.660156 238.234375 C 618.566406 237.210938 616.839844 243.746094 619.144531 248.917969 C 623.171875 256.128906 624.898438 250.820312 630.082031 255.105469 C 636.988281 260.203125 632.382812 277.429688 630.65625 280.898438 " fill-opacity="1" fill-rule="nonzero"/><path fill="#113576" d="M 577.472656 260.453125 C 577.363281 255.328125 577.355469 249.386719 582.042969 246.113281 C 586.359375 243.09375 592.425781 246.257812 597.03125 246.636719 C 600.34375 246.90625 602.769531 246.566406 605.425781 244.511719 C 606.664062 243.550781 607.679688 242.246094 608.773438 241.121094 C 615.390625 234.3125 616.507812 243.910156 617.019531 246.332031 C 617.515625 248.699219 618.675781 251.523438 620.707031 253.003906 C 623.660156 255.15625 627.152344 254.199219 630.089844 256.820312 C 635.398438 261.558594 631.917969 274.726562 629.503906 280.230469 C 628.824219 281.78125 631.085938 283.140625 631.816406 281.5625 C 635.007812 274.679688 636.597656 264.769531 633.625 257.621094 C 632.453125 254.792969 629.304688 252.226562 626.207031 251.96875 C 617.34375 251.238281 621.289062 243.101562 617.242188 238.816406 C 614.777344 236.207031 611.316406 236.613281 608.421875 238.332031 C 606.710938 239.34375 605.402344 241.304688 604.019531 242.699219 C 599.925781 246.820312 593.910156 243.160156 589.285156 242.964844 C 578.167969 242.503906 575 250.328125 575.621094 260.4375 C 575.691406 261.621094 577.496094 261.65625 577.472656 260.453125 Z M 577.472656 260.453125 " fill-opacity="1" fill-rule="nonzero"/><path fill="#8295ae" d="M 555.199219 251.707031 C 553.71875 256.851562 521.050781 369.054688 527.003906 377.117188 C 532.957031 385.175781 612.175781 399.140625 617.988281 393.023438 C 623.800781 386.902344 651.078125 279.929688 646.378906 271.75 C 641.679688 263.566406 556.679688 246.558594 555.199219 251.707031 Z M 555.199219 251.707031 " fill-opacity="1" fill-rule="nonzero"/><path fill="#113576" d="M 609.277344 395.449219 C 609.277344 395.449219 609.273438 395.449219 609.273438 395.449219 C 588.464844 395.445312 531.625 384.921875 526.261719 377.664062 C 520.796875 370.261719 543.921875 287.402344 554.121094 252.117188 L 554.3125 251.453125 C 554.644531 250.304688 556.148438 249.835938 559.496094 249.835938 C 575.546875 249.835938 642.558594 263.257812 647.171875 271.292969 C 650.417969 276.949219 640.21875 320.242188 637.015625 333.378906 C 630.335938 360.753906 621.886719 390.253906 618.652344 393.65625 C 617.921875 394.425781 616.15625 395.449219 609.277344 395.449219 Z M 559.5 251.671875 C 556.539062 251.671875 556.019531 252.089844 556 252.109375 L 555.890625 252.628906 C 540.359375 306.355469 523.667969 371.054688 527.742188 376.570312 C 532.425781 382.910156 587.324219 393.609375 609.273438 393.613281 C 609.273438 393.613281 609.277344 393.613281 609.277344 393.613281 C 615.492188 393.613281 616.972656 392.757812 617.324219 392.390625 C 619.851562 389.726562 627.886719 363.058594 635.234375 332.941406 C 643.296875 299.878906 647.457031 275.472656 645.582031 272.207031 C 641.996094 265.960938 578.480469 251.671875 559.5 251.671875 Z M 559.5 251.671875 " fill-opacity="1" fill-rule="nonzero"/><path fill="#e5936a" d="M 543.261719 100.101562 C 543.140625 86.992188 549.808594 80.015625 550.957031 66.523438 C 552.617188 46.992188 528.496094 34.402344 507.234375 31.6875 C 476.914062 27.8125 461.847656 44.835938 456.089844 67.941406 C 455.46875 70.433594 454.992188 72.984375 454.636719 75.570312 C 449.742188 71.609375 443.902344 69.644531 440.199219 76.695312 C 433.453125 89.554688 441.679688 92.0625 443.859375 98.390625 C 445.921875 104.378906 452.304688 106.703125 457.179688 106 C 457.179688 106 463.367188 123.410156 479.386719 133.242188 C 508.796875 151.292969 530.386719 142.746094 537.570312 133.246094 C 553.386719 112.320312 543.28125 102.332031 543.261719 100.101562 Z M 543.261719 100.101562 " fill-opacity="1" fill-rule="nonzero"/><path fill="#113576" d="M 512.292969 144.730469 C 501.714844 144.730469 490.480469 141.128906 478.90625 134.023438 C 464.40625 125.125 457.914062 110.378906 456.574219 106.992188 C 451.535156 107.414062 445.132812 104.914062 442.988281 98.6875 C 442.421875 97.039062 441.394531 95.652344 440.308594 94.183594 C 437.480469 90.355469 434.273438 86.019531 439.386719 76.269531 C 442.515625 70.316406 447.746094 69.453125 453.957031 73.894531 C 454.292969 71.753906 454.710938 69.683594 455.199219 67.71875 C 459.460938 50.613281 470.503906 30.21875 498.925781 30.21875 C 501.617188 30.21875 504.453125 30.40625 507.351562 30.777344 C 530.160156 33.691406 553.519531 47.234375 551.871094 66.605469 C 551.324219 73.015625 549.566406 77.960938 547.863281 82.742188 C 545.9375 88.152344 544.117188 93.265625 544.179688 100.09375 C 544.195312 100.292969 544.519531 100.960938 544.78125 101.5 C 546.882812 105.824219 551.800781 115.945312 538.300781 133.800781 C 534.308594 139.082031 525.375 144.730469 512.292969 144.730469 Z M 457.175781 105.078125 C 457.5625 105.078125 457.910156 105.320312 458.042969 105.6875 C 458.101562 105.859375 464.324219 122.917969 479.867188 132.457031 C 491.148438 139.382812 502.058594 142.890625 512.292969 142.890625 C 524.699219 142.890625 533.105469 137.621094 536.835938 132.6875 C 549.652344 115.734375 545.082031 106.320312 543.128906 102.300781 C 542.660156 101.328125 542.347656 100.6875 542.339844 100.105469 C 542.277344 92.949219 544.148438 87.691406 546.128906 82.121094 C 547.792969 77.449219 549.515625 72.617188 550.039062 66.445312 C 551.589844 48.214844 529.082031 35.398438 507.117188 32.59375 C 504.292969 32.230469 501.539062 32.046875 498.925781 32.046875 C 471.691406 32.046875 461.082031 51.683594 456.980469 68.15625 C 456.390625 70.53125 455.90625 73.0625 455.546875 75.691406 C 455.5 76.019531 455.28125 76.296875 454.972656 76.417969 C 454.664062 76.539062 454.3125 76.484375 454.058594 76.277344 C 451.335938 74.074219 448.785156 72.910156 446.6875 72.910156 C 444.355469 72.910156 442.5 74.285156 441.015625 77.117188 C 436.433594 85.847656 439.035156 89.363281 441.785156 93.085938 C 442.90625 94.601562 444.066406 96.171875 444.726562 98.085938 C 446.640625 103.648438 452.628906 105.722656 457.046875 105.082031 C 457.089844 105.082031 457.132812 105.078125 457.175781 105.078125 Z M 457.175781 105.078125 " fill-opacity="1" fill-rule="nonzero"/><path fill="#113576" d="M 484.617188 66.921875 C 488.921875 67.195312 493.066406 65.628906 497.371094 66.363281 C 500.992188 66.980469 503.238281 69.347656 505.96875 71.523438 C 508.871094 73.832031 512.371094 71.039062 510.945312 67.683594 C 506.726562 57.710938 490.089844 56.3125 483.574219 64.410156 C 482.765625 65.414062 483.261719 66.835938 484.617188 66.921875 Z M 484.617188 66.921875 " fill-opacity="1" fill-rule="nonzero"/><path fill="#113576" d="M 543.519531 78.148438 C 543.042969 75.757812 542.800781 74.289062 541.265625 72.316406 C 540 70.695312 537.851562 69.707031 535.964844 69.0625 C 531.828125 67.648438 525.238281 69.03125 524.078125 73.757812 C 523.667969 75.425781 524.90625 77.4375 526.78125 77.308594 C 529.496094 77.121094 531.664062 75.441406 534.421875 75.449219 C 536.808594 75.460938 539.714844 77.164062 540.699219 79.339844 C 541.464844 81.019531 543.84375 79.761719 543.519531 78.148438 Z M 543.519531 78.148438 " fill-opacity="1" fill-rule="nonzero"/><path fill="#113576" d="M 447.121094 90.089844 C 446.417969 88.269531 446.035156 86.191406 445.695312 84.265625 C 444.929688 79.925781 449.316406 80.363281 451.488281 82.359375 C 454.277344 84.921875 456.070312 89.253906 456.90625 92.878906 C 457.453125 92.332031 458.003906 91.789062 458.550781 91.246094 C 451.179688 88.183594 452.203125 102.296875 458.050781 98.277344 C 458.679688 97.84375 458.550781 96.980469 457.84375 96.722656 C 457.058594 96.433594 455.796875 96.394531 455.71875 95.386719 C 455.613281 94.054688 456.691406 93.339844 457.84375 93.820312 C 458.839844 94.234375 459.6875 93.066406 459.484375 92.1875 C 458.300781 87.054688 455.054688 79.617188 449.367188 78.3125 C 447.199219 77.816406 444.015625 79.066406 443.5 81.445312 C 442.714844 85.054688 444.753906 87.449219 446.390625 90.394531 C 446.605469 90.777344 447.285156 90.511719 447.121094 90.089844 Z M 447.121094 90.089844 " fill-opacity="1" fill-rule="nonzero"/><path fill="#113576" d="M 503.316406 79.0625 C 498.105469 77.867188 496.117188 89.542969 500.402344 92.503906 C 506.761719 96.90625 511.042969 80.835938 503.316406 79.0625 Z M 503.316406 79.0625 " fill-opacity="1" fill-rule="nonzero"/><path fill="#113576" d="M 486.417969 93.113281 C 492.09375 92.351562 499.675781 90.550781 503.828125 95.480469 C 504.457031 96.226562 505.472656 95.675781 505.773438 94.957031 C 508.445312 88.550781 509.917969 76.238281 502.421875 72.265625 C 499.640625 70.792969 496.285156 71.792969 493.71875 73.183594 C 489.835938 75.28125 488.023438 79.046875 486.984375 83.152344 C 486.882812 83.554688 487.441406 83.792969 487.65625 83.433594 C 490.089844 79.328125 496.125 72.003906 501.683594 74.929688 C 504.425781 76.375 505.03125 80.820312 505.269531 83.527344 C 505.597656 87.210938 504.871094 90.929688 503.523438 94.34375 C 504.171875 94.167969 504.820312 93.996094 505.46875 93.820312 C 500.402344 88.03125 492.71875 90.648438 486.167969 92.175781 C 485.539062 92.320312 485.816406 93.191406 486.417969 93.113281 Z M 486.417969 93.113281 " fill-opacity="1" fill-rule="nonzero"/><path fill="#113576" d="M 536.453125 86.660156 C 531.242188 85.464844 529.253906 97.136719 533.535156 100.097656 C 539.898438 104.496094 544.179688 88.425781 536.453125 86.660156 Z M 536.453125 86.660156 " fill-opacity="1" fill-rule="nonzero"/><path fill="#113576" d="M 519.550781 100.703125 C 525.226562 99.945312 532.8125 98.140625 536.964844 103.070312 C 537.59375 103.820312 538.605469 103.269531 538.90625 102.550781 C 541.582031 96.144531 543.054688 83.832031 535.558594 79.859375 C 532.773438 78.386719 529.421875 79.386719 526.851562 80.777344 C 522.972656 82.875 521.160156 86.640625 520.121094 90.746094 C 520.019531 91.148438 520.578125 91.386719 520.792969 91.023438 C 523.226562 86.917969 529.261719 79.597656 534.820312 82.523438 C 537.5625 83.96875 538.167969 88.414062 538.40625 91.121094 C 538.734375 94.804688 538.007812 98.519531 536.660156 101.933594 C 537.308594 101.761719 537.957031 101.589844 538.605469 101.414062 C 533.535156 95.625 525.855469 98.242188 519.304688 99.765625 C 518.675781 99.914062 518.953125 100.785156 519.550781 100.703125 Z M 519.550781 100.703125 " fill-opacity="1" fill-rule="nonzero"/><path fill="#e5936a" d="M 519.558594 94.667969 C 520.113281 96.207031 520.242188 97.644531 521.230469 99.277344 C 522.777344 102.453125 527.671875 102.3125 528.890625 104.9375 C 530.105469 107.566406 526.867188 112.722656 521.398438 112.703125 C 521.398438 112.703125 517.515625 108.652344 516.429688 103.375 C 515.34375 98.101562 519.558594 94.667969 519.558594 94.667969 Z M 519.558594 94.667969 " fill-opacity="1" fill-rule="nonzero"/><path fill="#113576" d="M 519.195312 94.765625 C 520.269531 98.519531 520.804688 100.964844 524.484375 102.730469 C 526.765625 103.824219 529.660156 105.125 527.828125 108.171875 C 526.292969 110.722656 523.832031 111.25 521.214844 112.007812 C 520.570312 112.195312 520.464844 113.273438 521.210938 113.398438 C 525.085938 114.066406 529.628906 110.734375 529.804688 106.636719 C 529.875 104.9375 529.226562 103.886719 527.894531 102.886719 C 526.902344 102.140625 525.550781 101.757812 524.429688 101.246094 C 521.660156 99.980469 520.839844 97.265625 519.921875 94.574219 C 519.765625 94.117188 519.058594 94.296875 519.195312 94.765625 Z M 519.195312 94.765625 " fill-opacity="1" fill-rule="nonzero"/><path fill="#113576" d="M 501.363281 112.738281 C 502.375 116.746094 505.5 120.148438 508.765625 122.535156 C 511.691406 124.675781 517.113281 128.132812 520.847656 126.1875 C 521.445312 125.875 521.230469 125.039062 520.667969 124.847656 C 519.3125 124.390625 517.867188 124.441406 516.464844 124.121094 C 514.34375 123.632812 512.410156 122.515625 510.605469 121.347656 C 507.207031 119.15625 504.304688 115.890625 502.742188 112.160156 C 502.40625 111.355469 501.164062 111.941406 501.363281 112.738281 Z M 501.363281 112.738281 " fill-opacity="1" fill-rule="nonzero"/><path fill="#e5936a" d="M 574.578125 361.519531 C 580.941406 357.3125 574.886719 353.058594 568.558594 354.082031 C 557.699219 355.839844 544.488281 360.972656 536.914062 354.394531 C 531.890625 350.03125 540.664062 345.566406 544.332031 340.191406 C 546.199219 337.460938 547.792969 331.476562 543.5 331.191406 C 539.207031 330.90625 536.757812 338.660156 523.710938 340.910156 C 507.515625 343.703125 514.511719 343.800781 507.285156 346.628906 C 500.058594 349.457031 457.214844 311.613281 447.578125 302.523438 C 437.941406 293.4375 381.253906 302.945312 388.996094 320.597656 C 401.398438 348.878906 490.65625 379.105469 499.726562 380.609375 C 507.453125 381.890625 537.792969 390.945312 545.488281 392.738281 C 551.035156 394.03125 556.757812 392.769531 561.441406 389.597656 C 565.128906 387.097656 567.402344 382.96875 570.410156 379.769531 C 572.949219 377.066406 575.710938 374.265625 577.832031 371.210938 C 579.191406 369.246094 581.375 365.929688 580.785156 363.367188 C 580.222656 360.917969 576.613281 360.175781 574.578125 361.519531 Z M 574.578125 361.519531 " fill-opacity="1" fill-rule="nonzero"/><path fill="#113576" d="M 549.859375 394.160156 C 548.316406 394.160156 546.773438 393.980469 545.277344 393.632812 C 542.261719 392.929688 535.945312 391.160156 528.632812 389.113281 C 517.203125 385.917969 504.246094 382.292969 499.574219 381.515625 C 490.898438 380.074219 400.96875 350.179688 388.152344 320.96875 C 386.867188 318.035156 387.117188 315.167969 388.898438 312.441406 C 394.6875 303.585938 415.863281 298.105469 432.164062 298.105469 C 439.945312 298.105469 445.640625 299.4375 448.207031 301.855469 C 458.496094 311.5625 497.621094 345.863281 506.371094 345.859375 C 506.609375 345.859375 506.800781 345.828125 506.949219 345.773438 C 509.371094 344.824219 510.066406 344.230469 510.679688 343.710938 C 512.039062 342.550781 512.859375 341.851562 523.554688 340.007812 C 531.125 338.699219 535 335.492188 537.832031 333.152344 C 539.871094 331.460938 541.449219 330.15625 543.558594 330.277344 C 545.429688 330.402344 546.300781 331.414062 546.703125 332.238281 C 547.902344 334.703125 546.484375 338.675781 545.09375 340.714844 C 543.914062 342.433594 542.289062 344.019531 540.714844 345.554688 C 538.425781 347.78125 536.265625 349.882812 536.316406 351.644531 C 536.335938 352.347656 536.726562 353.019531 537.511719 353.703125 C 539.863281 355.742188 543.019531 356.734375 547.171875 356.734375 C 551.511719 356.734375 556.402344 355.664062 561.128906 354.632812 C 563.550781 354.105469 566.058594 353.558594 568.410156 353.179688 C 569.09375 353.066406 569.789062 353.011719 570.480469 353.011719 C 574.253906 353.011719 577.367188 354.609375 578.054688 356.902344 C 578.261719 357.582031 578.351562 358.683594 577.527344 359.964844 C 579.609375 360.164062 581.277344 361.421875 581.679688 363.160156 C 582.304688 365.882812 580.464844 369.019531 578.585938 371.730469 C 576.699219 374.453125 574.34375 376.941406 572.070312 379.347656 L 571.078125 380.398438 C 570.046875 381.492188 569.078125 382.738281 568.136719 383.945312 C 566.332031 386.261719 564.464844 388.660156 561.953125 390.359375 C 558.285156 392.84375 554.101562 394.160156 549.859375 394.160156 Z M 432.164062 299.941406 C 416.273438 299.941406 395.714844 305.371094 390.4375 313.449219 C 388.996094 315.652344 388.800781 317.871094 389.835938 320.230469 C 402.125 348.246094 491.628906 378.335938 499.875 379.703125 C 504.644531 380.496094 517.652344 384.136719 529.128906 387.347656 C 536.421875 389.386719 542.71875 391.152344 545.695312 391.84375 C 547.058594 392.164062 548.457031 392.324219 549.859375 392.324219 C 553.734375 392.324219 557.5625 391.117188 560.929688 388.835938 C 563.199219 387.300781 564.976562 385.019531 566.691406 382.8125 C 567.65625 381.574219 568.65625 380.296875 569.742188 379.140625 L 570.738281 378.085938 C 572.96875 375.726562 575.273438 373.289062 577.078125 370.683594 C 578.078125 369.242188 580.417969 365.867188 579.890625 363.574219 C 579.605469 362.339844 578.171875 361.777344 576.957031 361.777344 C 576.25 361.777344 575.585938 361.957031 575.085938 362.289062 C 574.660156 362.570312 574.089844 362.453125 573.8125 362.03125 C 573.53125 361.605469 573.648438 361.035156 574.070312 360.753906 C 575.074219 360.089844 576.703125 358.773438 576.296875 357.429688 C 575.769531 355.679688 572.074219 354.449219 568.707031 354.988281 C 566.402344 355.363281 564.03125 355.878906 561.519531 356.429688 C 556.699219 357.484375 551.710938 358.570312 547.167969 358.570312 C 542.558594 358.570312 539.007812 357.429688 536.308594 355.09375 C 535.128906 354.066406 534.515625 352.925781 534.480469 351.699219 C 534.40625 349.132812 536.847656 346.757812 539.429688 344.238281 C 540.941406 342.765625 542.5 341.246094 543.574219 339.675781 C 544.871094 337.773438 545.796875 334.582031 545.046875 333.042969 C 544.871094 332.675781 544.507812 332.183594 543.4375 332.109375 C 541.910156 332.058594 540.730469 333.140625 539 334.566406 C 536.011719 337.039062 531.917969 340.429688 523.863281 341.820312 C 513.664062 343.578125 512.914062 344.222656 511.871094 345.109375 C 511.183594 345.695312 510.324219 346.425781 507.617188 347.488281 C 507.253906 347.628906 506.835938 347.699219 506.371094 347.699219 C 496.261719 347.703125 454.707031 310.519531 446.941406 303.195312 C 444.757812 301.128906 439.367188 299.941406 432.164062 299.941406 Z M 432.164062 299.941406 " fill-opacity="1" fill-rule="nonzero"/><path fill="#113576" d="M 551.472656 374.480469 C 546.238281 374.480469 540.4375 373.515625 536.957031 371.40625 C 536.523438 371.144531 536.386719 370.578125 536.648438 370.144531 C 536.914062 369.710938 537.476562 369.574219 537.910156 369.835938 C 542.246094 372.464844 550.984375 373.152344 556.585938 372.28125 C 559.65625 371.796875 563.054688 368.949219 566.34375 366.191406 C 569.078125 363.898438 571.660156 361.734375 574.226562 360.671875 C 574.695312 360.480469 575.230469 360.699219 575.425781 361.171875 C 575.621094 361.640625 575.398438 362.175781 574.929688 362.371094 C 572.625 363.324219 570.148438 365.398438 567.527344 367.597656 C 564.046875 370.515625 560.449219 373.535156 556.871094 374.097656 C 555.246094 374.351562 553.398438 374.480469 551.472656 374.480469 Z M 551.472656 374.480469 " fill-opacity="1" fill-rule="nonzero"/><path fill="#113576" d="M 553.339844 387.746094 C 546.46875 387.746094 538.34375 385.648438 533.742188 384.265625 C 533.257812 384.121094 532.980469 383.609375 533.125 383.125 C 533.269531 382.636719 533.78125 382.359375 534.269531 382.507812 C 538.441406 383.757812 548.933594 386.578125 556.222656 385.757812 C 565.214844 384.742188 571.277344 377.621094 571.9375 376.8125 C 572.257812 376.421875 572.839844 376.363281 573.230469 376.683594 C 573.621094 377.007812 573.679688 377.585938 573.359375 377.976562 C 572.199219 379.394531 565.9375 386.511719 556.429688 387.585938 C 555.441406 387.695312 554.40625 387.746094 553.339844 387.746094 Z M 553.339844 387.746094 " fill-opacity="1" fill-rule="nonzero"/><path fill="#4e63ab" d="M 522.78125 26.660156 C 524.621094 38.605469 506.242188 44.121094 497.972656 45.039062 C 471.324219 49.632812 472.246094 60.660156 468.570312 84.550781 C 454.789062 87.304688 441.003906 58.820312 452.949219 52.390625 L 478.675781 26.660156 Z M 522.78125 26.660156 " fill-opacity="1" fill-rule="nonzero"/><path fill="#113576" d="M 466.628906 85.660156 C 458.992188 85.660156 452 77.601562 448.996094 69.261719 C 446.058594 61.105469 447.402344 54.328125 452.511719 51.578125 C 452.957031 51.339844 453.515625 51.503906 453.753906 51.953125 C 453.996094 52.398438 453.828125 52.957031 453.382812 53.199219 C 448.304688 55.933594 448.679688 62.96875 450.722656 68.640625 C 453.695312 76.894531 460.789062 84.609375 467.761719 83.75 C 468.042969 81.894531 468.296875 80.113281 468.542969 78.414062 C 471.410156 58.453125 472.851562 48.4375 497.816406 44.132812 C 504.199219 43.421875 515.28125 40.195312 519.882812 34.191406 C 521.609375 31.9375 522.277344 29.453125 521.871094 26.800781 C 521.792969 26.296875 522.136719 25.828125 522.640625 25.753906 C 523.144531 25.683594 523.609375 26.019531 523.6875 26.519531 C 524.175781 29.683594 523.382812 32.640625 521.339844 35.308594 C 516.003906 42.277344 503.785156 45.316406 498.070312 45.949219 C 474.476562 50.019531 473.1875 59 470.359375 78.675781 C 470.085938 80.582031 469.796875 82.585938 469.472656 84.6875 C 469.414062 85.070312 469.125 85.375 468.746094 85.449219 C 468.039062 85.589844 467.332031 85.660156 466.628906 85.660156 Z M 466.628906 85.660156 " fill-opacity="1" fill-rule="nonzero"/><path fill="#113576" d="M 477.28125 327.820312 L 475.558594 327.183594 C 481.558594 310.898438 475.738281 302.1875 467.683594 290.128906 C 464.585938 285.488281 461.078125 280.234375 457.945312 273.972656 C 450.5 257.835938 450.5 242.984375 450.5 225.78125 L 452.335938 225.78125 C 452.335938 242.769531 452.335938 257.4375 459.601562 273.179688 C 462.667969 279.308594 466.144531 284.515625 469.214844 289.109375 C 477.253906 301.144531 483.605469 310.65625 477.28125 327.820312 Z M 477.28125 327.820312 " fill-opacity="1" fill-rule="nonzero"/><path fill="#113576" d="M 562.996094 218.164062 C 561.820312 229.757812 568.304688 240.300781 571.523438 251.054688 C 571.957031 252.492188 574.21875 251.882812 573.769531 250.453125 C 570.492188 239.980469 563.792969 229.460938 564.375 218.175781 C 564.421875 217.273438 563.085938 217.296875 562.996094 218.164062 Z M 562.996094 218.164062 " fill-opacity="1" fill-rule="nonzero"/><path fill="#113576" d="M 465.269531 141.242188 C 464.910156 146.9375 464.882812 152.683594 464.988281 158.390625 C 465.015625 159.851562 467.222656 159.867188 467.25 158.40625 C 467.355469 152.699219 467.328125 146.949219 466.96875 141.253906 C 466.902344 140.160156 465.335938 140.144531 465.269531 141.242188 Z M 465.269531 141.242188 " fill-opacity="1" fill-rule="nonzero"/><path fill="#113576" d="M 484.882812 149.816406 C 484.257812 155.457031 484.296875 161.046875 483.394531 166.671875 C 483.164062 168.097656 485.164062 168.714844 485.597656 167.277344 C 487.21875 161.855469 487.171875 155.398438 486.5625 149.828125 C 486.445312 148.753906 485 148.734375 484.882812 149.816406 Z M 484.882812 149.816406 " fill-opacity="1" fill-rule="nonzero"/><path fill="#113576" d="M 514.285156 151.042969 C 513.902344 156.335938 513.988281 161.664062 513.960938 166.96875 C 513.957031 168.46875 516.296875 168.480469 516.289062 166.984375 C 516.261719 161.679688 516.347656 156.351562 515.964844 151.054688 C 515.886719 149.976562 514.363281 149.957031 514.285156 151.042969 Z M 514.285156 151.042969 " fill-opacity="1" fill-rule="nonzero"/><path fill="#8295ae" d="M 502.765625 190.605469 C 502.765625 190.605469 541.132812 197.957031 553.328125 190.605469 L 556.003906 204.277344 C 548.984375 208.980469 507.675781 205.570312 506.582031 202.242188 C 505.492188 198.914062 502.765625 190.605469 502.765625 190.605469 Z M 502.765625 190.605469 " fill-opacity="1" fill-rule="nonzero"/><path fill="#113576" d="M 539.046875 207.503906 C 529.714844 207.503906 506.871094 206.070312 505.710938 202.527344 L 501.894531 190.890625 C 501.792969 190.582031 501.863281 190.242188 502.078125 189.996094 C 502.292969 189.75 502.621094 189.640625 502.941406 189.703125 C 503.109375 189.734375 520.082031 192.953125 534.796875 192.953125 C 543.328125 192.953125 549.402344 191.898438 552.855469 189.816406 C 553.109375 189.664062 553.429688 189.644531 553.699219 189.761719 C 553.976562 189.886719 554.171875 190.132812 554.230469 190.429688 L 556.910156 204.097656 C 556.980469 204.460938 556.824219 204.832031 556.515625 205.039062 C 553.476562 207.074219 545.339844 207.503906 539.046875 207.503906 Z M 504.121094 191.78125 L 507.453125 201.953125 C 508.605469 203.332031 523.566406 205.667969 539.046875 205.667969 C 546.835938 205.667969 552.550781 204.992188 554.976562 203.804688 L 552.664062 192 C 548.824219 193.851562 542.824219 194.789062 534.796875 194.789062 C 522.492188 194.789062 508.65625 192.570312 504.121094 191.78125 Z M 504.121094 191.78125 " fill-opacity="1" fill-rule="nonzero"/></svg>