<svg xmlns="http://www.w3.org/2000/svg" xmlns:xlink="http://www.w3.org/1999/xlink" width="1920" zoomAndPan="magnify" viewBox="0 0 1440 809.999993" height="1080" preserveAspectRatio="xMidYMid meet" version="1.0"><path fill="#4e63ab" d="M 652.53125 107.421875 C 625.683594 107.421875 620.859375 74.167969 624.808594 66.007812 C 624.808594 66.007812 619.550781 72.023438 612.542969 68.238281 C 626.558594 53.636719 623.351562 19.515625 651.683594 22.148438 C 657.234375 10.464844 668.625 1.117188 682.351562 2.871094 C 694.914062 4.332031 709.515625 9.589844 720.90625 1.703125 C 722.660156 3.746094 722.367188 7.25 720.617188 9.296875 C 735.511719 11.921875 747.777344 30.910156 749.53125 44.636719 C 751.578125 60.410156 742.8125 78.808594 729.378906 86.695312 C 726.75 88.445312 724.121094 90.78125 720.90625 91.660156 " fill-opacity="1" fill-rule="nonzero"/><path fill="#113576" d="M 652.53125 108.296875 C 639.867188 108.296875 632.695312 101.097656 628.910156 95.058594 C 623.238281 86.011719 621.894531 74.816406 623.121094 68.507812 C 620.75 70.035156 616.777344 71.523438 612.125 69.011719 C 611.882812 68.878906 611.71875 68.644531 611.675781 68.375 C 611.632812 68.105469 611.71875 67.828125 611.910156 67.632812 C 616.707031 62.632812 619.515625 55.070312 622.230469 47.753906 C 627.332031 34.015625 632.589844 19.808594 651.160156 21.222656 C 656.207031 11.023438 667.324219 0.0703125 682.464844 2 C 685.175781 2.316406 687.917969 2.792969 690.824219 3.304688 C 701.117188 5.105469 711.757812 6.96875 720.410156 0.980469 C 720.777344 0.722656 721.28125 0.789062 721.574219 1.132812 C 723.242188 3.074219 723.386719 6.277344 722.078125 8.703125 C 737.292969 12.339844 748.765625 31.707031 750.402344 44.523438 C 752.484375 60.597656 743.445312 79.453125 729.820312 87.449219 C 729.25 87.835938 728.636719 88.277344 728.011719 88.726562 C 725.914062 90.234375 723.742188 91.796875 721.140625 92.507812 C 720.671875 92.640625 720.191406 92.359375 720.0625 91.890625 C 719.9375 91.425781 720.210938 90.945312 720.679688 90.816406 C 722.976562 90.191406 725.015625 88.722656 726.992188 87.304688 C 727.628906 86.84375 728.261719 86.386719 728.894531 85.964844 C 742 78.273438 750.664062 60.179688 748.664062 44.75 C 747.050781 32.097656 735.539062 12.820312 720.464844 10.160156 C 720.15625 10.105469 719.898438 9.886719 719.792969 9.589844 C 719.683594 9.296875 719.746094 8.964844 719.949219 8.726562 C 721.316406 7.132812 721.585938 4.601562 720.679688 2.910156 C 711.585938 8.71875 700.882812 6.84375 690.519531 5.03125 C 687.640625 4.527344 684.925781 4.050781 682.253906 3.742188 C 667.734375 1.894531 657.144531 12.703125 652.476562 22.523438 C 652.320312 22.855469 651.976562 23.050781 651.605469 23.019531 C 633.894531 21.375 629.03125 34.488281 623.875 48.367188 C 621.25 55.4375 618.542969 62.734375 613.988281 67.957031 C 619.796875 70.304688 624.101562 65.484375 624.148438 65.433594 C 624.4375 65.101562 624.929688 65.035156 625.292969 65.277344 C 625.65625 65.519531 625.789062 65.996094 625.597656 66.390625 C 623.359375 71.011719 624.117188 84.117188 630.394531 94.128906 C 633.945312 99.792969 640.671875 106.546875 652.53125 106.546875 C 653.015625 106.546875 653.40625 106.9375 653.40625 107.421875 C 653.40625 107.902344 653.015625 108.296875 652.53125 108.296875 Z M 652.53125 108.296875 " fill-opacity="1" fill-rule="nonzero"/><path fill="#8295ae" d="M 690.644531 169.363281 C 651.746094 188.351562 662.125 306.003906 694.125 351.640625 C 726.125 397.273438 783.257812 323.105469 768.238281 314.324219 C 753.21875 305.539062 744.636719 276.457031 739.691406 243.660156 C 734.75 210.863281 729.542969 150.371094 690.644531 169.363281 Z M 690.644531 169.363281 " fill-opacity="1" fill-rule="nonzero"/><path fill="#113576" d="M 719.257812 367.242188 C 719.253906 367.242188 719.253906 367.242188 719.25 367.242188 C 709.132812 367.242188 700.4375 362.164062 693.410156 352.144531 C 669.566406 318.148438 657.691406 244.667969 668.96875 200.945312 C 673.273438 184.261719 680.4375 173.375 690.261719 168.578125 C 695.292969 166.117188 700.007812 164.875 704.277344 164.875 C 729.347656 164.875 735.167969 205.800781 739.421875 235.679688 C 739.8125 238.425781 740.183594 241.054688 740.558594 243.53125 C 746.4375 282.53125 755.898438 306.09375 768.679688 313.570312 C 770.671875 314.734375 772.675781 317.488281 770.910156 324.003906 C 766.792969 339.191406 742.722656 367.242188 719.257812 367.242188 Z M 704.277344 166.625 C 700.273438 166.625 695.820312 167.8125 691.03125 170.148438 C 681.816406 174.648438 674.777344 185.445312 670.667969 201.382812 C 659.488281 244.703125 671.238281 317.480469 694.84375 351.136719 C 701.523438 360.660156 709.734375 365.492188 719.253906 365.492188 C 741.933594 365.496094 765.226562 338.28125 769.21875 323.546875 C 770.03125 320.539062 770.445312 316.632812 767.796875 315.082031 C 754.535156 307.328125 744.789062 283.339844 738.824219 243.792969 C 738.449219 241.3125 738.074219 238.675781 737.6875 235.925781 C 733.523438 206.679688 727.828125 166.625 704.277344 166.625 Z M 704.277344 166.625 " fill-opacity="1" fill-rule="nonzero"/><path fill="#fed69f" d="M 725.597656 787.019531 C 735.03125 784.535156 743.878906 780.117188 751.761719 774.382812 C 754.3125 772.527344 756.777344 770.550781 759.167969 768.484375 C 749.5625 766.679688 741.761719 763.609375 742.019531 757.738281 C 742.605469 744.410156 743.761719 719.742188 743.761719 710.394531 L 704.332031 710.394531 C 704.332031 710.394531 698.601562 765.980469 697.800781 791.109375 C 706.96875 791.851562 717.003906 789.28125 725.597656 787.019531 Z M 725.597656 787.019531 " fill-opacity="1" fill-rule="nonzero"/><path fill="#113576" d="M 701.140625 792.113281 C 701.136719 792.113281 701.136719 792.113281 701.136719 792.113281 C 699.96875 792.113281 698.824219 792.070312 697.730469 791.980469 C 697.265625 791.941406 696.910156 791.546875 696.925781 791.078125 C 697.71875 766.207031 703.402344 710.859375 703.460938 710.304688 C 703.507812 709.859375 703.886719 709.519531 704.332031 709.519531 L 743.761719 709.519531 C 744.246094 709.519531 744.640625 709.910156 744.640625 710.394531 C 744.640625 718.613281 743.734375 738.957031 743.132812 752.417969 L 742.898438 757.773438 C 742.695312 762.289062 748.074219 765.511719 759.328125 767.625 C 759.65625 767.683594 759.925781 767.929688 760.011719 768.257812 C 760.097656 768.578125 759.992188 768.925781 759.738281 769.148438 C 757.261719 771.289062 754.753906 773.289062 752.277344 775.09375 C 743.972656 781.132812 735.074219 785.433594 725.816406 787.871094 C 718.636719 789.757812 709.691406 792.113281 701.140625 792.113281 Z M 698.703125 790.292969 C 699.496094 790.335938 700.3125 790.363281 701.136719 790.363281 C 709.464844 790.363281 718.285156 788.039062 725.371094 786.171875 C 734.414062 783.792969 743.121094 779.585938 751.246094 773.671875 C 753.226562 772.230469 755.226562 770.660156 757.21875 768.992188 C 746.175781 766.660156 740.914062 762.957031 741.144531 757.699219 L 741.382812 752.335938 C 741.960938 739.347656 742.824219 719.949219 742.882812 711.269531 L 705.121094 711.269531 C 704.433594 718.054688 699.535156 766.761719 698.703125 790.292969 Z M 698.703125 790.292969 " fill-opacity="1" fill-rule="nonzero"/><path fill="#8295ae" d="M 791.664062 772.3125 C 783.085938 770.171875 747.988281 770.898438 742.707031 760.738281 C 739.320312 762.195312 735.785156 763.285156 732.027344 763.800781 C 721.296875 765.273438 710.371094 764.191406 699.503906 763.371094 C 698.035156 782.207031 697.074219 799.566406 698.199219 802.691406 C 700.828125 809.992188 811.523438 799.183594 810.355469 788.671875 C 809.1875 778.15625 799.84375 774.652344 791.664062 772.3125 Z M 791.664062 772.3125 " fill-opacity="1" fill-rule="nonzero"/><path fill="#113576" d="M 714.25 805.957031 C 698.445312 805.953125 697.695312 803.875 697.375 802.988281 C 697 801.949219 695.867188 798.796875 698.632812 763.304688 C 698.667969 762.820312 699.046875 762.445312 699.570312 762.496094 L 702.542969 762.726562 C 708.410156 763.183594 714.476562 763.652344 720.398438 763.652344 C 724.609375 763.652344 728.375 763.417969 731.90625 762.9375 C 735.332031 762.46875 738.75 761.484375 742.359375 759.9375 C 742.78125 759.753906 743.269531 759.929688 743.480469 760.335938 C 747.082031 767.257812 766.734375 768.925781 779.738281 770.03125 C 784.941406 770.476562 789.433594 770.855469 791.875 771.46875 C 801.246094 774.144531 810.054688 778.0625 811.226562 788.574219 C 811.3125 789.347656 811.027344 790.101562 810.382812 790.824219 C 803.109375 798.949219 741.449219 805.957031 714.25 805.957031 Z M 700.3125 764.3125 C 698.121094 792.628906 698.402344 800.660156 699.023438 802.394531 C 699.054688 802.464844 699.972656 804.203125 714.25 804.203125 C 743.574219 804.203125 802.621094 796.867188 809.082031 789.652344 C 809.378906 789.320312 809.515625 789.023438 809.488281 788.769531 C 808.378906 778.808594 799.585938 775.488281 791.421875 773.160156 C 789.152344 772.589844 784.722656 772.214844 779.59375 771.78125 C 765.839844 770.613281 747.164062 769.023438 742.34375 761.84375 C 738.847656 763.285156 735.503906 764.210938 732.148438 764.671875 C 728.535156 765.167969 724.695312 765.40625 720.398438 765.40625 C 714.410156 765.40625 708.308594 764.933594 702.410156 764.476562 Z M 700.3125 764.3125 " fill-opacity="1" fill-rule="nonzero"/><path fill="#4e63ab" d="M 791.664062 772.3125 C 785.570312 770.789062 766.105469 770.714844 753.4375 767.15625 C 753.152344 764.828125 753.402344 762.242188 753.402344 760.046875 C 753.402344 756.800781 755.207031 750.097656 750.921875 748.902344 C 745.804688 747.472656 741.21875 757.433594 739.121094 760.804688 C 733.449219 769.917969 727.160156 778.042969 716.378906 781.136719 C 715 781.53125 698.011719 785.898438 698.078125 784.632812 C 697.601562 793.90625 697.53125 800.828125 698.199219 802.691406 C 700.828125 809.992188 811.527344 799.183594 810.359375 788.671875 C 809.1875 778.15625 799.84375 774.652344 791.664062 772.3125 Z M 791.664062 772.3125 " fill-opacity="1" fill-rule="nonzero"/><path fill="#113576" d="M 714.25 805.957031 C 714.246094 805.957031 714.25 805.957031 714.25 805.957031 C 698.445312 805.953125 697.695312 803.875 697.375 802.988281 C 697.132812 802.316406 696.394531 800.269531 697.203125 784.589844 C 697.203125 784.59375 697.203125 784.589844 697.203125 784.589844 C 697.226562 784.109375 697.574219 783.738281 698.125 783.761719 C 698.335938 783.773438 698.523438 783.855469 698.667969 783.988281 C 698.703125 783.988281 698.746094 783.988281 698.796875 783.988281 C 701.847656 783.988281 714.648438 780.726562 716.136719 780.296875 C 726.058594 777.449219 732.207031 770.261719 738.375 760.34375 C 738.6875 759.84375 739.058594 759.1875 739.476562 758.449219 C 741.859375 754.246094 745.457031 747.890625 749.910156 747.890625 C 750.328125 747.890625 750.75 747.949219 751.15625 748.0625 C 755.25 749.207031 754.78125 754.128906 754.4375 757.722656 C 754.355469 758.589844 754.277344 759.394531 754.277344 760.050781 C 754.277344 760.738281 754.253906 761.464844 754.226562 762.207031 C 754.179688 763.632812 754.132812 765.097656 754.25 766.476562 C 761.839844 768.511719 771.746094 769.351562 779.742188 770.035156 C 784.945312 770.476562 789.4375 770.859375 791.875 771.46875 C 801.246094 774.144531 810.058594 778.0625 811.226562 788.578125 C 811.3125 789.347656 811.027344 790.101562 810.382812 790.824219 C 803.109375 798.949219 741.449219 805.957031 714.25 805.957031 Z M 698.898438 785.738281 C 698.320312 797.570312 698.644531 801.335938 699.023438 802.394531 C 699.054688 802.464844 699.972656 804.203125 714.25 804.203125 C 743.574219 804.203125 802.621094 796.867188 809.082031 789.652344 C 809.378906 789.320312 809.515625 789.023438 809.488281 788.769531 C 808.378906 778.808594 799.585938 775.488281 791.421875 773.160156 C 789.152344 772.589844 784.722656 772.214844 779.59375 771.777344 C 771.320312 771.074219 761.023438 770.199219 753.207031 768.003906 C 752.863281 767.90625 752.613281 767.617188 752.574219 767.265625 C 752.367188 765.589844 752.425781 763.839844 752.480469 762.148438 C 752.503906 761.425781 752.53125 760.71875 752.53125 760.046875 C 752.53125 759.328125 752.613281 758.464844 752.699219 757.554688 C 753.0625 753.691406 753.167969 750.4375 750.6875 749.746094 C 747.09375 748.742188 743.210938 755.417969 741.007812 759.3125 C 740.574219 760.074219 740.191406 760.75 739.867188 761.269531 C 734.71875 769.539062 728.253906 778.644531 716.621094 781.980469 C 715.613281 782.269531 702.519531 785.671875 698.898438 785.738281 Z M 698.898438 785.738281 " fill-opacity="1" fill-rule="nonzero"/><path fill="#fed69f" d="M 566.058594 745.375 C 571.265625 733.097656 587.9375 714.261719 592.957031 706.378906 L 559.699219 685.195312 C 559.699219 685.195312 523.585938 730.804688 510.007812 751 C 518.4375 754.5 558.585938 762.992188 566.058594 745.375 Z M 566.058594 745.375 " fill-opacity="1" fill-rule="nonzero"/><path fill="#113576" d="M 540.730469 757.019531 C 540.730469 757.019531 540.730469 757.019531 540.726562 757.019531 C 527.648438 757.015625 514.046875 753.625 509.667969 751.808594 C 509.429688 751.707031 509.242188 751.5 509.167969 751.25 C 509.089844 751 509.132812 750.726562 509.277344 750.507812 C 522.71875 730.519531 558.652344 685.109375 559.011719 684.652344 C 559.289062 684.300781 559.789062 684.21875 560.167969 684.457031 L 593.425781 705.636719 C 593.835938 705.898438 593.957031 706.441406 593.695312 706.847656 C 592.003906 709.507812 589.039062 713.34375 585.609375 717.789062 C 578.785156 726.628906 570.292969 737.628906 566.863281 745.714844 C 563.730469 753.109375 554.691406 757.019531 540.730469 757.019531 Z M 511.351562 750.574219 C 516.4375 752.398438 528.78125 755.265625 540.730469 755.265625 C 540.730469 755.265625 540.730469 755.265625 540.734375 755.265625 C 549.941406 755.265625 561.667969 753.488281 565.253906 745.03125 C 568.769531 736.738281 577.339844 725.636719 584.226562 716.714844 C 587.324219 712.707031 590.035156 709.195312 591.742188 706.640625 L 559.894531 686.363281 C 555.597656 691.808594 524.304688 731.53125 511.351562 750.574219 Z M 511.351562 750.574219 " fill-opacity="1" fill-rule="nonzero"/><path fill="#4e63ab" d="M 530.472656 705.007812 C 528.859375 706.324219 519.527344 719.140625 527.039062 723.960938 C 534.554688 728.78125 563.910156 740.648438 571.796875 738.382812 C 579.679688 736.117188 581.433594 724.285156 581.433594 724.285156 " fill-opacity="1" fill-rule="nonzero"/><path fill="#113576" d="M 569.328125 739.539062 C 558.464844 739.539062 533.011719 728.832031 526.566406 724.699219 C 524.535156 723.394531 523.433594 721.476562 523.289062 718.996094 C 522.949219 712.992188 528.507812 705.480469 529.917969 704.328125 C 530.289062 704.019531 530.84375 704.078125 531.148438 704.453125 C 531.453125 704.828125 531.398438 705.382812 531.023438 705.6875 C 529.9375 706.574219 524.738281 713.609375 525.039062 718.898438 C 525.148438 720.8125 525.957031 722.226562 527.511719 723.222656 C 534.992188 728.019531 564.191406 739.65625 571.550781 737.539062 C 578.8125 735.453125 580.550781 724.269531 580.566406 724.15625 C 580.636719 723.675781 581.085938 723.359375 581.5625 723.417969 C 582.039062 723.488281 582.371094 723.933594 582.300781 724.414062 C 582.226562 724.917969 580.371094 736.828125 572.035156 739.222656 C 571.292969 739.4375 570.378906 739.539062 569.328125 739.539062 Z M 569.328125 739.539062 " fill-opacity="1" fill-rule="nonzero"/><path fill="#4e63ab" d="M 693.546875 737.320312 C 692.570312 739.15625 688.929688 754.589844 697.722656 756.121094 C 706.519531 757.652344 738.175781 757.226562 744.566406 752.078125 C 750.957031 746.933594 747.992188 735.351562 747.992188 735.351562 " fill-opacity="1" fill-rule="nonzero"/><path fill="#113576" d="M 711.742188 757.761719 C 705.589844 757.761719 700.285156 757.457031 697.574219 756.984375 C 695.195312 756.570312 693.4375 755.230469 692.34375 753 C 689.703125 747.601562 691.914062 738.519531 692.773438 736.910156 C 693 736.480469 693.535156 736.316406 693.957031 736.546875 C 694.382812 736.773438 694.546875 737.304688 694.320312 737.730469 C 693.660156 738.972656 691.59375 747.476562 693.917969 752.230469 C 694.757812 753.949219 696.050781 754.941406 697.871094 755.257812 C 706.621094 756.785156 738.042969 756.203125 744.015625 751.398438 C 749.898438 746.660156 747.171875 735.675781 747.140625 735.566406 C 747.023438 735.097656 747.304688 734.621094 747.773438 734.5 C 748.246094 734.382812 748.71875 734.664062 748.839844 735.132812 C 748.964844 735.628906 751.867188 747.324219 745.113281 752.761719 C 740.492188 756.484375 724.34375 757.761719 711.742188 757.761719 Z M 711.742188 757.761719 " fill-opacity="1" fill-rule="nonzero"/><path fill="#8295ae" d="M 525.191406 729.933594 C 519.234375 737.894531 513.757812 745.417969 510.007812 751 C 517.417969 754.074219 549.320312 761.003906 562.015625 750.675781 C 548.5625 746.847656 536.246094 738.832031 525.191406 729.933594 Z M 525.191406 729.933594 " fill-opacity="1" fill-rule="nonzero"/><path fill="#113576" d="M 540.714844 757.011719 C 540.710938 757.011719 540.710938 757.011719 540.710938 757.011719 C 527.636719 757.011719 514.042969 753.625 509.671875 751.808594 C 509.429688 751.707031 509.246094 751.5 509.167969 751.25 C 509.09375 751 509.132812 750.726562 509.28125 750.507812 C 512.675781 745.460938 517.792969 738.363281 524.488281 729.410156 C 524.628906 729.21875 524.84375 729.09375 525.082031 729.0625 C 525.320312 729.042969 525.554688 729.101562 525.738281 729.25 C 539.097656 740.003906 550.699219 746.546875 562.253906 749.832031 C 562.566406 749.921875 562.804688 750.179688 562.871094 750.5 C 562.9375 750.820312 562.820312 751.148438 562.566406 751.355469 C 557.949219 755.109375 550.597656 757.011719 540.714844 757.011719 Z M 511.351562 750.574219 C 516.433594 752.398438 528.765625 755.261719 540.710938 755.261719 C 549.222656 755.261719 555.71875 753.832031 560.066406 751.007812 C 549.050781 747.574219 537.949219 741.230469 525.351562 731.179688 C 519.324219 739.253906 514.621094 745.765625 511.351562 750.574219 Z M 511.351562 750.574219 " fill-opacity="1" fill-rule="nonzero"/><path fill="#4e63ab" d="M 604.734375 773.484375 C 590.890625 768.808594 579.402344 769.257812 570.628906 759.453125 C 571.636719 757.335938 573.238281 755.285156 574.417969 753.4375 C 576.160156 750.699219 581.28125 746.015625 578.3125 742.703125 C 574.761719 738.75 565.550781 744.6875 561.964844 746.40625 C 552.285156 751.042969 542.617188 754.519531 531.863281 751.339844 C 530.484375 750.929688 513.8125 745.488281 514.546875 744.457031 C 509.164062 752.023438 505.386719 757.820312 504.953125 759.753906 C 504.027344 763.847656 532.613281 780.453125 559.792969 793.335938 C 582.875 804.277344 613.597656 801.210938 615.738281 796.851562 C 620.398438 787.351562 618.578125 778.15625 604.734375 773.484375 Z M 604.734375 773.484375 " fill-opacity="1" fill-rule="nonzero"/><path fill="#113576" d="M 596.089844 801.707031 C 588.367188 801.707031 573.328125 800.722656 559.417969 794.128906 C 544.625 787.117188 502.707031 765.714844 504.09375 759.5625 C 504.253906 758.863281 504.730469 756.742188 513.832031 743.949219 C 514.109375 743.554688 514.660156 743.464844 515.054688 743.746094 C 515.226562 743.867188 515.34375 744.046875 515.394531 744.238281 C 517.132812 745.546875 529.605469 749.757812 532.109375 750.5 C 534.824219 751.300781 537.507812 751.691406 540.316406 751.691406 C 547.871094 751.691406 555.003906 748.769531 561.585938 745.617188 C 562.121094 745.359375 562.78125 745.007812 563.53125 744.609375 C 566.613281 742.96875 571.273438 740.496094 574.90625 740.496094 C 576.628906 740.496094 577.996094 741.042969 578.960938 742.121094 C 581.800781 745.28125 578.761719 749.183594 576.542969 752.03125 C 576.007812 752.71875 575.511719 753.355469 575.15625 753.910156 C 574.785156 754.488281 574.378906 755.085938 573.957031 755.703125 C 573.152344 756.878906 572.324219 758.085938 571.683594 759.308594 C 577.621094 765.664062 584.914062 767.417969 593.332031 769.441406 C 597.050781 770.339844 600.902344 771.265625 605.015625 772.652344 C 611.699219 774.90625 616.03125 778.324219 617.894531 782.800781 C 619.609375 786.921875 619.132812 791.914062 616.519531 797.234375 C 615.011719 800.308594 604.871094 801.707031 596.089844 801.707031 Z M 514.6875 745.773438 C 507.808594 755.484375 506.054688 758.847656 505.804688 759.949219 C 505.335938 762.882812 528.976562 777.761719 560.167969 792.546875 C 573.769531 798.992188 588.511719 799.957031 596.089844 799.957031 C 607.277344 799.957031 614.230469 797.929688 614.949219 796.464844 C 617.367188 791.535156 617.816406 787.164062 616.277344 783.476562 C 614.613281 779.480469 610.640625 776.398438 604.457031 774.3125 C 600.414062 772.949219 596.605469 772.03125 592.921875 771.144531 C 584.03125 769.007812 576.347656 767.15625 569.976562 760.039062 C 569.742188 759.773438 569.6875 759.394531 569.839844 759.074219 C 570.566406 757.550781 571.554688 756.105469 572.511719 754.710938 C 572.921875 754.113281 573.320312 753.527344 573.679688 752.964844 C 574.066406 752.355469 574.597656 751.671875 575.164062 750.949219 C 577.546875 747.890625 579.378906 745.203125 577.660156 743.285156 C 577.03125 742.585938 576.128906 742.242188 574.910156 742.242188 C 571.714844 742.242188 567.285156 744.59375 564.355469 746.152344 C 563.582031 746.5625 562.898438 746.925781 562.347656 747.191406 C 555.574219 750.4375 548.222656 753.441406 540.320312 753.441406 C 537.378906 753.441406 534.453125 753.015625 531.613281 752.175781 C 531.460938 752.132812 518.445312 748.125 514.6875 745.773438 Z M 514.6875 745.773438 " fill-opacity="1" fill-rule="nonzero"/><path fill="#113576" d="M 523.609375 743.914062 C 523.425781 743.914062 523.238281 743.855469 523.078125 743.734375 C 522.695312 743.441406 522.621094 742.890625 522.914062 742.503906 L 529.773438 733.5 C 530.066406 733.117188 530.617188 733.042969 531.003906 733.335938 C 531.386719 733.628906 531.460938 734.179688 531.167969 734.5625 L 524.308594 743.566406 C 524.136719 743.792969 523.875 743.914062 523.609375 743.914062 Z M 523.609375 743.914062 " fill-opacity="1" fill-rule="nonzero"/><path fill="#113576" d="M 531.714844 747.34375 C 531.554688 747.34375 531.386719 747.296875 531.242188 747.203125 C 530.835938 746.941406 530.71875 746.398438 530.980469 745.992188 L 536.105469 738.058594 C 536.367188 737.652344 536.910156 737.535156 537.316406 737.796875 C 537.71875 738.058594 537.835938 738.601562 537.574219 739.007812 L 532.453125 746.941406 C 532.285156 747.203125 532.003906 747.34375 531.714844 747.34375 Z M 531.714844 747.34375 " fill-opacity="1" fill-rule="nonzero"/><path fill="#113576" d="M 542.449219 749.640625 C 542.324219 749.640625 542.195312 749.613281 542.074219 749.554688 C 541.636719 749.347656 541.453125 748.824219 541.660156 748.386719 L 544.164062 743.109375 C 544.371094 742.671875 544.894531 742.484375 545.332031 742.691406 C 545.769531 742.902344 545.957031 743.421875 545.746094 743.859375 L 543.242188 749.140625 C 543.09375 749.453125 542.777344 749.640625 542.449219 749.640625 Z M 542.449219 749.640625 " fill-opacity="1" fill-rule="nonzero"/><path fill="#113576" d="M 706.523438 777.796875 C 706.039062 777.796875 705.648438 777.402344 705.648438 776.917969 L 705.683594 763.910156 C 705.6875 763.425781 706.078125 763.035156 706.5625 763.035156 C 707.046875 763.035156 707.4375 763.429688 707.4375 763.914062 L 707.398438 776.925781 C 707.398438 777.40625 707.007812 777.796875 706.523438 777.796875 Z M 706.523438 777.796875 " fill-opacity="1" fill-rule="nonzero"/><path fill="#113576" d="M 720.324219 776.039062 C 719.871094 776.039062 719.488281 775.691406 719.453125 775.234375 L 718.578125 764.59375 C 718.539062 764.113281 718.894531 763.691406 719.378906 763.648438 C 719.84375 763.605469 720.28125 763.96875 720.324219 764.449219 L 721.195312 775.089844 C 721.234375 775.574219 720.878906 775.996094 720.398438 776.035156 C 720.371094 776.039062 720.347656 776.039062 720.324219 776.039062 Z M 720.324219 776.039062 " fill-opacity="1" fill-rule="nonzero"/><path fill="#113576" d="M 727.332031 770.71875 C 726.910156 770.71875 726.539062 770.414062 726.46875 769.984375 L 725.59375 764.664062 C 725.515625 764.1875 725.835938 763.738281 726.316406 763.660156 C 726.789062 763.574219 727.242188 763.902344 727.324219 764.382812 L 728.199219 769.703125 C 728.277344 770.179688 727.953125 770.628906 727.476562 770.707031 C 727.429688 770.714844 727.378906 770.71875 727.332031 770.71875 Z M 727.332031 770.71875 " fill-opacity="1" fill-rule="nonzero"/><path fill="#4e63ab" d="M 608.054688 140.785156 C 608.054688 140.785156 616.324219 140.296875 622.511719 140.171875 C 622.546875 140.15625 622.582031 140.15625 622.617188 140.171875 C 624.84375 140.242188 626.925781 140.347656 628.835938 140.46875 C 644.660156 149.917969 638.511719 204.015625 643.976562 215.054688 C 649.480469 226.148438 694.34375 227.898438 701.125 222.0625 C 707.910156 216.210938 705.085938 159.765625 705.085938 159.765625 C 715.289062 167.898438 719.230469 179.707031 719.230469 191.398438 C 720.28125 210.515625 720.335938 377.894531 732.742188 422.421875 C 745.167969 466.972656 760.378906 537.804688 764.199219 554.382812 C 769.703125 578.390625 771.558594 722.144531 763.601562 734.027344 C 755.648438 745.910156 685.339844 762.242188 683.078125 731.730469 C 680.816406 701.222656 687.371094 598.351562 684.828125 579.109375 C 682.289062 559.851562 665.429688 481.304688 656.71875 481.988281 C 648.027344 482.671875 651.5 551.507812 650.34375 562.898438 C 647.886719 587.398438 614.734375 722.09375 597.136719 730.769531 C 579.542969 739.460938 521.414062 719.902344 519.066406 703.113281 C 516.734375 686.324219 563.296875 595.53125 562.015625 559.113281 C 562.472656 539.664062 556.707031 445.625 552.800781 414.238281 C 542.441406 331.296875 576.789062 158.695312 587.742188 149.164062 C 593.488281 144.152344 600.78125 141.800781 608.054688 140.785156 Z M 608.054688 140.785156 " fill-opacity="1" fill-rule="nonzero"/><path fill="#8295ae" d="M 705.085938 159.765625 C 705.085938 159.765625 707.910156 216.210938 701.125 222.0625 C 694.34375 227.898438 649.480469 226.148438 643.976562 215.054688 C 638.511719 204.015625 644.660156 149.917969 628.835938 140.46875 C 633.65625 140.769531 638.492188 140.398438 638.492188 140.398438 C 638.492188 140.398438 643.804688 130.847656 646.992188 126.609375 C 680.484375 122.175781 688.699219 128.847656 693.605469 135.789062 C 697.898438 141.859375 700.09375 150.679688 699.214844 155.503906 C 699.898438 156.46875 703.808594 158.75 705.085938 159.765625 Z M 705.085938 159.765625 " fill-opacity="1" fill-rule="nonzero"/><path fill="#e5936a" d="M 628.503906 140.277344 C 628.609375 140.347656 628.730469 140.398438 628.839844 140.46875 C 626.929688 140.347656 624.84375 140.242188 622.617188 140.171875 C 625.210938 140.105469 627.4375 140.121094 628.503906 140.277344 Z M 628.503906 140.277344 " fill-opacity="1" fill-rule="nonzero"/><path fill="#8295ae" d="M 608.054688 140.785156 C 613.046875 140.085938 618.042969 140.03125 622.511719 140.171875 C 616.324219 140.296875 608.054688 140.785156 608.054688 140.785156 Z M 608.054688 140.785156 " fill-opacity="1" fill-rule="nonzero"/><path fill="#113576" d="M 712.941406 750.089844 C 707.683594 750.089844 702.675781 749.582031 698.277344 748.421875 C 688.375 745.808594 682.816406 740.058594 682.203125 731.796875 C 681.058594 716.394531 682.148438 682.910156 683.203125 650.527344 C 684.238281 618.738281 685.210938 588.710938 683.960938 579.226562 C 680.660156 554.226562 663.949219 482.859375 656.867188 482.859375 C 656.839844 482.859375 656.816406 482.859375 656.789062 482.863281 C 651.257812 483.296875 651.402344 523.96875 651.472656 543.515625 C 651.503906 552.648438 651.53125 559.859375 651.210938 562.988281 C 648.738281 587.671875 615.871094 722.507812 597.523438 731.554688 C 585.183594 737.652344 555.140625 730.5625 535.894531 720.382812 C 528.359375 716.394531 519.167969 710.183594 518.195312 703.238281 C 517.160156 695.773438 525.3125 674.601562 534.75 650.089844 C 546.828125 618.722656 561.863281 579.679688 561.140625 559.144531 C 561.585938 540.128906 555.875 446.050781 551.929688 414.347656 C 541.40625 330.082031 575.921875 158.289062 587.167969 148.5 C 592.390625 143.949219 599.183594 141.140625 607.933594 139.917969 C 612.222656 139.316406 616.863281 139.121094 622.539062 139.296875 C 622.566406 139.296875 622.589844 139.296875 622.617188 139.296875 C 622.625 139.296875 622.636719 139.296875 622.644531 139.296875 C 624.882812 139.367188 626.976562 139.472656 628.894531 139.597656 L 629.929688 139.660156 C 633.539062 139.886719 636.6875 140.082031 637.878906 139.707031 C 638.78125 138.09375 643.367188 129.972656 646.296875 126.082031 C 646.4375 125.894531 646.648438 125.769531 646.878906 125.738281 C 679.445312 121.429688 689.476562 128.808594 694.980469 136.597656 C 698.964844 142.230469 699.90625 152.75 700.066406 155.03125 C 701.164062 155.808594 704.546875 158.210938 705.636719 159.078125 C 714.96875 166.519531 720.105469 177.996094 720.105469 191.394531 C 720.316406 195.167969 720.484375 204.851562 720.722656 218.257812 C 721.679688 272.90625 723.675781 386.625 733.585938 422.1875 C 743.730469 458.558594 755.535156 511.554688 761.875 540.027344 C 763.261719 546.25 764.351562 551.136719 765.054688 554.1875 C 770.1875 576.601562 772.933594 721.671875 764.332031 734.515625 C 759.484375 741.757812 734.207031 750.089844 712.941406 750.089844 Z M 656.796875 481.109375 C 667.023438 481.109375 683.65625 563.523438 685.695312 578.996094 C 686.96875 588.625 685.988281 618.722656 684.953125 650.585938 C 683.902344 682.921875 682.816406 716.359375 683.949219 731.667969 C 684.511719 739.21875 689.480469 744.289062 698.722656 746.726562 C 719.878906 752.308594 757.207031 742 762.875 733.542969 C 770.269531 722.496094 769.097656 579.695312 763.34375 554.582031 C 762.640625 551.527344 761.550781 546.636719 760.164062 540.410156 C 753.824219 511.953125 742.027344 458.984375 731.894531 422.660156 C 721.925781 386.878906 719.925781 273.011719 718.964844 218.289062 C 718.730469 204.902344 718.5625 195.234375 718.355469 191.445312 C 718.351562 182.304688 715.957031 169.550781 704.542969 160.449219 C 703.300781 159.464844 698.757812 156.253906 698.710938 156.21875 C 698.492188 156.066406 698.355469 155.820312 698.34375 155.550781 C 698.335938 155.433594 697.644531 143.402344 693.546875 137.609375 C 688.363281 130.277344 678.828125 123.34375 647.472656 127.429688 C 644.335938 131.710938 639.308594 140.734375 639.261719 140.828125 C 639.175781 140.980469 639.046875 141.105469 638.886719 141.183594 C 637.492188 141.890625 634.4375 141.699219 629.816406 141.414062 L 628.78125 141.347656 C 626.878906 141.226562 624.804688 141.121094 622.585938 141.050781 C 622.5625 141.050781 622.535156 141.054688 622.511719 141.054688 C 622.5 141.054688 622.492188 141.054688 622.480469 141.050781 C 616.910156 140.878906 612.363281 141.070312 608.171875 141.65625 C 599.769531 142.832031 593.273438 145.503906 588.316406 149.828125 C 577.425781 159.304688 543.554688 333.15625 553.667969 414.136719 C 557.621094 445.886719 563.335938 540.136719 562.890625 559.140625 C 563.625 579.980469 549.152344 617.5625 536.382812 650.722656 C 527.03125 675.007812 518.957031 695.984375 519.929688 702.996094 C 520.609375 707.84375 526.570312 713.46875 536.714844 718.835938 C 555.546875 728.796875 585.21875 735.683594 596.746094 729.988281 C 613.789062 721.582031 646.84375 588.992188 649.46875 562.816406 C 649.773438 559.777344 649.75 552.605469 649.71875 543.523438 C 649.597656 509.6875 650.035156 481.640625 656.648438 481.117188 C 656.699219 481.113281 656.746094 481.109375 656.796875 481.109375 Z M 656.796875 481.109375 " fill-opacity="1" fill-rule="nonzero"/><path fill="#113576" d="M 556.898438 293.441406 C 556.53125 293.441406 556.1875 293.210938 556.066406 292.84375 C 555.914062 292.382812 556.164062 291.886719 556.621094 291.734375 C 557.140625 291.5625 608.648438 274.347656 615.414062 261.949219 C 621.847656 250.144531 631.9375 158.398438 607.550781 141.507812 C 607.246094 141.292969 607.105469 140.910156 607.207031 140.550781 C 607.308594 140.1875 607.625 139.933594 608 139.910156 C 608.082031 139.90625 616.359375 139.417969 622.492188 139.296875 C 622.523438 139.296875 622.558594 139.296875 622.589844 139.296875 C 624.617188 139.242188 627.3125 139.214844 628.632812 139.410156 C 628.761719 139.429688 628.882812 139.476562 628.992188 139.550781 C 629.167969 139.648438 629.246094 139.691406 629.324219 139.746094 C 639.785156 145.988281 640.953125 170.542969 641.890625 190.273438 C 642.414062 201.304688 642.867188 210.835938 644.761719 214.667969 C 646.367188 217.90625 652.152344 220.679688 661.054688 222.484375 C 676.097656 225.53125 696.398438 224.976562 700.550781 221.402344 C 705.847656 216.832031 704.988281 175.390625 704.210938 159.808594 C 704.1875 159.328125 704.558594 158.917969 705.039062 158.890625 C 705.5625 158.867188 705.9375 159.238281 705.960938 159.722656 C 706.25 165.542969 708.601562 216.769531 701.695312 222.730469 C 696.742188 226.992188 675.015625 227.101562 660.707031 224.203125 C 654.027344 222.847656 645.566406 220.230469 643.191406 215.445312 C 641.132812 211.285156 640.671875 201.585938 640.136719 190.355469 C 639.21875 171.042969 638.082031 147.011719 628.386719 141.222656 C 628.3125 141.183594 628.253906 141.152344 628.207031 141.125 C 627.214844 141.003906 625.253906 140.976562 622.636719 141.050781 C 622.609375 141.050781 622.585938 141.046875 622.558594 141.046875 C 622.550781 141.050781 622.539062 141.050781 622.523438 141.050781 C 618.402344 141.128906 613.304688 141.378906 610.402344 141.535156 C 633.789062 162.472656 623.4375 250.886719 616.949219 262.792969 C 609.855469 275.792969 559.320312 292.6875 557.171875 293.402344 C 557.082031 293.429688 556.992188 293.441406 556.898438 293.441406 Z M 556.898438 293.441406 " fill-opacity="1" fill-rule="nonzero"/><path fill="#113576" d="M 644.75 483.816406 C 644.40625 483.816406 644.078125 483.613281 643.941406 483.277344 C 643.753906 482.832031 643.964844 482.316406 644.410156 482.128906 C 650.949219 479.402344 659.046875 479.761719 665.558594 480.054688 C 668.074219 480.164062 670.453125 480.269531 672.335938 480.171875 C 672.828125 480.144531 673.234375 480.515625 673.257812 481 C 673.285156 481.484375 672.910156 481.894531 672.429688 481.921875 C 670.460938 482.023438 668.042969 481.914062 665.484375 481.804688 C 659.152344 481.519531 651.265625 481.171875 645.085938 483.746094 C 644.976562 483.796875 644.863281 483.816406 644.75 483.816406 Z M 644.75 483.816406 " fill-opacity="1" fill-rule="nonzero"/><path fill="#113576" d="M 627.878906 590.058594 C 627.554688 590.058594 627.246094 589.878906 627.089844 589.566406 L 617.25 569.414062 C 617.039062 568.976562 617.21875 568.453125 617.652344 568.242188 C 618.085938 568.027344 618.613281 568.210938 618.824219 568.644531 L 628.664062 588.796875 C 628.878906 589.234375 628.695312 589.757812 628.261719 589.972656 C 628.140625 590.03125 628.007812 590.058594 627.878906 590.058594 Z M 627.878906 590.058594 " fill-opacity="1" fill-rule="nonzero"/><path fill="#113576" d="M 755.574219 590.058594 C 755.25 590.058594 754.9375 589.878906 754.785156 589.566406 L 744.945312 569.414062 C 744.730469 568.976562 744.910156 568.453125 745.347656 568.242188 C 745.78125 568.03125 746.304688 568.207031 746.519531 568.644531 L 756.359375 588.796875 C 756.574219 589.234375 756.390625 589.757812 755.957031 589.972656 C 755.832031 590.03125 755.703125 590.058594 755.574219 590.058594 Z M 755.574219 590.058594 " fill-opacity="1" fill-rule="nonzero"/><path fill="#fed69f" d="M 676.371094 157.285156 C 680.585938 159.9375 686.632812 157.113281 689.082031 155.210938 C 691.53125 153.3125 691.242188 149.644531 692.464844 146.121094 C 695.28125 137.992188 699.21875 131.347656 699.21875 131.347656 L 658.390625 102.761719 C 658.390625 113.109375 657.914062 125.683594 653.527344 135.855469 C 656.425781 139.402344 672.15625 154.632812 676.371094 157.285156 Z M 676.371094 157.285156 " fill-opacity="1" fill-rule="nonzero"/><path fill="#113576" d="M 680.394531 159.246094 C 678.699219 159.246094 677.1875 158.835938 675.902344 158.027344 C 671.554688 155.292969 655.640625 139.828125 652.847656 136.410156 C 652.640625 136.15625 652.589844 135.808594 652.71875 135.507812 C 656.941406 125.722656 657.511719 113.460938 657.511719 102.757812 C 657.511719 102.429688 657.695312 102.132812 657.984375 101.980469 C 658.273438 101.828125 658.621094 101.851562 658.890625 102.039062 L 699.71875 130.628906 C 700.09375 130.890625 700.203125 131.398438 699.96875 131.792969 C 699.929688 131.859375 696.042969 138.460938 693.289062 146.40625 C 692.902344 147.519531 692.671875 148.671875 692.449219 149.78125 C 691.964844 152.175781 691.511719 154.433594 689.617188 155.902344 C 688.019531 157.144531 684.277344 159.246094 680.394531 159.246094 Z M 654.542969 135.699219 C 658.046875 139.726562 672.734375 153.964844 676.835938 156.546875 C 677.835938 157.175781 679.035156 157.492188 680.394531 157.492188 C 683.359375 157.492188 686.695312 155.953125 688.542969 154.519531 C 689.921875 153.449219 690.292969 151.589844 690.730469 149.4375 C 690.964844 148.265625 691.210938 147.058594 691.632812 145.832031 C 693.917969 139.234375 696.972656 133.542969 698.058594 131.605469 L 659.261719 104.4375 C 659.195312 114.726562 658.480469 126.230469 654.542969 135.699219 Z M 654.542969 135.699219 " fill-opacity="1" fill-rule="nonzero"/><path fill="#113576" d="M 659.65625 103.648438 C 663 116.328125 665.175781 129.6875 672.851562 140.523438 C 675.808594 144.695312 679.855469 149.878906 684.988281 151.421875 C 687.507812 152.179688 689.515625 151.652344 691.125 150.433594 C 693.804688 140.480469 699.214844 131.347656 699.214844 131.347656 Z M 659.65625 103.648438 " fill-opacity="1" fill-rule="nonzero"/><path fill="#fed69f" d="M 740.421875 95.03125 C 739.382812 92.914062 738.652344 90.828125 738.15625 88.757812 C 735.253906 76.597656 740.496094 65.082031 738.6875 52.300781 C 736.074219 33.789062 712.675781 27.429688 692.335938 29.433594 C 663.328125 32.292969 652.949219 53.929688 652.519531 76.632812 C 652.472656 79.082031 652.574219 81.554688 652.796875 84.03125 C 647.402344 81.390625 641.554688 80.808594 639.617188 88.15625 C 636.085938 101.546875 644.265625 102.125 647.636719 107.539062 C 650.828125 112.667969 656.582031 114.867188 662.363281 114.714844 C 666.40625 121.914062 671.597656 128.433594 677.792969 133.710938 C 696.648438 149.769531 737.050781 153.359375 744.992188 120.816406 C 747.457031 110.703125 744.738281 103.796875 740.421875 95.03125 Z M 740.421875 95.03125 " fill-opacity="1" fill-rule="nonzero"/><path fill="#113576" d="M 711.496094 146.535156 C 711.496094 146.535156 711.496094 146.535156 711.492188 146.535156 C 699.160156 146.53125 686.027344 141.875 677.226562 134.375 C 671.214844 129.257812 666.046875 122.941406 661.859375 115.59375 L 661.800781 115.597656 C 655.332031 115.597656 649.898438 112.828125 646.894531 108 C 646.015625 106.589844 644.765625 105.519531 643.441406 104.382812 C 639.996094 101.429688 636.089844 98.082031 638.769531 87.929688 C 640.207031 82.488281 643.652344 81.351562 646.292969 81.351562 C 647.929688 81.351562 649.78125 81.777344 651.804688 82.621094 C 651.664062 80.558594 651.609375 78.542969 651.644531 76.617188 C 652.171875 48.570312 666.972656 31.054688 692.253906 28.5625 C 694.664062 28.324219 697.121094 28.203125 699.546875 28.203125 C 716.441406 28.203125 737.054688 34.484375 739.558594 52.175781 C 740.417969 58.257812 739.710938 64.0625 739.027344 69.675781 C 738.242188 76.132812 737.5 82.226562 739.011719 88.554688 C 739.515625 90.667969 740.234375 92.660156 741.210938 94.644531 C 745.402344 103.160156 748.40625 110.511719 745.84375 121.023438 C 741.886719 137.234375 729.367188 146.535156 711.496094 146.535156 Z M 662.363281 113.835938 C 662.679688 113.835938 662.972656 114.007812 663.128906 114.285156 C 667.261719 121.640625 672.386719 127.953125 678.359375 133.042969 C 686.859375 140.285156 699.558594 144.78125 711.492188 144.78125 C 728.492188 144.78125 740.390625 135.972656 744.140625 120.609375 C 746.566406 110.648438 743.804688 103.882812 739.636719 95.417969 C 738.601562 93.3125 737.839844 91.203125 737.304688 88.960938 C 735.722656 82.328125 736.515625 75.789062 737.285156 69.464844 C 737.957031 63.964844 738.648438 58.273438 737.820312 52.421875 C 735.476562 35.839844 715.738281 29.957031 699.546875 29.957031 C 697.175781 29.957031 694.777344 30.074219 692.425781 30.304688 C 657.925781 33.707031 653.636719 63.847656 653.398438 76.644531 C 653.351562 78.976562 653.445312 81.433594 653.667969 83.953125 C 653.695312 84.269531 653.554688 84.570312 653.292969 84.753906 C 653.03125 84.933594 652.695312 84.957031 652.410156 84.816406 C 650.085938 83.679688 648.027344 83.101562 646.292969 83.101562 C 643.308594 83.101562 641.398438 84.828125 640.464844 88.378906 C 638.066406 97.46875 641.234375 100.183594 644.582031 103.054688 C 645.949219 104.226562 647.359375 105.4375 648.378906 107.078125 C 651.058594 111.378906 655.949219 113.84375 661.800781 113.84375 L 662.339844 113.835938 C 662.351562 113.835938 662.359375 113.835938 662.363281 113.835938 Z M 662.363281 113.835938 " fill-opacity="1" fill-rule="nonzero"/><path fill="#113576" d="M 683.855469 72.730469 C 683.652344 72.734375 683.445312 72.734375 683.242188 72.738281 C 683.652344 72.734375 684.035156 72.632812 684.394531 72.425781 C 685.050781 71.996094 685.539062 71.609375 686.0625 71.023438 C 687.171875 69.792969 688.746094 68.984375 690.292969 68.453125 C 694.019531 67.167969 697.152344 68.59375 700.621094 69.804688 C 703.023438 70.644531 705.421875 67.554688 703.972656 65.445312 C 700.773438 60.773438 694.390625 60.238281 689.328125 61.769531 C 686.914062 62.5 684.761719 63.878906 683.082031 65.738281 C 682.265625 66.640625 681.390625 67.835938 681.0625 69.023438 C 680.796875 69.984375 681.398438 70.855469 681.292969 71.652344 C 681.09375 73.109375 683.027344 74.25 683.855469 72.730469 Z M 683.855469 72.730469 " fill-opacity="1" fill-rule="nonzero"/><path fill="#113576" d="M 735.9375 67.453125 C 735.011719 65.398438 734.476562 63.664062 732.417969 62.414062 C 730.597656 61.308594 728.660156 60.75 726.535156 60.648438 C 722.402344 60.453125 717.027344 63.0625 716.957031 67.652344 C 716.929688 69.386719 718.695312 70.730469 720.359375 70.242188 C 722.730469 69.554688 724.304688 67.609375 726.71875 66.964844 C 728.757812 66.417969 732.074219 67.207031 733.398438 68.9375 C 734.542969 70.441406 736.730469 69.203125 735.9375 67.453125 Z M 735.9375 67.453125 " fill-opacity="1" fill-rule="nonzero"/><path fill="#113576" d="M 648.894531 99.117188 C 647.746094 97.417969 646.722656 95.230469 646.089844 93.296875 C 644.949219 89.804688 649.25 89.890625 651.128906 90.90625 C 654.378906 92.660156 657.042969 96.425781 658.617188 99.6875 C 659.097656 99.0625 659.574219 98.441406 660.054688 97.816406 C 657.289062 97.300781 655.375 99.273438 655.433594 102.015625 C 655.492188 104.871094 658.765625 106.613281 660.824219 104.394531 C 661.332031 103.851562 660.945312 103.082031 660.253906 103.015625 C 659.3125 102.921875 658.269531 103.152344 657.984375 102.070312 C 657.742188 101.136719 658.375 100.089844 659.378906 100.273438 C 660.511719 100.484375 661.316406 99.441406 660.816406 98.402344 C 658.632812 93.882812 654.128906 87.929688 648.65625 87.703125 C 646.472656 87.613281 643.792969 89.449219 643.707031 91.769531 C 643.574219 95.316406 646.164062 97.21875 648.296875 99.585938 C 648.585938 99.898438 649.132812 99.472656 648.894531 99.117188 Z M 648.894531 99.117188 " fill-opacity="1" fill-rule="nonzero"/><path fill="#113576" d="M 700.375 81.96875 C 694.546875 81.96875 695.488281 93.527344 699.9375 93.949219 C 705.003906 94.425781 706.898438 81.96875 700.375 81.96875 Z M 700.375 81.96875 " fill-opacity="1" fill-rule="nonzero"/><path fill="#113576" d="M 685.457031 93.394531 C 688.046875 98.796875 694.578125 104.304688 700.320312 99.023438 C 705.269531 94.46875 705.480469 87.175781 704.1875 81 C 703.167969 76.144531 700.140625 70.628906 694.59375 70.636719 C 687.683594 70.640625 684.742188 78.628906 684.476562 84.203125 C 684.457031 84.613281 685.046875 84.664062 685.164062 84.296875 C 686.429688 80.269531 688.789062 76.046875 692.53125 73.847656 C 697.296875 71.054688 700.292969 76.96875 701.484375 80.523438 C 702.789062 84.410156 702.832031 88.722656 701.792969 92.65625 C 701.160156 95.066406 699.710938 96.835938 697.699219 98.257812 C 693.28125 101.382812 688.203125 96.234375 686.253906 92.925781 C 685.949219 92.40625 685.203125 92.863281 685.457031 93.394531 Z M 685.457031 93.394531 " fill-opacity="1" fill-rule="nonzero"/><path fill="#113576" d="M 731.433594 78.792969 C 726.488281 78.792969 727.289062 90.347656 731.0625 90.769531 C 735.363281 91.25 736.972656 78.792969 731.433594 78.792969 Z M 731.433594 78.792969 " fill-opacity="1" fill-rule="nonzero"/><path fill="#113576" d="M 719.386719 92.074219 C 721.316406 96.855469 727.003906 103.484375 732.21875 97.8125 C 736.53125 93.121094 736.597656 86.203125 735.652344 80.25 C 734.941406 75.761719 732.558594 69.238281 727.066406 69.449219 C 720.640625 69.695312 718.683594 78.074219 718.609375 82.996094 C 718.605469 83.398438 719.1875 83.46875 719.296875 83.09375 C 720.40625 79.351562 722.640625 73.773438 726.582031 72.175781 C 730.433594 70.613281 732.355469 77.285156 733.011719 79.71875 C 734.015625 83.425781 734.03125 87.449219 733.257812 91.195312 C 732.863281 93.128906 731.992188 94.835938 730.691406 96.300781 C 726.453125 101.089844 721.703125 94.585938 720.230469 91.71875 C 719.992188 91.261719 719.1875 91.585938 719.386719 92.074219 Z M 719.386719 92.074219 " fill-opacity="1" fill-rule="nonzero"/><path fill="#fed69f" d="M 717.871094 87.957031 C 719.027344 89.691406 719.605469 91.429688 721.34375 93.164062 C 724.234375 96.636719 729.441406 97.214844 731.757812 100.109375 C 734.070312 103 732.4375 108.136719 725.476562 109.65625 C 725.476562 109.65625 719.347656 105.761719 716.425781 99.566406 C 713.507812 93.375 717.871094 87.957031 717.871094 87.957031 Z M 717.871094 87.957031 " fill-opacity="1" fill-rule="nonzero"/><path fill="#113576" d="M 717.5625 88.140625 C 719.921875 92.160156 721.644531 94.949219 725.910156 97.148438 C 728.316406 98.390625 731.917969 99.554688 732.039062 102.785156 C 732.179688 106.492188 727.800781 107.886719 725.125 109.0625 C 724.515625 109.328125 724.808594 110.410156 725.46875 110.34375 C 729.785156 109.894531 734.148438 106.632812 733.285156 101.898438 C 732.84375 99.484375 730.664062 98.109375 728.664062 97.046875 C 726.5625 95.9375 724.496094 95.121094 722.609375 93.613281 C 720.683594 92.074219 719.480469 89.808594 718.179688 87.777344 C 717.929688 87.386719 717.324219 87.734375 717.5625 88.140625 Z M 717.5625 88.140625 " fill-opacity="1" fill-rule="nonzero"/><path fill="#4e63ab" d="M 645.964844 62.289062 C 643.628906 86.242188 656.769531 99.089844 665.535156 98.800781 C 657.355469 82.734375 672.25 68.132812 684.226562 65.210938 C 691.585938 63.417969 696.65625 58.238281 701.75 52.359375 C 709.34375 43.597656 710.222656 14.976562 694.742188 15.265625 C 679.257812 15.558594 648.300781 38.339844 645.964844 62.289062 Z M 645.964844 62.289062 " fill-opacity="1" fill-rule="nonzero"/><path fill="#113576" d="M 665.230469 99.683594 C 657.238281 99.683594 647.4375 90.222656 645.273438 74.617188 L 647.007812 74.378906 C 649.117188 89.597656 657.964844 97.015625 664.117188 97.851562 C 661.652344 92.171875 661.714844 86.222656 664.3125 80.558594 C 667.78125 73.003906 675.882812 66.34375 684.019531 64.359375 C 691.246094 62.597656 696.21875 57.40625 701.089844 51.785156 C 705.855469 46.289062 708.1875 31.375 704.011719 22.453125 C 702.015625 18.1875 698.878906 16.070312 694.757812 16.144531 L 694.722656 14.390625 C 699.53125 14.308594 703.316406 16.832031 705.597656 21.710938 C 710.105469 31.34375 707.613281 46.933594 702.410156 52.9375 C 697.347656 58.777344 692.164062 64.179688 684.429688 66.066406 C 678.175781 67.589844 669.707031 73.007812 665.90625 81.292969 C 663.328125 86.90625 663.46875 92.824219 666.3125 98.40625 L 666.9375 99.632812 L 665.5625 99.679688 C 665.453125 99.679688 665.339844 99.683594 665.230469 99.683594 Z M 665.230469 99.683594 " fill-opacity="1" fill-rule="nonzero"/><path fill="#fed69f" d="M 893.699219 159.042969 C 890.246094 164.769531 772.265625 162.988281 769.210938 159.042969 C 766.15625 155.09375 764.191406 92.953125 769.210938 83.265625 C 774.230469 73.578125 891.015625 78.421875 893.699219 83.265625 C 896.382812 88.109375 897.148438 153.316406 893.699219 159.042969 Z M 893.699219 159.042969 " fill-opacity="1" fill-rule="nonzero"/><path fill="#113576" d="M 839.453125 163.578125 C 821.851562 163.578125 771.042969 162.84375 768.519531 159.578125 C 765.023438 155.0625 763.53125 92.324219 768.433594 82.859375 C 771.03125 77.847656 797.046875 76.792969 818.417969 76.792969 C 843.785156 76.792969 892.265625 78.871094 894.464844 82.835938 C 897.003906 87.421875 898.449219 152.855469 894.449219 159.492188 C 892.414062 162.867188 863.417969 163.578125 839.453125 163.578125 Z M 818.417969 78.546875 C 784.667969 78.546875 771.269531 81.195312 769.988281 83.667969 C 764.855469 93.578125 767.441406 155.320312 769.902344 158.503906 C 771.925781 160.042969 802.132812 161.824219 839.453125 161.824219 C 874.554688 161.824219 891.617188 160.191406 892.957031 158.574219 C 896.359375 152.929688 895.113281 87.625 892.929688 83.691406 C 890.722656 81.476562 854.160156 78.546875 818.417969 78.546875 Z M 818.417969 78.546875 " fill-opacity="1" fill-rule="nonzero"/><path fill="#113576" d="M 801.589844 162.796875 C 797.117188 122.949219 802.332031 78.222656 802.386719 77.777344 L 804.125 77.984375 C 804.074219 78.429688 798.882812 122.960938 803.332031 162.605469 Z M 801.589844 162.796875 " fill-opacity="1" fill-rule="nonzero"/><path fill="#4e63ab" d="M 848.539062 162.699219 L 848.539062 78.316406 L 855.238281 78.621094 L 855.238281 162.699219 Z M 848.539062 162.699219 " fill-opacity="1" fill-rule="nonzero"/><path fill="#113576" d="M 856.117188 163.578125 L 847.664062 163.578125 L 847.664062 77.398438 L 856.117188 77.785156 Z M 849.414062 161.824219 L 854.363281 161.824219 L 854.363281 79.457031 L 849.414062 79.230469 Z M 849.414062 161.824219 " fill-opacity="1" fill-rule="nonzero"/><path fill="#e5936a" d="M 926.605469 237.941406 C 920.375 243.667969 707.5 241.890625 701.992188 237.941406 C 696.480469 233.996094 692.933594 171.851562 701.992188 162.164062 C 711.050781 152.476562 921.761719 157.320312 926.605469 162.164062 C 931.449219 167.007812 932.832031 232.214844 926.605469 237.941406 Z M 926.605469 237.941406 " fill-opacity="1" fill-rule="nonzero"/><path fill="#113576" d="M 828.71875 242.476562 C 779.558594 242.476562 705.121094 241.261719 701.480469 238.65625 C 698.941406 236.835938 697.457031 226.839844 696.65625 218.773438 C 694.714844 199.179688 694.886719 168.480469 701.351562 161.566406 C 705.886719 156.714844 752.484375 155.695312 790.773438 155.695312 C 842.765625 155.695312 923.707031 158.027344 927.222656 161.546875 C 930.648438 164.96875 931.953125 191.570312 931.582031 209.457031 C 931.382812 219.011719 930.546875 235.503906 927.195312 238.585938 C 923.515625 241.972656 863.917969 242.476562 828.71875 242.476562 Z M 790.773438 157.449219 C 738.691406 157.449219 705.742188 159.433594 702.628906 162.761719 C 697.179688 168.597656 696.191406 196.289062 698.402344 218.597656 C 699.554688 230.269531 701.292969 236.363281 702.5 237.226562 C 705.648438 239.050781 765.8125 240.722656 828.71875 240.722656 C 897.46875 240.722656 924.097656 238.875 926.011719 237.292969 C 927.605469 235.828125 929.445312 227.734375 929.828125 209.417969 C 930.277344 187.871094 928.410156 165.210938 925.980469 162.78125 C 922.738281 160.46875 856.570312 157.449219 790.773438 157.449219 Z M 790.773438 157.449219 " fill-opacity="1" fill-rule="nonzero"/><path fill="#fed69f" d="M 926.601562 237.949219 C 924.941406 239.472656 908.65625 240.460938 885.535156 241.015625 C 881.78125 241.113281 877.84375 241.199219 873.757812 241.265625 C 808.519531 242.355469 705.796875 240.660156 701.996094 237.949219 C 696.484375 233.992188 692.929688 171.851562 701.996094 162.167969 C 708.195312 155.535156 808.933594 155.71875 873.40625 158.03125 C 878.128906 158.214844 882.652344 158.398438 886.941406 158.582031 C 909.5625 159.605469 925.308594 160.878906 926.601562 162.167969 C 931.441406 167.011719 932.832031 232.21875 926.601562 237.949219 Z M 926.601562 237.949219 " fill-opacity="1" fill-rule="nonzero"/><path fill="#113576" d="M 829.027344 242.476562 C 779.746094 242.476562 705.132812 241.261719 701.484375 238.664062 C 698.796875 236.734375 697.296875 225.28125 696.640625 218.625 C 694.71875 199.078125 694.910156 168.457031 701.355469 161.570312 C 705.890625 156.71875 752.542969 155.699219 790.886719 155.699219 C 817.527344 155.699219 847.617188 156.230469 873.4375 157.15625 C 878.164062 157.339844 882.691406 157.527344 886.980469 157.710938 C 925.101562 159.433594 926.695312 161.027344 927.21875 161.550781 C 930.648438 164.976562 931.953125 191.59375 931.578125 209.488281 C 931.378906 219.035156 930.542969 235.511719 927.191406 238.59375 C 926.488281 239.242188 924.621094 240.957031 885.554688 241.890625 C 881.804688 241.992188 877.863281 242.074219 873.769531 242.144531 C 860.472656 242.363281 845.417969 242.476562 829.027344 242.476562 Z M 790.886719 157.449219 C 738.738281 157.449219 705.746094 159.4375 702.636719 162.769531 C 697.199219 168.578125 696.199219 196.195312 698.386719 218.453125 C 699.546875 230.21875 701.289062 236.363281 702.503906 237.238281 C 705.660156 239.058594 765.972656 240.722656 829.027344 240.722656 C 845.410156 240.722656 860.453125 240.613281 873.742188 240.390625 C 877.832031 240.324219 881.765625 240.238281 885.515625 240.136719 C 920.933594 239.289062 925.464844 237.75 926.011719 237.300781 C 927.605469 235.835938 929.445312 227.75 929.828125 209.449219 C 930.28125 187.894531 928.410156 165.21875 925.980469 162.789062 C 925.617188 162.53125 921.878906 161.039062 886.90625 159.457031 C 882.621094 159.273438 878.097656 159.089844 873.375 158.90625 C 847.574219 157.980469 817.507812 157.449219 790.886719 157.449219 Z M 790.886719 157.449219 " fill-opacity="1" fill-rule="nonzero"/><path fill="#113576" d="M 747.515625 240.898438 C 739.320312 208.691406 749.238281 157.414062 749.339844 156.898438 L 751.054688 157.238281 C 750.957031 157.75 741.113281 208.640625 749.214844 240.464844 Z M 747.515625 240.898438 " fill-opacity="1" fill-rule="nonzero"/><path fill="#8295ae" d="M 781.894531 157.066406 C 779.101562 160.902344 777.949219 241.164062 781.894531 241.300781 C 785.835938 241.433594 791.945312 241.300781 791.945312 241.300781 C 793.496094 238.867188 795.019531 157.5625 793.066406 157.066406 C 791.109375 156.574219 781.894531 157.066406 781.894531 157.066406 Z M 781.894531 157.066406 " fill-opacity="1" fill-rule="nonzero"/><path fill="#113576" d="M 786.3125 242.234375 C 784.792969 242.234375 783.207031 242.21875 781.867188 242.175781 C 781.339844 242.15625 780.910156 241.820312 780.597656 241.175781 C 777.394531 234.605469 777.910156 161.054688 781.1875 156.550781 L 781.433594 156.214844 L 781.851562 156.191406 C 781.890625 156.191406 786.003906 155.972656 789.300781 155.972656 C 791.324219 155.972656 792.625 156.054688 793.28125 156.21875 C 793.511719 156.277344 793.828125 156.449219 794.019531 156.9375 C 795.722656 161.21875 794.503906 238.917969 792.6875 241.773438 L 792.4375 242.167969 L 791.96875 242.175781 C 791.964844 242.179688 789.277344 242.234375 786.3125 242.234375 Z M 782.171875 240.429688 C 783.441406 240.46875 784.90625 240.484375 786.3125 240.484375 C 788.40625 240.484375 790.359375 240.453125 791.316406 240.4375 C 792.726562 233.613281 793.738281 163.621094 792.46875 157.851562 C 791.988281 157.789062 791.0625 157.722656 789.300781 157.722656 C 786.722656 157.722656 783.625 157.859375 782.4375 157.917969 C 779.6875 164.808594 779.417969 235.832031 782.171875 240.429688 Z M 782.171875 240.429688 " fill-opacity="1" fill-rule="nonzero"/><path fill="#8295ae" d="M 888.371094 240.953125 C 887.449219 240.96875 886.492188 241.003906 885.539062 241.019531 C 882.390625 241.105469 879.121094 241.171875 875.738281 241.238281 C 874.28125 220.816406 874.230469 177.773438 875.335938 158.101562 C 879.371094 158.269531 883.242188 158.4375 886.945312 158.589844 C 887.867188 158.625 888.769531 158.671875 889.675781 158.722656 C 890.046875 178.390625 889.292969 220.5625 888.371094 240.953125 Z M 888.371094 240.953125 " fill-opacity="1" fill-rule="nonzero"/><path fill="#113576" d="M 874.921875 242.128906 L 874.863281 241.300781 C 873.359375 220.210938 873.386719 177.179688 874.460938 158.054688 L 874.507812 157.191406 L 886.984375 157.714844 C 887.867188 157.746094 888.742188 157.792969 889.613281 157.839844 L 890.425781 157.886719 L 890.554688 158.707031 C 890.929688 178.640625 890.136719 221.324219 889.246094 240.988281 L 889.210938 241.8125 L 885.554688 241.894531 C 882.414062 241.976562 879.144531 242.042969 875.757812 242.109375 Z M 876.164062 159.015625 C 875.152344 178.238281 875.136719 219.351562 876.554688 240.34375 C 879.640625 240.28125 882.628906 240.21875 885.515625 240.144531 L 887.53125 240.097656 C 888.390625 220.386719 889.148438 179.507812 888.816406 159.554688 C 888.160156 159.519531 887.539062 159.488281 886.914062 159.46875 Z M 876.164062 159.015625 " fill-opacity="1" fill-rule="nonzero"/><path fill="#113576" d="M 908.847656 194.925781 C 905.046875 194.925781 896.085938 194.789062 894.914062 193.53125 C 893.609375 192.132812 893.179688 181.535156 893.460938 174.855469 C 893.65625 170.15625 894.152344 167.410156 894.941406 166.695312 C 896.140625 165.613281 902.425781 165.382812 907.488281 165.382812 C 913.394531 165.382812 922.722656 165.789062 923.996094 166.65625 C 924.789062 167.199219 925.304688 170.273438 925.519531 175.804688 C 925.683594 179.96875 925.761719 192.183594 924.027344 193.578125 C 922.394531 194.886719 910.230469 194.925781 908.847656 194.925781 Z M 907.488281 166.328125 C 899.566406 166.328125 896.121094 166.90625 895.578125 167.398438 C 895.425781 167.535156 894.667969 168.53125 894.40625 174.894531 C 894.070312 182.980469 894.808594 192.03125 895.605469 192.886719 C 896.105469 193.417969 900.917969 193.980469 908.847656 193.980469 C 917.089844 193.980469 922.734375 193.398438 923.429688 192.839844 C 923.78125 192.5625 924.476562 190.132812 924.632812 182.929688 C 924.808594 174.804688 924.15625 168.050781 923.457031 167.4375 C 922.710938 166.925781 915.570312 166.328125 907.488281 166.328125 Z M 907.488281 166.328125 " fill-opacity="1" fill-rule="nonzero"/><path fill="#113576" d="M 909.597656 191.59375 C 903.9375 191.59375 898.242188 191.109375 896.5 190.132812 C 896.046875 189.875 895.886719 189.300781 896.140625 188.84375 C 896.398438 188.390625 896.972656 188.226562 897.429688 188.484375 C 900.558594 190.242188 919.601562 189.855469 921.472656 188.535156 C 921.898438 188.234375 922.488281 188.335938 922.789062 188.761719 C 923.09375 189.1875 922.992188 189.78125 922.5625 190.082031 C 921.136719 191.085938 915.386719 191.59375 909.597656 191.59375 Z M 909.597656 191.59375 " fill-opacity="1" fill-rule="nonzero"/><path fill="#113576" d="M 907.84375 177.117188 C 908.203125 176.601562 904.363281 168.78125 903.082031 168.875 C 901.800781 168.964844 898.085938 176.722656 898.324219 177.117188 C 898.554688 177.515625 901.023438 176.765625 901.4375 177.117188 C 901.847656 177.472656 901.4375 186.796875 901.4375 186.796875 C 901.4375 187.707031 904.726562 187.707031 904.726562 186.796875 C 904.726562 186.796875 904.453125 177.589844 904.726562 177.117188 C 905.003906 176.648438 907.480469 177.636719 907.84375 177.117188 Z M 907.84375 177.117188 " fill-opacity="1" fill-rule="nonzero"/><path fill="#113576" d="M 920.644531 177.117188 C 921.050781 176.695312 917.027344 169.011719 915.882812 168.875 C 914.742188 168.738281 910.890625 176.628906 911.125 177.117188 C 911.359375 177.609375 913.78125 176.722656 914.238281 177.117188 C 914.695312 177.515625 913.746094 186.296875 914.238281 186.796875 C 914.730469 187.300781 917.121094 187.347656 917.53125 186.796875 C 917.941406 186.25 917.210938 177.542969 917.53125 177.117188 C 917.851562 176.695312 920.238281 177.542969 920.644531 177.117188 Z M 920.644531 177.117188 " fill-opacity="1" fill-rule="nonzero"/><path fill="#113576" d="M 909.820312 229.210938 C 906.023438 229.210938 897.0625 229.078125 895.890625 227.816406 C 894.585938 226.417969 894.15625 215.816406 894.4375 209.132812 C 894.632812 204.441406 895.128906 201.699219 895.917969 200.984375 C 897.113281 199.898438 903.398438 199.667969 908.460938 199.667969 C 914.367188 199.667969 923.699219 200.074219 924.972656 200.941406 C 925.765625 201.484375 926.277344 204.5625 926.496094 210.089844 C 926.660156 214.257812 926.734375 226.46875 925 227.863281 C 923.371094 229.175781 911.203125 229.210938 909.820312 229.210938 Z M 908.460938 200.617188 C 900.539062 200.617188 897.09375 201.191406 896.550781 201.6875 C 896.402344 201.820312 895.644531 202.820312 895.378906 209.175781 C 895.042969 217.261719 895.78125 226.320312 896.582031 227.175781 C 897.082031 227.707031 901.890625 228.269531 909.820312 228.269531 C 918.066406 228.269531 923.710938 227.6875 924.40625 227.128906 C 924.753906 226.851562 925.453125 224.421875 925.609375 217.21875 C 925.78125 209.09375 925.132812 202.339844 924.433594 201.726562 C 923.683594 201.214844 916.542969 200.617188 908.460938 200.617188 Z M 908.460938 200.617188 " fill-opacity="1" fill-rule="nonzero"/><path fill="#113576" d="M 916.355469 205.003906 C 917.078125 206.066406 916.890625 213.546875 914.554688 215.203125 C 912.382812 216.742188 911.507812 215.605469 911.433594 216.628906 C 911.355469 217.914062 910.90625 223.84375 911.273438 224.300781 C 911.640625 224.753906 915.585938 224.289062 915.359375 225.152344 C 915.144531 225.972656 913.085938 225.929688 912.25 225.972656 C 911.449219 226.015625 909.75 226.015625 908.949219 225.972656 C 908.113281 225.929688 906.054688 225.972656 905.839844 225.152344 C 905.613281 224.289062 909.367188 224.355469 909.636719 224.085938 C 909.902344 223.816406 909.839844 217.917969 909.765625 216.628906 C 909.691406 215.609375 908.816406 216.742188 906.644531 215.203125 C 904.308594 213.546875 903.828125 205.195312 904.453125 204.519531 C 905.082031 203.835938 915.628906 203.945312 916.355469 205.003906 Z M 916.355469 205.003906 " fill-opacity="1" fill-rule="nonzero"/><path fill="#fed69f" d="M 929.019531 381.289062 C 920.90625 388.746094 714.375 386.429688 707.195312 381.289062 C 700.015625 376.144531 695.398438 255.339844 707.195312 242.722656 C 718.992188 230.101562 922.710938 236.410156 929.019531 242.722656 C 935.328125 249.03125 937.132812 373.828125 929.019531 381.289062 Z M 929.019531 381.289062 " fill-opacity="1" fill-rule="nonzero"/><path fill="#113576" d="M 832.148438 386.929688 C 784.324219 386.929688 711.378906 385.363281 706.683594 382 C 705.941406 381.464844 703.664062 379.839844 701.523438 358.210938 C 698.027344 322.921875 697.28125 252.042969 706.554688 242.125 C 712.710938 235.542969 764.992188 234.558594 795.613281 234.558594 C 852.902344 234.558594 925.464844 237.921875 929.640625 242.101562 C 934.164062 246.621094 935.902344 298.902344 935.15625 334.394531 C 934.742188 354.136719 933.445312 378.40625 929.613281 381.929688 C 924.707031 386.441406 859.820312 386.929688 832.148438 386.929688 Z M 795.609375 236.308594 C 744.75 236.308594 711.9375 238.929688 707.835938 243.316406 C 699.613281 252.113281 699.394531 318.972656 703.265625 358.035156 C 705.230469 377.867188 707.308594 380.289062 707.703125 380.574219 C 711.066406 382.980469 770.382812 385.171875 832.144531 385.171875 C 887.640625 385.171875 925.429688 383.394531 928.425781 380.640625 C 930.984375 378.289062 932.84375 360.984375 933.402344 334.355469 C 934.277344 292.625 931.75 246.691406 928.398438 243.339844 C 925.285156 240.273438 860.332031 236.308594 795.609375 236.308594 Z M 795.609375 236.308594 " fill-opacity="1" fill-rule="nonzero"/><path fill="#113576" d="M 766.667969 385.398438 C 757.136719 322.683594 766.566406 236.5 766.664062 235.636719 L 768.40625 235.832031 C 768.308594 236.691406 758.90625 322.652344 768.398438 385.132812 Z M 766.667969 385.398438 " fill-opacity="1" fill-rule="nonzero"/><path fill="#4e63ab" d="M 835.234375 318.5625 L 835.234375 235.910156 L 865.980469 236.886719 L 863.714844 318.5625 L 857.574219 314.09375 L 854.222656 318.5625 L 848.082031 313.535156 L 844.171875 318.5625 L 840.144531 314.09375 Z M 835.234375 318.5625 " fill-opacity="1" fill-rule="nonzero"/><path fill="#113576" d="M 834.359375 320.542969 L 834.359375 235.003906 L 866.878906 236.035156 L 864.546875 320.246094 L 857.757812 315.308594 L 854.375 319.816406 L 848.21875 314.78125 L 844.21875 319.921875 L 840.082031 315.332031 Z M 847.9375 312.289062 L 854.070312 317.304688 L 857.390625 312.878906 L 862.890625 316.875 L 865.078125 237.734375 L 836.113281 236.816406 L 836.113281 316.582031 L 840.207031 312.855469 L 844.121094 317.199219 Z M 847.9375 312.289062 " fill-opacity="1" fill-rule="nonzero"/><path fill="#113576" d="M 766.722656 385.589844 C 750.382812 344.699219 731.070312 303.125 727 304.40625 C 722.085938 305.914062 712.773438 352.449219 708.058594 381.425781 L 706.332031 381.144531 C 708.398438 368.449219 719.078125 305.007812 726.480469 302.730469 C 728.0625 302.246094 731.753906 301.09375 750.660156 343.21875 C 759.851562 363.703125 768.261719 384.730469 768.34375 384.941406 Z M 766.722656 385.589844 " fill-opacity="1" fill-rule="nonzero"/><path fill="#113576" d="M 721.832031 310.875 C 712.738281 291.652344 706.582031 244.816406 706.328125 242.832031 L 708.066406 242.609375 C 708.125 243.089844 714.441406 291.15625 723.417969 310.125 Z M 721.832031 310.875 " fill-opacity="1" fill-rule="nonzero"/><path fill="#113576" d="M 734.035156 311.425781 L 732.933594 310.0625 C 741.542969 303.117188 766.460938 236.105469 766.710938 235.429688 L 768.355469 236.039062 C 767.324219 238.816406 743.011719 304.179688 734.035156 311.425781 Z M 734.035156 311.425781 " fill-opacity="1" fill-rule="nonzero"/><path fill="#8295ae" d="M 735.628906 327.546875 C 729.953125 319.980469 716.082031 309.578125 709.148438 302.640625 C 712.300781 303.902344 715.453125 303.902344 719.234375 303.902344 C 717.976562 301.378906 717.34375 297.597656 715.453125 295.074219 C 717.34375 295.703125 720.5 295.074219 722.386719 296.335938 C 721.757812 294.441406 721.128906 290.660156 720.496094 288.769531 C 726.800781 294.441406 740.042969 307.160156 746.347656 313.464844 L 741.304688 314.597656 L 741.617188 322.183594 L 735 319.847656 Z M 735.628906 327.546875 " fill-opacity="1" fill-rule="nonzero"/><path fill="#113576" d="M 735.628906 328.421875 C 735.359375 328.421875 735.09375 328.296875 734.925781 328.070312 C 731.425781 323.402344 724.53125 317.445312 718.445312 312.1875 C 714.683594 308.9375 711.136719 305.871094 708.527344 303.261719 C 708.230469 302.964844 708.1875 302.503906 708.414062 302.160156 C 708.644531 301.8125 709.085938 301.675781 709.472656 301.828125 C 712.105469 302.878906 714.730469 303.007812 717.894531 303.023438 C 717.621094 302.335938 717.375 301.605469 717.121094 300.851562 C 716.488281 298.976562 715.828125 297.039062 714.75 295.601562 C 714.519531 295.292969 714.515625 294.871094 714.742188 294.5625 C 714.964844 294.25 715.367188 294.117188 715.730469 294.242188 C 716.378906 294.457031 717.28125 294.503906 718.238281 294.554688 C 719.15625 294.601562 720.144531 294.648438 721.074219 294.867188 C 720.910156 294.191406 720.746094 293.460938 720.585938 292.742188 C 720.28125 291.371094 719.964844 289.949219 719.664062 289.046875 C 719.539062 288.667969 719.683594 288.253906 720.015625 288.035156 C 720.347656 287.820312 720.785156 287.851562 721.082031 288.117188 C 727.3125 293.722656 740.519531 306.402344 746.964844 312.847656 C 747.191406 313.074219 747.277344 313.40625 747.1875 313.710938 C 747.101562 314.019531 746.851562 314.25 746.539062 314.320312 L 742.207031 315.292969 L 742.492188 322.148438 C 742.503906 322.441406 742.371094 322.71875 742.136719 322.890625 C 741.902344 323.066406 741.597656 323.113281 741.324219 323.011719 L 735.980469 321.128906 L 736.480469 327.234375 C 736.515625 327.332031 736.535156 327.4375 736.535156 327.546875 C 736.535156 328.035156 736.117188 328.4375 735.644531 328.421875 C 735.640625 328.421875 735.632812 328.421875 735.628906 328.421875 Z M 712.265625 304.410156 C 714.425781 306.398438 716.957031 308.585938 719.589844 310.859375 C 725.085938 315.609375 730.734375 320.492188 734.527344 324.8125 L 734.125 319.921875 C 734.101562 319.628906 734.230469 319.339844 734.460938 319.15625 C 734.699219 318.976562 735.011719 318.929688 735.289062 319.023438 L 740.6875 320.929688 L 740.425781 314.636719 C 740.40625 314.210938 740.695312 313.835938 741.109375 313.746094 L 744.597656 312.960938 C 738.605469 307.019531 728.394531 297.214844 722.082031 291.402344 C 722.152344 291.722656 722.222656 292.042969 722.296875 292.363281 C 722.601562 293.738281 722.917969 295.15625 723.21875 296.0625 C 723.335938 296.417969 723.214844 296.804688 722.917969 297.035156 C 722.617188 297.261719 722.210938 297.273438 721.902344 297.066406 C 720.976562 296.449219 719.539062 296.375 718.148438 296.308594 C 717.824219 296.292969 717.507812 296.273438 717.195312 296.253906 C 717.84375 297.53125 718.316406 298.925781 718.777344 300.292969 C 719.179688 301.476562 719.558594 302.59375 720.015625 303.511719 C 720.152344 303.785156 720.136719 304.105469 719.980469 304.363281 C 719.820312 304.621094 719.535156 304.78125 719.234375 304.78125 C 716.738281 304.777344 714.464844 304.777344 712.265625 304.410156 Z M 712.265625 304.410156 " fill-opacity="1" fill-rule="nonzero"/><path fill="#113576" d="M 902.507812 259.828125 C 902.347656 259.828125 902.183594 259.789062 902.027344 259.710938 C 901.5 259.445312 901.285156 258.800781 901.554688 258.273438 C 902.1875 257.011719 905.53125 250.726562 909.0625 250.679688 C 910.449219 250.675781 911.964844 251.445312 913.71875 253.070312 C 914.15625 253.472656 914.179688 254.152344 913.777344 254.585938 C 913.375 255.019531 912.699219 255.042969 912.261719 254.644531 C 910.542969 253.046875 909.53125 252.8125 909.089844 252.824219 C 907.445312 252.847656 904.761719 256.664062 903.46875 259.238281 C 903.28125 259.609375 902.902344 259.828125 902.507812 259.828125 Z M 902.507812 259.828125 " fill-opacity="1" fill-rule="nonzero"/><path fill="#113576" d="M 909.75 255.445312 C 909.710938 256.074219 915.589844 257.835938 916.1875 257.535156 C 916.785156 257.234375 915.46875 251.007812 914.78125 250.914062 C 914.09375 250.820312 909.792969 254.8125 909.75 255.445312 Z M 909.75 255.445312 " fill-opacity="1" fill-rule="nonzero"/><path fill="#113576" d="M 916.464844 272.496094 C 915.917969 272.496094 915.335938 272.476562 914.714844 272.441406 C 914.121094 272.40625 913.671875 271.902344 913.703125 271.3125 C 913.738281 270.71875 914.253906 270.28125 914.835938 270.300781 C 918.300781 270.496094 919.640625 270.0625 920.128906 269.785156 C 920.152344 269.773438 920.210938 269.738281 920.257812 269.554688 C 920.683594 267.9375 918.496094 263.277344 916.804688 260.480469 C 916.5 259.976562 916.660156 259.316406 917.167969 259.011719 C 917.671875 258.703125 918.332031 258.867188 918.640625 259.371094 C 919.398438 260.625 923.136719 267.03125 922.332031 270.097656 C 922.152344 270.792969 921.753906 271.328125 921.179688 271.652344 C 920.183594 272.214844 918.628906 272.496094 916.464844 272.496094 Z M 916.464844 272.496094 " fill-opacity="1" fill-rule="nonzero"/><path fill="#113576" d="M 916.101562 268.050781 C 915.742188 267.355469 910.074219 269.996094 909.929688 270.828125 C 909.785156 271.65625 914.679688 275.046875 915.417969 274.785156 C 916.15625 274.523438 916.464844 268.746094 916.101562 268.050781 Z M 916.101562 268.050781 " fill-opacity="1" fill-rule="nonzero"/><path fill="#113576" d="M 901.839844 273.019531 C 899.429688 273.019531 897 272.597656 896.214844 271.054688 C 895.554688 269.746094 895.960938 267.800781 897.5 264.925781 C 897.78125 264.40625 898.429688 264.207031 898.953125 264.488281 C 899.472656 264.769531 899.671875 265.417969 899.390625 265.9375 C 897.710938 269.074219 898.082031 269.992188 898.128906 270.085938 C 898.574219 270.964844 902.613281 271.125 906.601562 270.421875 C 907.1875 270.320312 907.738281 270.710938 907.84375 271.292969 C 907.945312 271.875 907.554688 272.433594 906.972656 272.535156 C 905.976562 272.707031 903.914062 273.019531 901.839844 273.019531 Z M 901.839844 273.019531 " fill-opacity="1" fill-rule="nonzero"/><path fill="#113576" d="M 900.871094 268.082031 C 901.527344 267.78125 901.828125 261.867188 901.046875 261.316406 C 900.265625 260.769531 895.167969 263.855469 895.097656 264.546875 C 895.027344 265.234375 900.214844 268.382812 900.871094 268.082031 Z M 900.871094 268.082031 " fill-opacity="1" fill-rule="nonzero"/><path fill="#fed69f" d="M 732.742188 364.195312 C 737.125 365.335938 733.628906 357.414062 751.898438 360.101562 C 766.621094 362.261719 771.945312 354.84375 776.433594 356.652344 C 780.917969 358.457031 777.117188 364.289062 774.171875 366.554688 C 768.371094 371.007812 757.4375 372.707031 761.273438 379.121094 C 767.058594 388.796875 788.484375 384.601562 799.863281 389.4375 C 820.5 398.214844 800.519531 398.164062 789.179688 397.832031 C 781.441406 397.605469 750.667969 400.890625 737.273438 397.9375 C 723.878906 394.980469 703.21875 382.417969 699.21875 377.90625 C 695.214844 373.394531 706.746094 349.039062 711.273438 351.929688 C 715.804688 354.816406 728.359375 363.050781 732.742188 364.195312 Z M 732.742188 364.195312 " fill-opacity="1" fill-rule="nonzero"/><path fill="#113576" d="M 753.761719 400.050781 C 746.382812 400.050781 740.929688 399.640625 737.085938 398.789062 C 723.652344 395.828125 702.738281 383.195312 698.558594 378.488281 C 696.195312 375.820312 698.214844 368.503906 700.894531 362.546875 C 701.777344 360.585938 706.378906 350.816406 710.457031 350.816406 C 710.921875 350.816406 711.355469 350.941406 711.746094 351.1875 L 713.292969 352.179688 C 718.4375 355.480469 729.148438 362.351562 732.964844 363.347656 C 733.835938 363.574219 734.070312 363.4375 734.980469 362.421875 C 736.3125 360.925781 738.332031 358.667969 745.179688 358.667969 C 747.15625 358.667969 749.460938 358.859375 752.027344 359.234375 C 753.785156 359.492188 755.511719 359.625 757.152344 359.625 C 762.824219 359.625 766.664062 358.117188 769.75 356.90625 C 771.757812 356.117188 773.347656 355.492188 774.902344 355.492188 C 775.566406 355.492188 776.175781 355.605469 776.757812 355.839844 C 778.640625 356.597656 779.195312 357.929688 779.328125 358.910156 C 779.738281 361.898438 776.871094 365.585938 774.703125 367.25 C 772.859375 368.667969 770.570312 369.789062 768.355469 370.871094 C 765.105469 372.464844 762.03125 373.96875 761.449219 375.933594 C 761.210938 376.734375 761.402344 377.628906 762.023438 378.671875 C 765.300781 384.148438 774.484375 384.914062 783.371094 385.652344 C 789.375 386.15625 795.585938 386.671875 800.203125 388.636719 C 809.035156 392.390625 809.933594 394.324219 809.648438 395.726562 C 809.324219 397.328125 807.363281 398.8125 795.347656 398.8125 C 793.195312 398.8125 791.050781 398.765625 789.152344 398.710938 C 786.890625 398.644531 782.503906 398.890625 777.308594 399.179688 C 770.355469 399.566406 761.703125 400.050781 753.761719 400.050781 Z M 710.457031 352.566406 C 708.90625 352.566406 705.503906 356.566406 702.496094 363.261719 C 699.554688 369.804688 698.449219 375.71875 699.871094 377.320312 C 703.929688 381.894531 724.324219 394.175781 737.460938 397.078125 C 741.183594 397.898438 746.511719 398.296875 753.761719 398.296875 C 761.65625 398.296875 770.28125 397.816406 777.214844 397.425781 C 782.460938 397.132812 786.882812 396.886719 789.203125 396.957031 C 791.089844 397.011719 793.214844 397.058594 795.351562 397.058594 C 807.453125 397.058594 807.921875 395.441406 807.9375 395.371094 C 807.9375 395.359375 808.128906 393.90625 799.519531 390.246094 C 795.164062 388.394531 789.09375 387.886719 783.226562 387.398438 C 773.902344 386.621094 764.261719 385.820312 760.523438 379.574219 C 759.648438 378.105469 759.394531 376.714844 759.773438 375.433594 C 760.574219 372.734375 763.980469 371.0625 767.589844 369.296875 C 769.722656 368.253906 771.929688 367.171875 773.636719 365.859375 C 775.726562 364.257812 777.863281 361.105469 777.597656 359.144531 C 777.488281 358.375 777.003906 357.828125 776.105469 357.464844 C 774.683594 356.890625 772.882812 357.554688 770.390625 358.535156 C 767.335938 359.734375 763.15625 361.375 757.152344 361.375 C 755.425781 361.375 753.613281 361.238281 751.769531 360.96875 C 749.289062 360.605469 747.070312 360.417969 745.175781 360.417969 C 739.113281 360.417969 737.476562 362.253906 736.285156 363.589844 C 735.582031 364.371094 734.859375 365.1875 733.535156 365.1875 C 733.21875 365.1875 732.886719 365.140625 732.519531 365.042969 C 728.433594 363.976562 717.96875 357.265625 712.347656 353.65625 L 710.800781 352.667969 C 710.695312 352.597656 710.585938 352.566406 710.457031 352.566406 Z M 710.457031 352.566406 " fill-opacity="1" fill-rule="nonzero"/><path fill="#8295ae" d="M 704.054688 389.015625 C 704.054688 389.015625 710.695312 396.078125 717.292969 394.378906 C 723.890625 392.679688 729.082031 358.148438 725.75 354.753906 C 722.417969 351.363281 714.097656 348.292969 714.097656 348.292969 " fill-opacity="1" fill-rule="nonzero"/><path fill="#113576" d="M 715.160156 395.519531 C 709.050781 395.519531 703.667969 389.886719 703.417969 389.617188 L 704.695312 388.414062 C 704.753906 388.480469 711.054688 395.074219 717.074219 393.53125 C 718.800781 393.085938 720.871094 389.085938 722.609375 382.832031 C 725.839844 371.226562 726.796875 357.070312 725.125 355.367188 C 721.96875 352.15625 713.875 349.144531 713.792969 349.113281 L 714.398438 347.46875 C 714.746094 347.597656 722.945312 350.648438 726.371094 354.140625 C 729.101562 356.921875 727.027344 373.488281 724.296875 383.300781 C 722.277344 390.574219 719.992188 394.589844 717.511719 395.226562 C 716.722656 395.429688 715.9375 395.519531 715.160156 395.519531 Z M 715.160156 395.519531 " fill-opacity="1" fill-rule="nonzero"/><path fill="#8295ae" d="M 594.496094 141.273438 C 551.644531 150.78125 533.992188 269.238281 554.730469 321.8125 C 575.46875 374.382812 680.648438 404.792969 702.035156 396.613281 C 723.421875 388.433594 724.1875 346.960938 714.0625 339.949219 C 703.941406 332.941406 649.371094 314.800781 636.644531 302.582031 C 623.917969 290.367188 622.347656 259.65625 625.246094 226.148438 C 628.144531 192.640625 637.347656 131.765625 594.496094 141.273438 Z M 594.496094 141.273438 " fill-opacity="1" fill-rule="nonzero"/><path fill="#113576" d="M 692.335938 398.808594 C 692.335938 398.808594 692.335938 398.808594 692.332031 398.808594 C 659.292969 398.808594 572.730469 369.835938 553.917969 322.132812 C 538.46875 282.964844 544.171875 207.707031 565.652344 167.277344 C 573.847656 151.855469 583.484375 142.820312 594.304688 140.417969 C 605.253906 137.988281 613.710938 139.960938 619.445312 146.265625 C 632.335938 160.4375 629.167969 193.839844 626.855469 218.226562 C 626.589844 221.019531 626.335938 223.699219 626.117188 226.226562 C 622.671875 266.074219 626.417969 291.550781 637.253906 301.949219 C 644.90625 309.300781 668.507812 319.0625 687.472656 326.90625 C 699.851562 332.027344 710.546875 336.449219 714.5625 339.230469 C 719.71875 342.804688 722.34375 354.648438 720.804688 367.398438 C 718.984375 382.484375 712.085938 393.710938 702.351562 397.433594 C 699.960938 398.347656 696.589844 398.808594 692.335938 398.808594 Z M 602.863281 141.15625 C 600.351562 141.15625 597.601562 141.484375 594.683594 142.128906 C 584.535156 144.382812 575.03125 153.363281 567.199219 168.101562 C 545.910156 208.167969 540.25 282.710938 555.546875 321.488281 C 574.089844 368.503906 659.652344 397.054688 692.332031 397.058594 C 692.332031 397.058594 692.332031 397.058594 692.335938 397.058594 C 696.375 397.058594 699.53125 396.632812 701.722656 395.796875 C 710.839844 392.308594 717.316406 381.617188 719.0625 367.1875 C 720.503906 355.242188 718.140625 343.84375 713.5625 340.671875 C 709.699219 337.996094 699.085938 333.605469 686.796875 328.523438 C 667.699219 320.625 643.925781 310.792969 636.035156 303.214844 C 624.800781 292.429688 620.875 266.476562 624.367188 226.074219 C 624.585938 223.542969 624.84375 220.859375 625.109375 218.0625 C 627.390625 193.996094 630.515625 161.042969 618.148438 147.445312 C 614.300781 143.214844 609.300781 141.15625 602.863281 141.15625 Z M 602.863281 141.15625 " fill-opacity="1" fill-rule="nonzero"/><path fill="#8295ae" d="M 694.164062 248.605469 C 692.148438 248.867188 683.464844 249.351562 678.480469 249.3125 C 673.496094 249.273438 659.390625 244.992188 657.6875 245.121094 C 655.984375 245.253906 656.691406 231.089844 658.964844 231.746094 C 661.234375 232.40625 675.648438 236.410156 681.210938 236.074219 C 686.773438 235.738281 693.441406 235.332031 695.441406 235.230469 C 697.4375 235.128906 696.179688 248.34375 694.164062 248.605469 Z M 694.164062 248.605469 " fill-opacity="1" fill-rule="nonzero"/><path fill="#113576" d="M 679.0625 250.191406 L 678.472656 250.1875 C 675.40625 250.164062 669.203125 248.636719 664.222656 247.410156 C 661.367188 246.707031 658.449219 246.003906 657.746094 245.996094 C 657.375 245.996094 656.882812 245.890625 656.523438 245.269531 C 655.324219 243.191406 655.828125 234.445312 657.296875 231.898438 C 657.800781 231.027344 658.398438 230.847656 658.808594 230.847656 L 659.207031 230.90625 C 663.335938 232.105469 675.207031 235.21875 680.5 235.21875 C 680.730469 235.21875 680.953125 235.210938 681.15625 235.199219 L 683.902344 235.035156 C 688.746094 234.742188 693.714844 234.441406 695.394531 234.355469 C 695.394531 234.355469 695.394531 234.355469 695.398438 234.355469 C 697.070312 234.355469 697.226562 236.800781 697.285156 237.722656 C 697.460938 240.4375 696.886719 249.136719 694.277344 249.472656 C 692.210938 249.742188 684.070312 250.1875 679.0625 250.191406 Z M 657.964844 244.257812 C 659.0625 244.34375 661.191406 244.859375 664.644531 245.707031 C 669.535156 246.914062 675.625 248.414062 678.488281 248.4375 L 679.0625 248.4375 C 684.21875 248.4375 692.277344 247.96875 694.050781 247.738281 C 694.203125 247.574219 694.917969 246.027344 695.339844 242.5625 C 695.746094 239.246094 695.554688 236.785156 695.246094 236.121094 C 693.410156 236.21875 688.652344 236.507812 684.011719 236.785156 L 681.265625 236.953125 C 681.023438 236.964844 680.769531 236.972656 680.503906 236.972656 L 680.5 236.972656 C 674.265625 236.972656 660.597656 233.125 658.894531 232.636719 C 657.828125 233.859375 657.144531 242.519531 657.964844 244.257812 Z M 657.964844 244.257812 " fill-opacity="1" fill-rule="nonzero"/><path fill="#113576" d="M 604.132812 311.765625 L 603.160156 310.304688 C 603.832031 309.859375 604.597656 309.289062 605.460938 308.644531 C 611.292969 304.308594 622.136719 296.238281 636.949219 301.761719 L 636.335938 303.402344 C 622.417969 298.214844 612.460938 305.625 606.507812 310.050781 C 605.617188 310.714844 604.824219 311.304688 604.132812 311.765625 Z M 604.132812 311.765625 " fill-opacity="1" fill-rule="nonzero"/><path fill="#113576" d="M 688.207031 179.746094 C 688.191406 179.746094 688.179688 179.746094 688.167969 179.746094 C 687.847656 179.730469 687.5625 179.542969 687.421875 179.257812 L 678.019531 160.21875 L 668.835938 174.550781 C 668.59375 174.933594 668.105469 175.0625 667.707031 174.863281 C 651.949219 166.976562 638.300781 141.878906 637.726562 140.8125 C 637.496094 140.386719 637.65625 139.855469 638.082031 139.625 C 638.507812 139.394531 639.039062 139.554688 639.269531 139.984375 C 639.40625 140.234375 652.8125 164.886719 667.796875 172.933594 L 677.386719 157.96875 C 677.554688 157.703125 677.847656 157.558594 678.171875 157.566406 C 678.488281 157.585938 678.769531 157.769531 678.910156 158.054688 L 688.28125 177.03125 C 690.480469 173.265625 696.480469 162.617188 698.375 155.285156 C 698.492188 154.816406 698.964844 154.53125 699.441406 154.652344 C 699.910156 154.773438 700.191406 155.253906 700.070312 155.722656 C 697.679688 164.972656 689.308594 178.742188 688.957031 179.324219 C 688.792969 179.589844 688.511719 179.746094 688.207031 179.746094 Z M 688.207031 179.746094 " fill-opacity="1" fill-rule="nonzero"/><path fill="#113576" d="M 677.351562 226.214844 C 677.277344 226.214844 677.203125 226.203125 677.128906 226.183594 C 676.660156 226.058594 676.382812 225.578125 676.503906 225.113281 C 681.761719 205.378906 676.535156 160.191406 676.484375 159.738281 C 676.425781 159.257812 676.769531 158.824219 677.25 158.765625 C 677.722656 158.699219 678.167969 159.054688 678.222656 159.535156 C 678.441406 161.402344 683.539062 205.507812 678.199219 225.566406 C 678.097656 225.953125 677.742188 226.214844 677.351562 226.214844 Z M 677.351562 226.214844 " fill-opacity="1" fill-rule="nonzero"/><path fill="#113576" d="M 719.394531 124.640625 C 717.683594 124.640625 715.929688 124.414062 714.175781 123.960938 C 707.535156 122.253906 702.40625 119.160156 701.101562 116.089844 C 700.644531 115.011719 700.667969 113.976562 701.171875 113.089844 C 701.648438 112.25 702.917969 111.875 705.289062 111.875 C 711.601562 111.875 728.933594 115.242188 730.007812 118.058594 C 730.3125 118.855469 730.144531 119.785156 729.535156 120.671875 C 728.167969 122.644531 724.507812 124.640625 719.394531 124.640625 Z M 705.285156 113.625 C 703.089844 113.625 702.679688 113.980469 702.667969 113.992188 C 702.464844 114.355469 702.472656 114.832031 702.714844 115.402344 C 703.613281 117.523438 707.644531 120.46875 714.613281 122.261719 C 716.222656 122.675781 717.832031 122.886719 719.394531 122.886719 C 723.648438 122.886719 726.988281 121.269531 728.085938 119.675781 C 728.359375 119.28125 728.460938 118.917969 728.371094 118.675781 C 727.363281 117.289062 712.804688 113.625 705.285156 113.625 Z M 705.285156 113.625 " fill-opacity="1" fill-rule="nonzero"/><path fill="#113576" d="M 712.007812 122.355469 C 711.65625 122.355469 711.320312 122.136719 711.1875 121.785156 C 710.695312 120.46875 710.695312 118.902344 710.695312 117.390625 C 710.695312 116.03125 710.695312 114.628906 710.3125 113.609375 C 710.140625 113.152344 710.371094 112.648438 710.824219 112.480469 C 711.277344 112.308594 711.785156 112.539062 711.953125 112.992188 C 712.445312 114.308594 712.445312 115.875 712.445312 117.390625 C 712.445312 118.746094 712.445312 120.152344 712.828125 121.171875 C 713 121.625 712.769531 122.128906 712.316406 122.300781 C 712.214844 122.335938 712.113281 122.355469 712.007812 122.355469 Z M 712.007812 122.355469 " fill-opacity="1" fill-rule="nonzero"/><path fill="#113576" d="M 722.230469 123.8125 C 722.121094 123.8125 722.011719 123.792969 721.90625 123.75 C 721.453125 123.570312 721.238281 123.058594 721.417969 122.609375 C 721.984375 121.199219 722.679688 117.683594 722.574219 117.082031 C 722.355469 116.652344 722.554688 116.179688 722.984375 115.964844 C 723.421875 115.746094 723.964844 115.980469 724.183594 116.410156 C 724.726562 117.503906 723.449219 122.25 723.042969 123.261719 C 722.90625 123.605469 722.578125 123.8125 722.230469 123.8125 Z M 722.230469 123.8125 " fill-opacity="1" fill-rule="nonzero"/><path fill="#113576" d="M 638.261719 40.863281 C 638.140625 40.863281 638.015625 40.839844 637.898438 40.785156 C 637.457031 40.585938 637.261719 40.066406 637.464844 39.625 C 640.398438 33.171875 644.996094 29.472656 650.089844 29.472656 C 650.574219 29.472656 650.964844 29.863281 650.964844 30.347656 C 650.964844 30.832031 650.574219 31.222656 650.089844 31.222656 C 643.875 31.222656 640.304688 37.605469 639.058594 40.347656 C 638.910156 40.671875 638.59375 40.863281 638.261719 40.863281 Z M 638.261719 40.863281 " fill-opacity="1" fill-rule="nonzero"/><path fill="#113576" d="M 639.441406 57.949219 C 638.957031 57.949219 638.566406 57.558594 638.566406 57.074219 C 638.566406 46.039062 643.667969 37.53125 653.726562 31.78125 C 654.140625 31.539062 654.679688 31.683594 654.921875 32.105469 C 655.164062 32.523438 655.015625 33.058594 654.597656 33.300781 C 645.121094 38.714844 640.316406 46.714844 640.316406 57.074219 C 640.320312 57.558594 639.925781 57.949219 639.441406 57.949219 Z M 639.441406 57.949219 " fill-opacity="1" fill-rule="nonzero"/><path fill="#113576" d="M 743.40625 45.683594 C 742.988281 45.683594 742.613281 45.378906 742.542969 44.953125 C 741.382812 38.007812 735.871094 29.910156 727.929688 28.585938 C 727.453125 28.503906 727.128906 28.054688 727.210938 27.578125 C 727.289062 27.097656 727.75 26.769531 728.21875 26.855469 C 736.960938 28.3125 743.015625 37.117188 744.273438 44.664062 C 744.351562 45.140625 744.027344 45.59375 743.550781 45.671875 C 743.503906 45.679688 743.453125 45.683594 743.40625 45.683594 Z M 743.40625 45.683594 " fill-opacity="1" fill-rule="nonzero"/></svg>